<?xml version="1.0" encoding="UTF-8"?>
<svg xmlns="http://www.w3.org/2000/svg" width="79" height="76" viewBox="0 0 79 76" fill="none">
  <g clip-path="url(#clip0_8_443)">
    <path d="M2.5052 58.9578C3.81673 58.9578 4.82033 59.1985 5.51601 59.6788C6.21168 60.1603 6.55889 60.894 6.55889 61.8824C6.55889 63.1154 5.95065 63.9504 4.73543 64.3876C4.90143 64.5891 5.08897 64.8337 5.29932 65.1226C5.50967 65.4115 5.72382 65.7245 5.94178 66.0603C6.15973 66.3974 6.37008 66.742 6.57156 67.0968C6.77304 67.4517 6.95171 67.7989 7.10884 68.1397H5.25877C5.09277 67.8255 4.91283 67.5074 4.72149 67.1881C4.52888 66.8687 4.335 66.5583 4.13732 66.2567C3.94091 65.9551 3.74576 65.6713 3.55315 65.4039C3.36054 65.1378 3.18187 64.8996 3.01587 64.6892C2.89296 64.6981 2.78778 64.7019 2.70161 64.7019C2.61418 64.7019 2.53055 64.7019 2.45198 64.7019H1.65113V68.1385H0V59.1783C0.401694 59.0908 0.831266 59.0313 1.28618 59.0009C1.73983 58.973 2.14659 58.9578 2.5052 58.9578ZM2.62305 60.3872C2.27331 60.3872 1.94891 60.4011 1.65239 60.4264V63.365H2.37342C2.77511 63.365 3.12992 63.3435 3.43657 63.2991C3.74196 63.256 3.99793 63.1762 4.20448 63.0634C4.40976 62.9494 4.56563 62.7973 4.6708 62.6047C4.77598 62.4121 4.82793 62.1675 4.82793 61.8697C4.82793 61.5897 4.77598 61.354 4.6708 61.1614C4.56563 60.9688 4.41483 60.8155 4.21842 60.7027C4.02201 60.5886 3.78758 60.5088 3.51641 60.4607C3.24396 60.4112 2.94745 60.3872 2.62305 60.3872Z" fill="black"></path>
    <path d="M8.39502 59.0503H14.2329V60.4543H10.0487V62.6972H13.7742V64.0746H10.0487V66.7382H14.5484V68.1423H8.39502V59.0503Z" fill="black"></path>
    <path d="M22.3276 68.141C22.2047 67.7824 22.078 67.4288 21.9462 67.0791C21.8144 66.7294 21.6877 66.3708 21.5648 66.0033H17.7252C17.6023 66.3708 17.4769 66.7319 17.3501 67.0854C17.2234 67.4402 17.098 67.7913 16.9751 68.141H15.2568C15.5976 67.1703 15.9208 66.2744 16.2262 65.452C16.5315 64.6297 16.8306 63.8516 17.1233 63.1166C17.416 62.3817 17.7062 61.6822 17.9951 61.0182C18.284 60.3542 18.5806 59.6978 18.8872 59.0503H20.4649C20.7702 59.6978 21.068 60.3529 21.3569 61.0182C21.6459 61.6835 21.936 62.3829 22.2288 63.1166C22.5215 63.8516 22.8231 64.6297 23.1348 65.452C23.4452 66.2744 23.7709 67.1703 24.1118 68.141H22.3276ZM19.6437 60.8079C19.4422 61.2716 19.2129 61.8355 18.9556 62.4995C18.6971 63.1648 18.4285 63.8858 18.1485 64.6639H21.139C20.8589 63.8858 20.5878 63.1597 20.3255 62.4869C20.0644 61.8127 19.8363 61.2539 19.6437 60.8079Z" fill="black"></path>
    <path d="M30.9976 66.7104V68.1397H25.2522V59.049H26.9046V66.7104H30.9976Z" fill="black"></path>
    <path d="M35.3136 59.0503H41.1515V60.4543H36.9673V62.6972H40.6927V64.0746H36.9673V66.7382H41.467V68.1423H35.3136V59.0503Z" fill="black"></path>
    <path d="M45.2039 66.9068C45.7982 66.9068 46.2316 66.8067 46.5027 66.6052C46.7739 66.4037 46.9095 66.1199 46.9095 65.7524C46.9095 65.5344 46.8639 65.3456 46.7714 65.1885C46.6801 65.0313 46.5483 64.8894 46.3773 64.7614C46.2075 64.6347 45.9984 64.5169 45.7538 64.4079C45.5093 64.2989 45.2292 64.1912 44.915 64.086C44.6007 63.972 44.2966 63.8478 44.0039 63.7122C43.7111 63.5766 43.4526 63.4081 43.2296 63.2066C43.0066 63.0051 42.8279 62.7656 42.6911 62.4856C42.5555 62.2055 42.4883 61.8685 42.4883 61.4757C42.4883 60.6533 42.7722 60.0083 43.3411 59.5407C43.9088 59.0731 44.6831 58.8387 45.6626 58.8387C46.2316 58.8387 46.7359 58.902 47.1781 59.0287C47.6191 59.1555 47.9676 59.2936 48.221 59.4418L47.7091 60.78C47.4113 60.614 47.0856 60.4873 46.7321 60.3998C46.3773 60.3124 46.0123 60.268 45.6372 60.268C45.1912 60.268 44.844 60.3593 44.5944 60.543C44.3447 60.7268 44.2206 60.9853 44.2206 61.3173C44.2206 61.5187 44.2624 61.6911 44.3447 61.8355C44.4271 61.98 44.5462 62.1092 44.6983 62.222C44.8516 62.3361 45.0303 62.4412 45.2356 62.5363C45.4408 62.6326 45.6664 62.7251 45.911 62.8113C46.3393 62.9684 46.722 63.128 47.059 63.2902C47.3961 63.4524 47.6799 63.6438 47.9118 63.8668C48.1437 64.0898 48.3199 64.3521 48.4428 64.6537C48.5644 64.9553 48.6265 65.3203 48.6265 65.7486C48.6265 66.571 48.3351 67.2071 47.7547 67.6569C47.1731 68.108 46.3228 68.3323 45.2026 68.3323C44.8263 68.3323 44.4829 68.3083 44.1724 68.2601C43.8619 68.2119 43.587 68.1524 43.3462 68.0827C43.1054 68.013 42.8976 67.9408 42.7228 67.866C42.5479 67.7925 42.4085 67.7241 42.3033 67.6633L42.7886 66.3125C43.0243 66.4442 43.3437 66.5748 43.7466 66.7065C44.1509 66.8421 44.6362 66.9068 45.2039 66.9068Z" fill="black"></path>
    <path d="M56.4209 59.049V60.4784H53.6268V68.1397H51.9604V60.4784H49.1663V59.049H56.4209Z" fill="black"></path>
    <path d="M62.9798 68.141C62.8569 67.7824 62.7302 67.4288 62.5984 67.0791C62.4666 66.7294 62.3399 66.3708 62.2169 66.0033H58.3774C58.2545 66.3708 58.129 66.7319 58.0023 67.0854C57.8756 67.4402 57.7502 67.7913 57.6272 68.141H55.9077C56.2486 67.1703 56.5717 66.2744 56.8783 65.452C57.1837 64.6297 57.4828 63.8516 57.7755 63.1166C58.0682 62.3817 58.3584 61.6822 58.6473 61.0182C58.9362 60.3542 59.2328 59.6978 59.5381 59.0503H61.1158C61.4224 59.6978 61.7189 60.3529 62.0079 61.0182C62.2968 61.6835 62.587 62.3829 62.8797 63.1166C63.1724 63.8516 63.474 64.6297 63.7857 65.452C64.0962 66.2744 64.4218 67.1703 64.7627 68.141H62.9798ZM60.2972 60.8079C60.0957 61.2716 59.8663 61.8355 59.6091 62.4995C59.3506 63.1648 59.082 63.8858 58.8019 64.6639H61.7924C61.5124 63.8858 61.2412 63.1597 60.9789 62.4869C60.7166 61.8127 60.4898 61.2539 60.2972 60.8079Z" fill="black"></path>
    <path d="M71.4927 59.049V60.4784H68.6985V68.1397H67.0335V60.4784H64.2394V59.049H71.4927Z" fill="black"></path>
    <path d="M72.7522 59.0503H78.5901V60.4543H74.4059V62.6972H78.1314V64.0746H74.4059V66.7382H78.9056V68.1423H72.7522V59.0503Z" fill="black"></path>
    <path d="M18.6667 76C18.4843 76 18.3157 75.9671 18.1599 75.9024C18.004 75.8365 17.8671 75.7415 17.7518 75.6173C17.6365 75.4919 17.5453 75.3385 17.4781 75.1548C17.411 74.9711 17.378 74.762 17.378 74.525C17.378 74.288 17.4135 74.079 17.4857 73.8952C17.558 73.7115 17.653 73.5582 17.7734 73.4327C17.8925 73.3073 18.0319 73.2135 18.189 73.1489C18.3461 73.0855 18.5109 73.0526 18.6819 73.0526C18.7884 73.0526 18.8847 73.0589 18.9709 73.0728C19.0583 73.0868 19.1343 73.1032 19.1989 73.1235C19.2636 73.1438 19.3193 73.1641 19.3662 73.1843C19.4118 73.2046 19.4473 73.2236 19.4727 73.2401L19.3827 73.4809C19.3143 73.4403 19.2281 73.3998 19.1242 73.3605C19.019 73.3212 18.8898 73.3009 18.7352 73.3009C18.559 73.3009 18.4044 73.3313 18.2726 73.3909C18.1409 73.4504 18.0306 73.5353 17.9406 73.6431C17.8507 73.752 17.7835 73.8813 17.7392 74.0308C17.6948 74.1803 17.672 74.3463 17.672 74.5275C17.672 74.7151 17.6948 74.8836 17.7392 75.0344C17.7835 75.1852 17.8494 75.3132 17.9368 75.4196C18.0243 75.5248 18.1307 75.6072 18.2562 75.6642C18.3829 75.7212 18.5273 75.7491 18.6908 75.7491C18.8707 75.7491 19.0203 75.7326 19.1407 75.6984C19.261 75.6642 19.3535 75.63 19.4156 75.5945L19.4929 75.8315C19.4739 75.8454 19.441 75.8606 19.3954 75.8783C19.3497 75.8961 19.2902 75.9151 19.2205 75.9341C19.1495 75.9531 19.0684 75.9683 18.9759 75.981C18.8834 75.9937 18.7808 76 18.6667 76Z" fill="black"></path>
    <path d="M23.0803 74.525C23.0803 74.767 23.0448 74.9799 22.9739 75.1649C22.9029 75.3499 22.8079 75.5045 22.6862 75.6275C22.5658 75.7516 22.4252 75.8441 22.2642 75.9062C22.1033 75.9683 21.9335 76 21.7548 76C21.5749 76 21.4051 75.9683 21.2454 75.9062C21.0845 75.8441 20.9451 75.7504 20.8235 75.6275C20.7031 75.5033 20.6068 75.3499 20.5358 75.1649C20.4649 74.9799 20.4294 74.767 20.4294 74.525C20.4294 74.283 20.4649 74.0701 20.5358 73.8864C20.6068 73.7026 20.7018 73.5493 20.8235 73.4264C20.9438 73.3022 21.0845 73.2097 21.2454 73.1476C21.4064 73.0855 21.5762 73.0538 21.7548 73.0538C21.9348 73.0538 22.1046 73.0855 22.2642 73.1476C22.4239 73.2097 22.5646 73.3035 22.6862 73.4264C22.8066 73.5506 22.9029 73.7039 22.9739 73.8864C23.0448 74.0701 23.0803 74.283 23.0803 74.525ZM22.7876 74.525C22.7876 74.3349 22.7635 74.1639 22.7141 74.0131C22.6647 73.8623 22.5962 73.7343 22.5063 73.6279C22.4163 73.5214 22.3086 73.4416 22.1819 73.3858C22.0552 73.3301 21.9132 73.3022 21.7561 73.3022C21.599 73.3022 21.457 73.3301 21.3303 73.3858C21.2036 73.4416 21.0959 73.5227 21.0059 73.6279C20.916 73.7343 20.8475 73.8623 20.7981 74.0131C20.7487 74.1639 20.7246 74.3337 20.7246 74.525C20.7246 74.7151 20.7487 74.8862 20.7981 75.0369C20.8475 75.1877 20.916 75.3157 21.0059 75.4222C21.0959 75.5274 21.2036 75.6097 21.3303 75.6667C21.457 75.7238 21.599 75.7516 21.7561 75.7516C21.9132 75.7516 22.0552 75.7238 22.1819 75.6667C22.3086 75.6097 22.4163 75.5274 22.5063 75.4222C22.5962 75.3157 22.6647 75.1877 22.7141 75.0369C22.7622 74.8849 22.7876 74.7151 22.7876 74.525Z" fill="black"></path>
    <path d="M25.5792 75.5312C25.5513 75.4627 25.5133 75.3727 25.4626 75.2625C25.4119 75.151 25.3549 75.0294 25.2928 74.8976C25.2294 74.7658 25.1661 74.6302 25.1002 74.4895C25.0343 74.3489 24.9722 74.2184 24.9114 74.0954C24.8518 73.9738 24.7986 73.8661 24.7517 73.7736C24.7048 73.6811 24.6706 73.6165 24.6491 73.5784C24.6136 73.918 24.5857 74.2868 24.5654 74.6847C24.5451 75.0826 24.5261 75.5007 24.5109 75.9379H24.2372C24.2613 75.4247 24.2892 74.933 24.3209 74.4617C24.3525 73.9915 24.3906 73.5417 24.4374 73.1121H24.682C24.7631 73.2477 24.8505 73.4048 24.943 73.5835C25.0355 73.7609 25.128 73.9459 25.2193 74.1385C25.3105 74.3299 25.3992 74.5187 25.4841 74.7049C25.5703 74.8912 25.6451 75.0585 25.7109 75.208C25.7768 75.0585 25.8516 74.8912 25.9378 74.7049C26.0239 74.5187 26.1126 74.3299 26.2026 74.1385C26.2938 73.9472 26.3851 73.7622 26.4789 73.5835C26.5714 73.4061 26.6588 73.249 26.7399 73.1121H26.9718C27.0174 73.5417 27.0567 73.9915 27.0884 74.4617C27.12 74.9318 27.1479 75.4234 27.172 75.9379H26.8907C26.8742 75.5007 26.8565 75.0826 26.8362 74.6847C26.8159 74.2868 26.788 73.918 26.7526 73.5784C26.731 73.6165 26.6968 73.6823 26.6512 73.7736C26.6056 73.8661 26.5524 73.9738 26.4928 74.0954C26.4332 74.2171 26.3711 74.3489 26.3053 74.4895C26.2406 74.6289 26.176 74.7658 26.1139 74.8976C26.0518 75.0294 25.9948 75.151 25.9441 75.2625C25.8934 75.374 25.8554 75.464 25.8275 75.5312H25.5792Z" fill="black"></path>
    <path d="M29.1539 73.0893C29.553 73.0893 29.8508 73.1653 30.0472 73.3174C30.2424 73.4695 30.3412 73.6861 30.3412 73.9649C30.3412 74.1259 30.3121 74.2614 30.255 74.3742C30.198 74.487 30.1169 74.5782 30.0105 74.6467C29.904 74.7164 29.7748 74.7658 29.6214 74.7975C29.4681 74.8291 29.2945 74.8443 29.1019 74.8443H28.7192V75.9366H28.4417V73.1666C28.5393 73.14 28.6546 73.1197 28.7864 73.107C28.9169 73.0956 29.0398 73.0893 29.1539 73.0893ZM29.1665 73.3301C29.0626 73.3301 28.9752 73.3339 28.903 73.3402C28.8307 73.3465 28.7686 73.3529 28.718 73.3579V74.6048H29.069C29.2185 74.6048 29.3541 74.596 29.4745 74.5782C29.5948 74.5605 29.6987 74.5275 29.7836 74.4807C29.8698 74.4325 29.9344 74.3666 29.9813 74.283C30.0269 74.1981 30.051 74.0916 30.051 73.9611C30.051 73.8357 30.0257 73.733 29.9763 73.6507C29.9256 73.5696 29.8597 73.5049 29.776 73.4568C29.6937 73.4099 29.5986 73.3757 29.4922 73.3567C29.387 73.3402 29.278 73.3301 29.1665 73.3301Z" fill="black"></path>
    <path d="M33.2063 75.9392C33.1518 75.7998 33.1024 75.6667 33.058 75.5387C33.0124 75.4108 32.9693 75.2853 32.9288 75.1649H31.5488C31.5019 75.2866 31.455 75.412 31.4107 75.54C31.3651 75.668 31.3182 75.8011 31.2675 75.9392H30.9786C31.0863 75.6452 31.1877 75.3715 31.2827 75.1168C31.3777 74.8633 31.4715 74.6226 31.564 74.3958C31.6553 74.1689 31.7465 73.951 31.8377 73.7419C31.9277 73.5328 32.0227 73.3237 32.1228 73.1134H32.3674C32.4675 73.3225 32.5613 73.5315 32.6513 73.7406C32.7412 73.9497 32.8312 74.1677 32.9237 74.3945C33.0162 74.6213 33.1087 74.8608 33.2037 75.1155C33.2988 75.3702 33.4027 75.6439 33.5155 75.9379H33.2063V75.9392ZM32.2331 73.4327C32.1304 73.6671 32.0316 73.9054 31.934 74.1474C31.8377 74.3894 31.7364 74.6492 31.6337 74.9292H32.8388C32.7349 74.6492 32.6335 74.3882 32.5347 74.1461C32.4358 73.9028 32.3357 73.6659 32.2331 73.4327Z" fill="black"></path>
    <path d="M36.4464 75.9392C36.3945 75.8441 36.3286 75.7326 36.2488 75.6046C36.1689 75.4767 36.0815 75.3398 35.9852 75.1953C35.8889 75.0509 35.7875 74.9014 35.6823 74.748C35.5772 74.5947 35.472 74.4439 35.3681 74.2982C35.2642 74.1525 35.1615 74.0156 35.0614 73.8889C34.9613 73.7622 34.8726 73.6519 34.7953 73.5594V75.9392H34.5216V73.1146H34.7421C34.8815 73.2692 35.0297 73.4479 35.1881 73.6507C35.3465 73.8534 35.5024 74.06 35.6545 74.2703C35.8065 74.4807 35.9484 74.6872 36.0802 74.8874C36.212 75.0889 36.321 75.2638 36.4046 75.4133V73.1146H36.6783V75.9392H36.4464Z" fill="black"></path>
    <path d="M38.6805 75.9392V74.7772C38.4866 74.4807 38.3092 74.1955 38.1457 73.9193C37.9835 73.6431 37.8327 73.3757 37.6933 73.1146H38.0152C38.1292 73.3541 38.256 73.5962 38.3928 73.842C38.5309 74.0878 38.6741 74.3223 38.8237 74.5453C38.9681 74.3223 39.11 74.0878 39.2482 73.842C39.3876 73.5962 39.5155 73.3541 39.6321 73.1146H39.9337C39.7892 73.3732 39.6372 73.6405 39.4775 73.9193C39.3166 74.1981 39.143 74.4807 38.9554 74.7696V75.9392H38.6805Z" fill="black"></path>
    <path d="M43.0902 75.7592C43.3107 75.7592 43.4818 75.7187 43.6034 75.6389C43.7251 75.559 43.7872 75.4285 43.7872 75.2486C43.7872 75.1447 43.7682 75.0585 43.7276 74.9888C43.6883 74.9191 43.6364 74.8608 43.5705 74.8127C43.5059 74.7645 43.4311 74.724 43.3462 74.691C43.2613 74.6568 43.1739 74.6213 43.0814 74.5833C42.9648 74.5377 42.8596 74.4908 42.7671 74.4414C42.6746 74.3932 42.596 74.3375 42.5301 74.2766C42.4642 74.2158 42.4148 74.1461 42.3806 74.0663C42.3464 73.9865 42.3299 73.8952 42.3299 73.7888C42.3299 73.5468 42.4098 73.363 42.5707 73.2388C42.7304 73.1134 42.9534 73.0513 43.2398 73.0513C43.3158 73.0513 43.3906 73.0564 43.4641 73.0678C43.5375 73.0792 43.606 73.0931 43.6693 73.1108C43.7327 73.1286 43.791 73.1476 43.8442 73.1704C43.8974 73.1919 43.9418 73.2148 43.9773 73.2401L43.8797 73.472C43.8011 73.4175 43.7048 73.3744 43.592 73.3415C43.4793 73.3085 43.3576 73.2921 43.2271 73.2921C43.1371 73.2921 43.0548 73.3009 42.98 73.3187C42.9052 73.3364 42.8406 73.3643 42.7861 73.4036C42.7316 73.4428 42.6885 73.4923 42.6581 73.5531C42.6264 73.6126 42.6112 73.6849 42.6112 73.7685C42.6112 73.8559 42.6277 73.9294 42.6607 73.989C42.6936 74.0486 42.7392 74.1005 42.7975 74.1436C42.8558 74.1867 42.9242 74.226 43.0028 74.2614C43.0814 74.2969 43.1675 74.3337 43.26 74.3717C43.3715 74.4173 43.4767 74.4642 43.5756 74.5098C43.6744 74.5554 43.7606 74.6099 43.8341 74.6733C43.9076 74.7354 43.9658 74.8114 44.0089 74.9014C44.052 74.9913 44.0748 75.1016 44.0748 75.2321C44.0748 75.4881 43.9861 75.6794 43.8075 75.8074C43.63 75.9354 43.388 75.9987 43.0839 75.9987C42.9749 75.9987 42.8761 75.9911 42.7861 75.9785C42.6961 75.9645 42.6163 75.9481 42.5453 75.9278C42.4744 75.9075 42.4148 75.886 42.3654 75.8644C42.316 75.8429 42.278 75.8239 42.2514 75.8074L42.3413 75.5666C42.3679 75.5831 42.4047 75.6021 42.4516 75.6236C42.4972 75.6452 42.5517 75.6667 42.615 75.687C42.6771 75.7073 42.7481 75.7238 42.8267 75.7377C42.9078 75.7529 42.9952 75.7592 43.0902 75.7592Z" fill="black"></path>
    <path d="M46.8031 75.6984V75.9392H45.1975V73.1146H45.4751V75.6984H46.8031Z" fill="black"></path>
    <path d="M50.2485 74.525C50.2485 74.767 50.213 74.9799 50.1421 75.1649C50.0711 75.3499 49.9761 75.5045 49.8544 75.6275C49.734 75.7516 49.5934 75.8441 49.4324 75.9062C49.2715 75.9683 49.1017 76 48.923 76C48.7444 76 48.5733 75.9683 48.4136 75.9062C48.254 75.8441 48.112 75.7504 47.9917 75.6275C47.87 75.5033 47.775 75.3499 47.704 75.1649C47.633 74.9799 47.5976 74.767 47.5976 74.525C47.5976 74.283 47.633 74.0701 47.704 73.8864C47.775 73.7026 47.87 73.5493 47.9917 73.4264C48.112 73.3022 48.2527 73.2097 48.4136 73.1476C48.5733 73.0855 48.7444 73.0538 48.923 73.0538C49.103 73.0538 49.2728 73.0855 49.4324 73.1476C49.5921 73.2097 49.7328 73.3035 49.8544 73.4264C49.9748 73.5506 50.0711 73.7039 50.1421 73.8864C50.213 74.0701 50.2485 74.283 50.2485 74.525ZM49.9545 74.525C49.9545 74.3349 49.9304 74.1639 49.881 74.0131C49.8316 73.8623 49.7632 73.7343 49.6732 73.6279C49.5832 73.5214 49.4755 73.4416 49.3488 73.3858C49.2221 73.3301 49.0802 73.3022 48.923 73.3022C48.7659 73.3022 48.624 73.3301 48.4973 73.3858C48.3705 73.4416 48.2628 73.5227 48.1729 73.6279C48.0829 73.7343 48.0145 73.8623 47.965 74.0131C47.9156 74.1639 47.8916 74.3337 47.8916 74.525C47.8916 74.7151 47.9156 74.8862 47.965 75.0369C48.0145 75.1877 48.0829 75.3157 48.1729 75.4222C48.2628 75.5274 48.3705 75.6097 48.4973 75.6667C48.624 75.7238 48.7659 75.7516 48.923 75.7516C49.0814 75.7516 49.2221 75.7238 49.3488 75.6667C49.4755 75.6097 49.5832 75.5274 49.6732 75.4222C49.7632 75.3157 49.8316 75.1877 49.881 75.0369C49.9304 74.8849 49.9545 74.7151 49.9545 74.525Z" fill="black"></path>
    <path d="M53.5127 74.6023V75.8619C53.4608 75.8834 53.3594 75.9113 53.2086 75.9455C53.0578 75.9797 52.8728 75.9962 52.6523 75.9962C52.4673 75.9962 52.2962 75.9633 52.1391 75.8986C51.982 75.8327 51.8451 75.739 51.7298 75.6148C51.6145 75.4906 51.5245 75.3373 51.4586 75.1535C51.3927 74.9698 51.3611 74.7607 51.3611 74.5237C51.3611 74.2868 51.3966 74.0777 51.4675 73.894C51.5385 73.7102 51.6335 73.5569 51.7552 73.4327C51.8755 73.3085 52.0162 73.2148 52.1771 73.1489C52.3368 73.0842 52.5091 73.0513 52.6903 73.0513C52.8994 73.0513 53.0718 73.0741 53.2073 73.1185C53.3429 73.1628 53.4418 73.2059 53.5051 73.2464L53.4114 73.4834C53.3353 73.4289 53.2314 73.3846 53.1009 73.3503C52.9704 73.3161 52.8297 73.2997 52.6764 73.2997C52.5357 73.2997 52.4014 73.3263 52.2772 73.377C52.1518 73.4289 52.0441 73.5062 51.9516 73.6088C51.8591 73.7128 51.7868 73.8395 51.7336 73.9915C51.6804 74.1436 51.6538 74.321 51.6538 74.5212C51.6538 74.7088 51.6753 74.8773 51.7184 75.0281C51.7615 75.1789 51.8274 75.3081 51.9161 75.4158C52.0048 75.5236 52.1138 75.6046 52.2443 75.6629C52.3748 75.72 52.5256 75.7478 52.6967 75.7478C52.8348 75.7478 52.9514 75.7402 53.0451 75.725C53.1389 75.7098 53.2023 75.6959 53.234 75.6819V74.6023H53.5127Z" fill="black"></path>
    <path d="M56.668 75.9392C56.6135 75.7998 56.5641 75.6667 56.5197 75.5387C56.4741 75.4108 56.431 75.2853 56.3905 75.1649H55.0105C54.9636 75.2866 54.9168 75.412 54.8724 75.54C54.8268 75.668 54.7799 75.8011 54.7292 75.9392H54.4403C54.548 75.6452 54.6494 75.3715 54.7444 75.1168C54.8395 74.8633 54.9332 74.6226 55.0257 74.3958C55.117 74.1689 55.2082 73.951 55.2994 73.7419C55.3894 73.5328 55.4845 73.3237 55.5846 73.1134H55.8291C55.9292 73.3225 56.023 73.5315 56.113 73.7406C56.2017 73.9497 56.2929 74.1677 56.3854 74.3945C56.4779 74.6213 56.5704 74.8608 56.6655 75.1155C56.7605 75.3702 56.8644 75.6439 56.9772 75.9379H56.668V75.9392ZM55.6961 73.4327C55.5934 73.6671 55.4946 73.9054 55.397 74.1474C55.3007 74.3894 55.1993 74.6492 55.0967 74.9292H56.3018C56.1979 74.6492 56.0965 74.3882 55.9977 74.1461C55.8988 73.9028 55.7974 73.6659 55.6961 73.4327Z" fill="black"></path>
    <path d="M59.9082 75.9392C59.8562 75.8441 59.7903 75.7326 59.7105 75.6046C59.6319 75.4767 59.5432 75.3398 59.4469 75.1953C59.3506 75.0509 59.2492 74.9014 59.1441 74.748C59.0389 74.5947 58.9337 74.4439 58.8298 74.2982C58.7259 74.1525 58.6232 74.0156 58.5231 73.8889C58.423 73.7622 58.3343 73.6519 58.257 73.5594V75.9392H57.9846V73.1146H58.2051C58.3445 73.2692 58.4927 73.4479 58.6511 73.6507C58.8095 73.8534 58.9654 74.06 59.1174 74.2703C59.2695 74.4807 59.4114 74.6872 59.5432 74.8874C59.675 75.0889 59.784 75.2638 59.8676 75.4133V73.1146H60.1413V75.9392H59.9082Z" fill="black"></path>
    <path d="M15.9993 13.2584V39.7766L37.9354 51.9744V15.3581L30.3653 22.3758V40.8816L28.5494 39.8919V23.8431L23.8735 27.9944V37.3449L21.9893 36.3185V16.7178L38.9643 6.91623V0L15.9993 13.2584Z" fill="black"></path>
    <path d="M38.9643 0V6.91623L55.9394 16.7178V36.3185L54.0564 37.3449V27.9944L49.3792 23.8431V39.8919L47.5634 40.8816V22.3758L39.9945 15.3581V51.9744L61.9293 39.7766V13.2584L38.9643 0Z" fill="black"></path>
  </g>
  <defs>
    <clipPath id="clip0_8_443">
      <rect width="78.9056" height="76" fill="white"></rect>
    </clipPath>
  </defs>
</svg>
