<?xml version="1.0" encoding="UTF-8"?>
<svg xmlns="http://www.w3.org/2000/svg" width="110" height="72" viewBox="0 0 110 72" fill="none">
  <g clip-path="url(#clip0_8_305)">
    <path d="M30.7176 26.3607C30.7176 26.5365 30.5748 26.6777 30.3991 26.6777H25.9423C25.7666 26.6777 25.6238 26.5349 25.6238 26.3607V21.9024C25.6238 21.7266 25.7666 21.5823 25.9423 21.5823H30.3991C30.5748 21.5823 30.7176 21.7266 30.7176 21.9024V26.3607Z" fill="black"></path>
    <path d="M37.1219 26.3607C37.1219 26.5365 36.9791 26.6777 36.8033 26.6777H32.3466C32.1708 26.6777 32.028 26.5349 32.028 26.3607V21.9024C32.028 21.7266 32.1708 21.5823 32.3466 21.5823H36.8033C36.9791 21.5823 37.1219 21.7266 37.1219 21.9024V26.3607Z" fill="black"></path>
    <path d="M78.0769 26.3607C78.0769 26.5365 77.9341 26.6777 77.7583 26.6777H73.3C73.1242 26.6777 72.983 26.5349 72.983 26.3607V21.9024C72.983 21.7266 73.1258 21.5823 73.3 21.5823H77.7583C77.9341 21.5823 78.0769 21.7266 78.0769 21.9024V26.3607Z" fill="black"></path>
    <path d="M84.4795 26.3607C84.4795 26.5365 84.3367 26.6777 84.1609 26.6777H79.7026C79.5284 26.6777 79.3841 26.5349 79.3841 26.3607V21.9024C79.3841 21.7266 79.5269 21.5823 79.7026 21.5823H84.1609C84.3367 21.5823 84.4795 21.7266 84.4795 21.9024V26.3607Z" fill="black"></path>
    <path d="M94.6186 22.166L89.0461 16.592C89.0461 16.5904 89.0461 16.5904 89.0461 16.5904V12.6468C89.0461 12.4255 88.8656 12.2466 88.6459 12.2466H86.8915C86.6718 12.2466 86.4913 12.4255 86.4913 12.6468V14.0372L79.1126 6.65844C78.9023 6.44815 78.5571 6.44815 78.3468 6.65844L77.581 7.42425C77.3707 7.63453 77.0254 7.97977 76.8152 8.19005L70.1395 14.8642L56.9654 1.69011C56.7551 1.47825 56.4114 1.13458 56.1996 0.922731L55.4338 0.158493C55.2235 -0.0533598 54.8782 -0.0533598 54.668 0.158493L47.2908 7.53566V6.14528C47.2908 5.92715 47.1103 5.74512 46.8906 5.74512H45.1362C44.9165 5.74512 44.736 5.92715 44.736 6.14528V10.0889C44.736 10.0904 44.7376 10.0904 44.7376 10.092L39.9638 14.8658L33.2897 8.19162C33.0794 7.98134 32.7342 7.6361 32.5239 7.42581L31.7565 6.66001C31.5462 6.44972 31.2026 6.44972 30.9923 6.66001L23.6151 14.0387V12.6484C23.6151 12.4271 23.4346 12.2482 23.2149 12.2482H21.4605C21.2392 12.2482 21.0587 12.4271 21.0587 12.6484V16.592C21.0587 16.592 21.0587 16.592 21.0587 16.5935L15.4862 22.1676C15.276 22.3779 15.276 22.7216 15.4862 22.9318L16.2521 23.6976C16.4623 23.9079 16.8076 23.9079 17.0179 23.6976L30.9907 9.72324C31.201 9.51138 31.5462 9.51138 31.7549 9.72324L45.7294 23.6961C45.9396 23.9064 46.2849 23.9064 46.4952 23.6961L47.261 22.9303C47.4728 22.72 47.4728 22.3763 47.261 22.166L41.4939 16.3958L54.6695 3.22015C54.8798 3.00987 55.225 3.00987 55.4353 3.22015L68.611 16.3958L62.8439 22.166C62.6336 22.3763 62.6336 22.72 62.8439 22.9303L63.6097 23.6961C63.8215 23.9064 64.1652 23.9064 64.3755 23.6961L78.3499 9.72167C78.5618 9.50981 78.9054 9.50981 79.1157 9.72167L93.087 23.6961C93.2973 23.9064 93.6425 23.9064 93.8528 23.6961L94.6186 22.9303C94.8289 22.72 94.8289 22.3763 94.6186 22.166Z" fill="black"></path>
    <path d="M32.0609 11.167C31.9793 11.0854 31.8475 10.9551 31.7675 10.8735L31.474 10.5785C31.394 10.4985 31.2622 10.4985 31.1806 10.5785L25.2409 16.5198C25.1593 16.5998 25.1593 16.7316 25.2409 16.8132L25.5343 17.1067C25.6144 17.1883 25.7477 17.1883 25.8278 17.1067L31.1806 11.7523C31.2606 11.6723 31.394 11.6723 31.474 11.7523L36.8284 17.1067C36.9084 17.1883 37.0403 17.1883 37.1219 17.1067L37.4153 16.8132C37.4954 16.7332 37.4954 16.5998 37.4153 16.5198L32.0609 11.167Z" fill="black"></path>
    <path d="M55.7853 4.60896C55.7052 4.52893 55.5734 4.39711 55.4918 4.31551L55.1984 4.02205C55.1183 3.94045 54.9849 3.94045 54.9049 4.02205L48.9652 9.96177C48.8836 10.0434 48.8852 10.1736 48.9652 10.2537L49.2587 10.5487C49.3387 10.6287 49.4721 10.6287 49.5521 10.5487L54.9065 5.1943C54.9865 5.11427 55.1199 5.11427 55.1999 5.1943L60.5527 10.5487C60.6328 10.6287 60.7646 10.6287 60.8462 10.5487L61.1396 10.2537C61.2197 10.1736 61.2197 10.0418 61.1396 9.96177L55.7853 4.60896Z" fill="black"></path>
    <path d="M79.4641 11.167C79.3825 11.0854 79.2507 10.9551 79.1706 10.8735L78.8772 10.5785C78.7956 10.4985 78.6653 10.4985 78.5837 10.5785L72.644 16.5198C72.5624 16.5998 72.5624 16.7316 72.644 16.8132L72.9375 17.1067C73.0175 17.1883 73.1509 17.1883 73.2309 17.1067L78.5837 11.7523C78.6653 11.6723 78.7956 11.6723 78.8772 11.7523L84.23 17.1067C84.3116 17.1883 84.4434 17.1883 84.5234 17.1067L84.8169 16.8132C84.8985 16.7332 84.8985 16.5998 84.8169 16.5198L79.4641 11.167Z" fill="black"></path>
    <path d="M55.0509 32.2439C73.9497 32.2439 90.3047 36.2362 98.2013 42.0441C95.8379 34.6198 77.4225 28.837 55.0509 28.837C32.6792 28.837 14.2622 34.6198 11.9004 42.0441C19.797 36.2362 36.1521 32.2439 55.0509 32.2439Z" fill="black"></path>
    <path d="M30.7176 30.3671V27.9645C30.7176 27.7903 30.5748 27.6475 30.3991 27.6475H25.9423C25.7666 27.6475 25.6238 27.7903 25.6238 27.9645V31.7512C27.2166 31.2474 28.9177 30.7829 30.7176 30.3671Z" fill="black"></path>
    <path d="M37.1219 29.1399V27.9629C37.1219 27.7888 36.9791 27.646 36.8033 27.646H32.3466C32.1708 27.646 32.028 27.7888 32.028 27.9629V30.0736C33.6553 29.7268 35.3564 29.4145 37.1219 29.1399Z" fill="black"></path>
    <path d="M78.0769 30.0752V27.9645C78.0769 27.7903 77.9341 27.6475 77.7583 27.6475H73.3C73.1242 27.6475 72.983 27.7903 72.983 27.9645V29.1415C74.7468 29.4145 76.4464 29.7268 78.0769 30.0752Z" fill="black"></path>
    <path d="M84.4795 31.7496V27.9645C84.4795 27.7903 84.3367 27.6475 84.1609 27.6475H79.7026C79.5284 27.6475 79.3841 27.7903 79.3841 27.9645V30.3686C81.1856 30.7829 82.8867 31.2474 84.4795 31.7496Z" fill="black"></path>
    <path d="M54.3965 20.6046C54.3965 20.7804 54.2537 20.9232 54.0795 20.9232H49.6212C49.4454 20.9232 49.3026 20.7804 49.3026 20.6046V16.1447C49.3026 15.9705 49.4454 15.8277 49.6212 15.8277H54.0795C54.2552 15.8277 54.3965 15.9705 54.3965 16.1447V20.6046Z" fill="black"></path>
    <path d="M60.7991 20.6046C60.7991 20.7804 60.6563 20.9232 60.4806 20.9232H56.0238C55.848 20.9232 55.7052 20.7804 55.7052 20.6046V16.1447C55.7052 15.9705 55.848 15.8277 56.0238 15.8277H60.4821C60.6579 15.8277 60.8007 15.9705 60.8007 16.1447V20.6046H60.7991Z" fill="black"></path>
    <path d="M54.3965 26.6667C54.3965 26.8425 54.2537 26.9853 54.0795 26.9853H49.6212C49.4454 26.9853 49.3026 26.8425 49.3026 26.6667V22.2084C49.3026 22.0342 49.4454 21.8914 49.6212 21.8914H54.0795C54.2552 21.8914 54.3965 22.0342 54.3965 22.2084V26.6667Z" fill="black"></path>
    <path d="M60.7991 26.6667C60.7991 26.8425 60.6563 26.9853 60.4806 26.9853H56.0238C55.848 26.9853 55.7052 26.8425 55.7052 26.6667V22.2084C55.7052 22.0342 55.848 21.8914 56.0238 21.8914H60.4821C60.6579 21.8914 60.8007 22.0342 60.8007 22.2084V26.6667H60.7991Z" fill="black"></path>
    <path d="M0.12616 48.1172H7.38407C9.05849 48.1172 10.3139 48.4797 11.1519 49.2031C11.9883 49.9265 12.4073 50.934 12.4073 52.2255C12.4073 52.949 12.3006 53.5484 12.0888 54.0239C11.8753 54.4994 11.6274 54.8823 11.3434 55.1726C11.0593 55.463 10.78 55.6732 10.5022 55.8003C10.226 55.9275 10.0236 56.0138 9.89491 56.0561V56.0985C10.1225 56.1268 10.3673 56.1974 10.6293 56.3119C10.8914 56.4249 11.1362 56.607 11.3638 56.8549C11.5913 57.1028 11.778 57.4261 11.9271 57.8231C12.0762 58.2202 12.15 58.7176 12.15 59.3124C12.15 60.2069 12.2174 61.0182 12.3524 61.7495C12.4874 62.4808 12.6961 63.0018 12.9801 63.314H10.1287C9.92943 62.9876 9.81331 62.6267 9.77721 62.2281C9.74112 61.8311 9.72386 61.4482 9.72386 61.0794C9.72386 60.3842 9.68149 59.7847 9.59675 59.281C9.51201 58.7773 9.35508 58.3583 9.1291 58.0256C8.90156 57.6929 8.59398 57.4481 8.20323 57.2912C7.81248 57.1358 7.31345 57.0573 6.703 57.0573H2.78608V63.314H0.12616V48.1172ZM2.78608 55.0345H7.14867C8.00079 55.0345 8.64576 54.8321 9.08516 54.4272C9.52456 54.0224 9.74426 53.4166 9.74426 52.6069C9.74426 52.1251 9.67364 51.7312 9.53084 51.4252C9.3896 51.1208 9.19344 50.8822 8.9455 50.7128C8.69755 50.5433 8.41351 50.4287 8.09338 50.3722C7.77482 50.3157 7.4437 50.2875 7.10317 50.2875H2.78608V55.0345Z" fill="black"></path>
    <path d="M16.6632 58.4399C16.6632 58.8651 16.7228 59.2779 16.8437 59.6749C16.9645 60.0719 17.145 60.4203 17.3866 60.7185C17.6283 61.0166 17.9327 61.2536 18.3015 61.4309C18.6703 61.6082 19.1097 61.6961 19.6213 61.6961C20.3306 61.6961 20.9018 61.5439 21.3349 61.2379C21.7681 60.9335 22.0898 60.4752 22.3032 59.8648H24.6022C24.4751 60.4611 24.2538 60.9931 23.9431 61.4607C23.6308 61.9284 23.2542 62.3223 22.8148 62.6424C22.3754 62.961 21.881 63.2026 21.3349 63.3658C20.7888 63.529 20.2176 63.6106 19.6213 63.6106C18.755 63.6106 17.9892 63.4694 17.3223 63.1854C16.6554 62.9013 16.0904 62.5043 15.6306 61.9927C15.1692 61.4827 14.8224 60.8723 14.587 60.1629C14.3532 59.4536 14.2355 58.6737 14.2355 57.8216C14.2355 57.0416 14.3595 56.2994 14.6074 55.5979C14.8554 54.8949 15.2101 54.2781 15.6714 53.7462C16.1328 53.2142 16.6899 52.792 17.3427 52.4798C17.9955 52.1675 18.7331 52.0121 19.5569 52.0121C20.4216 52.0121 21.1984 52.1926 21.8873 52.5551C22.5747 52.9176 23.1459 53.3962 23.601 53.991C24.0545 54.5873 24.384 55.2715 24.5912 56.0452C24.7968 56.8188 24.8501 57.6176 24.7513 58.4399H16.6632ZM22.3252 56.8439C22.2969 56.461 22.2153 56.0922 22.0803 55.7376C21.9454 55.3829 21.7618 55.0738 21.5264 54.8117C21.2926 54.5496 21.0085 54.3362 20.6743 54.173C20.34 54.0098 19.9681 53.9282 19.5569 53.9282C19.1317 53.9282 18.7441 54.002 18.3973 54.151C18.0489 54.3001 17.7507 54.5057 17.5028 54.7678C17.2548 55.0298 17.0555 55.339 16.9064 55.6936C16.7574 56.0483 16.6758 56.4312 16.6616 56.8424H22.3252V56.8439Z" fill="black"></path>
    <path d="M35.8178 60.866C35.8178 61.1641 35.857 61.376 35.9355 61.5047C36.014 61.6318 36.1662 61.6961 36.3937 61.6961C36.4643 61.6961 36.5491 61.6961 36.6495 61.6961C36.7484 61.6961 36.8629 61.682 36.99 61.6538V63.3344C36.9053 63.3627 36.7955 63.3941 36.6605 63.4302C36.5255 63.4663 36.3874 63.4977 36.2446 63.5259C36.1034 63.5541 35.9606 63.5761 35.8194 63.5902C35.6766 63.6044 35.5573 63.6122 35.4569 63.6122C34.9594 63.6122 34.5483 63.5133 34.2218 63.314C33.8954 63.1147 33.682 62.7679 33.5831 62.2705C33.1014 62.7381 32.5082 63.0787 31.8067 63.2921C31.1053 63.5055 30.4273 63.6106 29.7745 63.6106C29.277 63.6106 28.8031 63.5432 28.348 63.4082C27.8945 63.2732 27.4928 63.0755 27.146 62.8119C26.7976 62.5498 26.5214 62.2156 26.3158 61.8123C26.1102 61.4074 26.0067 60.9366 26.0067 60.3968C26.0067 59.7157 26.1306 59.1617 26.3786 58.7365C26.6265 58.3112 26.953 57.9769 27.3578 57.7368C27.7627 57.4952 28.2162 57.3225 28.72 57.2158C29.2237 57.1091 29.7306 57.0275 30.2422 56.971C30.6816 56.8863 31.1005 56.8251 31.4976 56.7906C31.8946 56.756 32.2461 56.6948 32.5506 56.6101C32.855 56.5254 33.0967 56.3935 33.274 56.2162C33.4513 56.0389 33.5408 55.7737 33.5408 55.4174C33.5408 55.1052 33.4655 54.8494 33.3179 54.6516C33.1689 54.4523 32.9837 54.3001 32.764 54.1934C32.5443 54.0867 32.2995 54.0161 32.0296 53.98C31.7596 53.9439 31.5039 53.9266 31.2638 53.9266C30.5827 53.9266 30.0225 54.0679 29.5831 54.3519C29.1437 54.6359 28.8941 55.0753 28.8377 55.6717H26.4116C26.4539 54.9624 26.625 54.3739 26.9231 53.9047C27.2213 53.437 27.6011 53.0604 28.0624 52.7764C28.5238 52.4923 29.0448 52.2946 29.627 52.18C30.2092 52.067 30.804 52.009 31.4144 52.009C31.9542 52.009 32.4862 52.0655 33.0104 52.18C33.5345 52.293 34.0069 52.4782 34.4258 52.734C34.8448 52.9898 35.1807 53.3193 35.4365 53.7242C35.6923 54.1291 35.8194 54.6218 35.8194 55.204V60.866H35.8178ZM33.3917 57.8012C33.0229 58.0428 32.5678 58.1872 32.0296 58.2374C31.4897 58.2877 30.9515 58.3614 30.4116 58.4603C30.1558 58.5026 29.9079 58.5638 29.6662 58.6407C29.4246 58.7192 29.2127 58.8259 29.0275 58.9593C28.8424 59.0943 28.698 59.2716 28.5913 59.4913C28.4846 59.711 28.4312 59.9778 28.4312 60.2901C28.4312 60.56 28.5097 60.7875 28.665 60.9711C28.8204 61.1563 29.0087 61.3007 29.2284 61.4074C29.4481 61.5141 29.6898 61.5878 29.9518 61.6302C30.2139 61.6726 30.4524 61.6946 30.6643 61.6946C30.9342 61.6946 31.2245 61.66 31.5368 61.5878C31.8491 61.5172 32.1441 61.3964 32.4203 61.2253C32.6965 61.0543 32.9272 60.8393 33.1124 60.5757C33.296 60.3136 33.3886 59.9903 33.3886 59.6074V57.8012H33.3917Z" fill="black"></path>
    <path d="M38.4997 48.1172H40.9274V63.314H38.5013V48.1172H38.4997Z" fill="black"></path>
    <path d="M49.8236 48.1172H60.763V50.4162H52.4835V54.3958H60.1463V56.5662H52.4835V61.0151H60.9121V63.314H49.8236V48.1172Z" fill="black"></path>
    <path d="M64.7207 59.7816C64.7914 60.4909 65.0613 60.9884 65.5289 61.2709C65.9966 61.5549 66.5584 61.6961 67.2096 61.6961C67.4372 61.6961 67.6961 61.6789 67.9864 61.6428C68.2767 61.6082 68.5498 61.5408 68.8056 61.4403C69.0614 61.3415 69.2701 61.1955 69.4333 61.0041C69.5965 60.8126 69.6702 60.5615 69.6561 60.2492C69.642 59.937 69.529 59.6812 69.3156 59.4834C69.1022 59.2841 68.8291 59.1256 68.4964 59.0048C68.1622 58.884 67.784 58.782 67.3571 58.6957C66.9319 58.6109 66.4987 58.5183 66.0593 58.4195C65.6058 58.3206 65.1696 58.1998 64.7506 58.057C64.3316 57.9157 63.9565 57.7243 63.6222 57.4826C63.288 57.2409 63.0228 56.9334 62.8235 56.5567C62.6242 56.1817 62.5253 55.7156 62.5253 55.1632C62.5253 54.5669 62.6713 54.0679 62.9616 53.663C63.2519 53.2581 63.6207 52.9317 64.0679 52.6838C64.5152 52.4358 65.0111 52.2616 65.5572 52.1628C66.1033 52.0639 66.6243 52.0137 67.1217 52.0137C67.6898 52.0137 68.2312 52.0749 68.7506 52.1942C69.2685 52.315 69.7362 52.5096 70.1552 52.7795C70.5741 53.0494 70.921 53.4009 71.1987 53.8325C71.4749 54.2656 71.6491 54.7866 71.7197 55.397H69.1869C69.0739 54.8148 68.8071 54.4257 68.3881 54.2264C67.9691 54.0271 67.4905 53.9282 66.9523 53.9282C66.7812 53.9282 66.5803 53.9423 66.3449 53.9706C66.1111 53.9988 65.8914 54.0522 65.6858 54.1306C65.4803 54.2091 65.3061 54.3221 65.1648 54.4712C65.0236 54.6203 64.9514 54.8148 64.9514 55.0565C64.9514 55.3547 65.0534 55.5963 65.2606 55.7799C65.4661 55.9651 65.7361 56.1173 66.0687 56.2382C66.4014 56.359 66.7812 56.461 67.208 56.5473C67.6333 56.6321 68.0727 56.7247 68.5278 56.8235C68.9672 56.9224 69.4003 57.0432 69.8256 57.186C70.2509 57.3273 70.6306 57.5203 70.9649 57.7604C71.2976 58.002 71.5675 58.3065 71.7731 58.6753C71.9786 59.044 72.0822 59.4976 72.0822 60.0374C72.0822 60.6902 71.9331 61.2442 71.635 61.6977C71.3368 62.1512 70.9508 62.5216 70.4753 62.804C69.9998 63.0881 69.4709 63.2936 68.8903 63.4208C68.3081 63.5479 67.7338 63.6122 67.1657 63.6122C66.4705 63.6122 65.8287 63.5337 65.2402 63.3784C64.6517 63.223 64.1401 62.9845 63.707 62.6659C63.2739 62.3474 62.9333 61.9503 62.6854 61.4749C62.4374 60.9994 62.3056 60.436 62.2915 59.7832H64.7207V59.7816Z" fill="black"></path>
    <path d="M72.8308 52.3103H74.6605V49.0117H77.0866V52.3103H79.2789V54.1197H77.0866V59.9935C77.0866 60.2492 77.0976 60.4689 77.118 60.6526C77.14 60.8377 77.1887 60.9931 77.2671 61.1202C77.3456 61.2473 77.4617 61.343 77.6186 61.4074C77.774 61.4717 77.9874 61.5031 78.2573 61.5031C78.4284 61.5031 78.5979 61.5 78.7689 61.4921C78.9384 61.4858 79.1094 61.4607 79.2789 61.4168V63.2905C79.009 63.3188 78.7469 63.347 78.4911 63.3753C78.2354 63.4035 77.9733 63.4176 77.7034 63.4176C77.0647 63.4176 76.5499 63.3564 76.1608 63.2372C75.77 63.1163 75.4656 62.939 75.2459 62.7052C75.0262 62.4713 74.8771 62.1763 74.7986 61.8217C74.7202 61.467 74.6747 61.0621 74.6605 60.6086V54.1165H72.8308V52.3103Z" fill="black"></path>
    <path d="M90.2403 60.866C90.2403 61.1641 90.2796 61.376 90.358 61.5047C90.4365 61.6318 90.5887 61.6961 90.8162 61.6961C90.8869 61.6961 90.9716 61.6961 91.072 61.6961C91.1709 61.6961 91.2855 61.682 91.4126 61.6538V63.3344C91.3278 63.3627 91.218 63.3941 91.083 63.4302C90.9481 63.4663 90.81 63.4977 90.6687 63.5259C90.5259 63.5541 90.3847 63.5761 90.2435 63.5902C90.1007 63.6044 89.9814 63.6122 89.881 63.6122C89.3835 63.6122 88.9724 63.5133 88.6459 63.314C88.3195 63.1147 88.1061 62.7679 88.0072 62.2705C87.5255 62.7381 86.9323 63.0787 86.2308 63.2921C85.5278 63.5055 84.8514 63.6106 84.1986 63.6106C83.7011 63.6106 83.2272 63.5432 82.7721 63.4082C82.3186 63.2732 81.9169 63.0755 81.5701 62.8119C81.2217 62.5498 80.9455 62.2156 80.7399 61.8123C80.5343 61.4074 80.4308 60.9366 80.4308 60.3968C80.4308 59.7157 80.5547 59.1617 80.8027 58.7365C81.0506 58.3112 81.3771 57.9769 81.7819 57.7368C82.1868 57.4952 82.6403 57.3225 83.1441 57.2158C83.6478 57.1091 84.1547 57.0275 84.6662 56.971C85.1056 56.8863 85.5246 56.8251 85.9217 56.7906C86.3187 56.756 86.6702 56.6948 86.9747 56.6101C87.2791 56.5254 87.5208 56.3935 87.6981 56.2162C87.8754 56.0389 87.9649 55.7737 87.9649 55.4174C87.9649 55.1052 87.8911 54.8494 87.742 54.6516C87.593 54.4523 87.4078 54.3001 87.1881 54.1934C86.9684 54.0867 86.7236 54.0161 86.4537 53.98C86.1837 53.9439 85.9279 53.9266 85.6879 53.9266C85.0068 53.9266 84.4466 54.0679 84.0072 54.3519C83.5678 54.6359 83.3182 55.0753 83.2617 55.6717H80.8356C80.878 54.9624 81.0491 54.3739 81.3472 53.9047C81.6454 53.437 82.0252 53.0604 82.4865 52.7764C82.9479 52.4923 83.4689 52.2946 84.0511 52.18C84.6333 52.067 85.2281 52.009 85.8385 52.009C86.3768 52.009 86.9103 52.0655 87.4345 52.18C87.9586 52.293 88.4309 52.4782 88.8499 52.734C89.2689 52.9898 89.6063 53.3193 89.8606 53.7242C90.1164 54.1291 90.2435 54.6218 90.2435 55.204V60.866H90.2403ZM87.8142 57.8012C87.4454 58.0428 86.9919 58.1872 86.4521 58.2374C85.9123 58.2877 85.374 58.3614 84.8342 58.4603C84.5784 58.5026 84.3304 58.5638 84.0888 58.6407C83.8471 58.7192 83.6352 58.8259 83.4501 58.9593C83.2649 59.0943 83.1205 59.2716 83.0138 59.4913C82.9071 59.711 82.8537 59.9778 82.8537 60.2901C82.8537 60.56 82.9322 60.7875 83.0876 60.9711C83.2429 61.1563 83.4312 61.3007 83.6509 61.4074C83.8706 61.5141 84.1123 61.5878 84.3744 61.6302C84.6364 61.6726 84.875 61.6946 85.0868 61.6946C85.3567 61.6946 85.6471 61.66 85.9593 61.5878C86.2716 61.5172 86.5667 61.3964 86.8428 61.2253C87.119 61.0543 87.3497 60.8393 87.5349 60.5757C87.7185 60.3136 87.8111 59.9903 87.8111 59.6074V57.8012H87.8142Z" fill="black"></path>
    <path d="M91.7515 52.3103H93.5813V49.0117H96.0074V52.3103H98.1997V54.1197H96.0074V59.9935C96.0074 60.2492 96.0184 60.4689 96.0388 60.6526C96.0608 60.8377 96.1094 60.9931 96.1879 61.1202C96.2663 61.2473 96.3825 61.343 96.5394 61.4074C96.6948 61.4717 96.9082 61.5031 97.1781 61.5031C97.3492 61.5031 97.5186 61.5 97.6897 61.4921C97.8592 61.4858 98.0302 61.4607 98.1997 61.4168V63.2905C97.9298 63.3188 97.6677 63.347 97.4119 63.3753C97.1561 63.4035 96.8941 63.4176 96.6241 63.4176C95.9854 63.4176 95.4707 63.3564 95.0816 63.2372C94.6908 63.1163 94.3864 62.939 94.1667 62.7052C93.947 62.4713 93.7979 62.1763 93.7194 61.8217C93.6409 61.467 93.5954 61.0621 93.5813 60.6086V54.1165H91.7515V52.3103Z" fill="black"></path>
    <path d="M101.839 58.4399C101.839 58.8651 101.898 59.2779 102.019 59.6749C102.14 60.0719 102.321 60.4203 102.562 60.7185C102.804 61.0166 103.108 61.2536 103.477 61.4309C103.846 61.6082 104.285 61.6961 104.797 61.6961C105.506 61.6961 106.077 61.5439 106.511 61.2379C106.944 60.9335 107.265 60.4752 107.479 59.8648H109.778C109.651 60.4611 109.429 60.9931 109.119 61.4607C108.806 61.9284 108.43 62.3223 107.99 62.6424C107.551 62.961 107.057 63.2026 106.511 63.3658C105.964 63.529 105.393 63.6106 104.797 63.6106C103.931 63.6106 103.165 63.4694 102.498 63.1854C101.831 62.9013 101.268 62.5043 100.806 61.9927C100.345 61.4827 99.9981 60.8723 99.7627 60.1629C99.5289 59.4536 99.4112 58.6737 99.4112 57.8216C99.4112 57.0416 99.5351 56.2994 99.7831 55.5979C100.031 54.8949 100.386 54.2781 100.847 53.7462C101.308 53.2142 101.866 52.792 102.518 52.4798C103.171 52.1675 103.909 52.0121 104.733 52.0121C105.597 52.0121 106.374 52.1926 107.063 52.5551C107.752 52.9176 108.322 53.3962 108.777 53.991C109.23 54.5873 109.561 55.2715 109.767 56.0452C109.972 56.8188 110.026 57.6176 109.927 58.4399H101.839ZM107.501 56.8439C107.473 56.461 107.391 56.0922 107.256 55.7376C107.121 55.3829 106.937 55.0738 106.702 54.8117C106.468 54.5496 106.184 54.3362 105.851 54.173C105.517 54.0098 105.145 53.9282 104.734 53.9282C104.309 53.9282 103.921 54.002 103.574 54.151C103.226 54.3001 102.93 54.5057 102.68 54.7678C102.432 55.0298 102.233 55.339 102.084 55.6936C101.935 56.0483 101.853 56.4312 101.839 56.8424H107.501V56.8439Z" fill="black"></path>
    <path d="M14.4333 67.9324H15.1379L15.899 70.1074H15.9099L16.6475 67.9324H17.3176L16.1846 71.0035C16.1312 71.1353 16.081 71.2609 16.0292 71.3817C15.979 71.5025 15.9162 71.6077 15.844 71.7003C15.7703 71.7929 15.6793 71.865 15.571 71.92C15.4627 71.9749 15.323 72.0016 15.1536 72.0016C15.0029 72.0016 14.8554 71.9906 14.7079 71.967V71.4256C14.7612 71.4335 14.8115 71.4413 14.8601 71.4508C14.9087 71.4602 14.959 71.4649 15.0123 71.4649C15.0876 71.4649 15.1488 71.4555 15.1975 71.4366C15.2461 71.4178 15.2869 71.3911 15.3183 71.355C15.3497 71.3189 15.378 71.2766 15.3999 71.2279C15.4219 71.1793 15.4423 71.1228 15.4611 71.0584L15.5349 70.8325L14.4333 67.9324Z" fill="black"></path>
    <path d="M20.1407 70.9235C19.9085 70.9235 19.6998 70.8842 19.5177 70.8073C19.3357 70.7305 19.1819 70.6237 19.0563 70.4888C18.9308 70.3538 18.8351 70.1922 18.7692 70.0039C18.7033 69.8156 18.6703 69.61 18.6703 69.384C18.6703 69.1627 18.7033 68.9572 18.7692 68.7704C18.8351 68.5821 18.9308 68.4205 19.0563 68.2855C19.1819 68.1506 19.3357 68.0438 19.5177 67.9669C19.6998 67.8901 19.9069 67.8508 20.1407 67.8508C20.373 67.8508 20.5817 67.8901 20.7637 67.9669C20.9458 68.0438 21.0995 68.1506 21.2251 68.2855C21.3506 68.4205 21.4464 68.5821 21.5123 68.7704C21.5782 68.9587 21.6111 69.1627 21.6111 69.384C21.6111 69.61 21.5782 69.8156 21.5123 70.0039C21.4464 70.1922 21.3506 70.3538 21.2251 70.4888C21.0995 70.6237 20.9458 70.7305 20.7637 70.8073C20.5801 70.8858 20.373 70.9235 20.1407 70.9235ZM20.1407 70.4166C20.2835 70.4166 20.4075 70.3868 20.5126 70.3271C20.6178 70.2675 20.7041 70.1891 20.7716 70.0902C20.839 69.9929 20.8893 69.883 20.9206 69.7606C20.952 69.6382 20.9693 69.5143 20.9693 69.3856C20.9693 69.2616 20.9536 69.1376 20.9206 69.0137C20.8893 68.8897 20.839 68.7798 20.7716 68.6841C20.7041 68.5884 20.6178 68.5099 20.5126 68.4503C20.4075 68.3907 20.2835 68.3608 20.1407 68.3608C19.9979 68.3608 19.8739 68.3907 19.7688 68.4503C19.6637 68.5099 19.5773 68.5884 19.5099 68.6841C19.4424 68.7798 19.3922 68.8897 19.3608 69.0137C19.3294 69.1376 19.3121 69.2616 19.3121 69.3856C19.3121 69.5127 19.3278 69.6382 19.3608 69.7606C19.3922 69.883 19.4424 69.9929 19.5099 70.0902C19.5773 70.1875 19.6637 70.2659 19.7688 70.3271C19.8739 70.3868 19.9979 70.4166 20.1407 70.4166Z" fill="black"></path>
    <path d="M25.8309 70.845H25.2001V70.4386H25.1891C25.1106 70.5845 24.9929 70.7022 24.8376 70.7901C24.6822 70.878 24.5221 70.9219 24.3621 70.9219C23.9792 70.9219 23.7014 70.8277 23.5304 70.6379C23.3593 70.448 23.2746 70.1624 23.2746 69.7779V67.9293H23.9164V69.7151C23.9164 69.9709 23.965 70.1514 24.0623 70.2565C24.1596 70.3617 24.2977 70.415 24.4735 70.415C24.6084 70.415 24.7214 70.3946 24.8109 70.3538C24.9003 70.313 24.9741 70.2565 25.0306 70.1875C25.0871 70.1184 25.1279 70.0353 25.1514 69.9364C25.1765 69.8391 25.1875 69.734 25.1875 69.621V67.9309H25.8293V70.845H25.8309Z" fill="black"></path>
    <path d="M28.2351 67.9324V68.4958H28.246C28.2649 68.4173 28.301 68.3404 28.3559 68.2651C28.4108 68.1898 28.4767 68.1207 28.5536 68.0595C28.6305 67.9968 28.7152 67.9481 28.8094 67.9105C28.9036 67.8728 28.9993 67.854 29.0966 67.854C29.1719 67.854 29.2237 67.8555 29.2519 67.8602C29.2802 67.8634 29.3084 67.8681 29.3398 67.8712V68.4911C29.2943 68.4832 29.2488 68.477 29.2017 68.4707C29.1546 68.4644 29.1091 68.4628 29.0636 68.4628C28.9553 68.4628 28.8518 68.4848 28.7561 68.5272C28.6603 68.5711 28.5772 68.6339 28.505 68.7186C28.4343 68.8034 28.3779 68.907 28.3355 69.0309C28.2947 69.1549 28.2727 69.2977 28.2727 69.4593V70.845H27.6309V67.9324H28.2351Z" fill="black"></path>
    <path d="M33.1422 67.9324H33.6271V67.0599H34.2689V67.9324H34.8496V68.4111H34.2689V69.9662C34.2689 70.0337 34.2721 70.0918 34.2768 70.1404C34.283 70.189 34.2956 70.2299 34.316 70.2644C34.3364 70.2989 34.3678 70.324 34.4086 70.3413C34.4494 70.3585 34.5059 70.3664 34.5781 70.3664C34.6236 70.3664 34.6675 70.3648 34.713 70.3632C34.7585 70.3617 34.8025 70.3554 34.848 70.3428V70.8387C34.7774 70.8466 34.7067 70.8544 34.6393 70.8607C34.5718 70.8685 34.5027 70.8717 34.4306 70.8717C34.2611 70.8717 34.1261 70.856 34.0225 70.8246C33.919 70.7932 33.8389 70.7461 33.7809 70.6834C33.7228 70.6222 33.6836 70.5437 33.6632 70.4495C33.6428 70.3554 33.6302 70.2487 33.6271 70.1278V68.4095H33.1422V67.9324Z" fill="black"></path>
    <path d="M38.8779 70.1969C38.8779 70.2754 38.8889 70.3319 38.9093 70.3664C38.9297 70.4009 38.9705 70.4166 39.0301 70.4166C39.0489 70.4166 39.0709 70.4166 39.0976 70.4166C39.1243 70.4166 39.1541 70.4135 39.187 70.4056V70.8513C39.1651 70.8591 39.1353 70.867 39.0992 70.8764C39.0631 70.8858 39.027 70.8937 38.9893 70.9015C38.9516 70.9093 38.914 70.9141 38.8763 70.9188C38.8387 70.9219 38.8073 70.925 38.7806 70.925C38.6488 70.925 38.5405 70.8984 38.4542 70.8466C38.3679 70.7948 38.3114 70.7022 38.2847 70.5704C38.1576 70.6944 38.0007 70.7838 37.8139 70.8403C37.6287 70.8968 37.4483 70.925 37.2757 70.925C37.1438 70.925 37.0183 70.9078 36.8975 70.8717C36.7766 70.8356 36.6715 70.7838 36.5789 70.7132C36.4863 70.6441 36.4141 70.5547 36.3592 70.448C36.3043 70.3413 36.2776 70.2157 36.2776 70.0729C36.2776 69.8925 36.3106 69.7465 36.3765 69.6335C36.4424 69.5205 36.5287 69.4327 36.6354 69.3683C36.7421 69.304 36.8629 69.2585 36.9963 69.2302C37.1297 69.202 37.2647 69.18 37.3996 69.1659C37.5158 69.1439 37.6272 69.1267 37.7323 69.1188C37.8375 69.1094 37.93 69.0937 38.0116 69.0702C38.0917 69.0482 38.156 69.0137 38.2031 68.9666C38.2502 68.9195 38.2737 68.8489 38.2737 68.7547C38.2737 68.6716 38.2533 68.6041 38.2141 68.5523C38.1749 68.5005 38.1262 68.4597 38.0681 68.4315C38.0101 68.4032 37.9457 68.3844 37.8736 68.375C37.8014 68.3655 37.7339 68.3608 37.6711 68.3608C37.4906 68.3608 37.3431 68.3985 37.2254 68.4738C37.1093 68.5492 37.0434 68.6653 37.0277 68.8238H36.3859C36.3969 68.6355 36.4424 68.4801 36.5208 68.3561C36.5993 68.2322 36.6997 68.1333 36.8221 68.058C36.9445 67.9827 37.0826 67.9309 37.2364 67.8995C37.3902 67.8697 37.5487 67.854 37.7088 67.854C37.8516 67.854 37.9928 67.8697 38.1309 67.8995C38.2706 67.9293 38.3946 67.9779 38.506 68.0454C38.6174 68.1129 38.7068 68.2008 38.7743 68.3075C38.8418 68.4142 38.8763 68.5444 38.8763 68.6998V70.1969H38.8779ZM38.2361 69.3856C38.1388 69.4499 38.0179 69.4876 37.8751 69.5017C37.7323 69.5143 37.5895 69.5347 37.4467 69.5613C37.3792 69.5723 37.3133 69.588 37.249 69.61C37.1846 69.6304 37.1297 69.6586 37.0795 69.6947C37.0308 69.7308 36.9916 69.7779 36.9634 69.836C36.9351 69.894 36.921 69.9646 36.921 70.0478C36.921 70.12 36.9414 70.1796 36.9822 70.2283C37.023 70.2769 37.0732 70.3162 37.1313 70.3444C37.1893 70.3727 37.2537 70.3915 37.3227 70.404C37.3918 70.415 37.4546 70.4213 37.511 70.4213C37.5817 70.4213 37.6586 70.4119 37.7417 70.3931C37.8249 70.3742 37.9018 70.3428 37.9756 70.2973C38.0493 70.2518 38.1105 70.1953 38.1592 70.1263C38.2078 70.0572 38.2329 69.9709 38.2329 69.8705V69.3856H38.2361Z" fill="black"></path>
    <path d="M43.3911 70.6928C43.3911 71.1322 43.2672 71.4602 43.0224 71.6752C42.776 71.8917 42.4229 71.9984 41.9599 71.9984C41.814 71.9984 41.6665 71.9827 41.5174 71.9529C41.3683 71.9231 41.2334 71.8729 41.111 71.8007C40.9886 71.7285 40.8866 71.6359 40.8034 71.5182C40.7202 71.4021 40.6716 71.2593 40.6574 71.0898H41.2993C41.3181 71.1793 41.3495 71.253 41.395 71.3095C41.4405 71.366 41.4939 71.41 41.5551 71.4413C41.6163 71.4727 41.6853 71.4931 41.7606 71.5041C41.836 71.5135 41.9144 71.5182 41.9976 71.5182C42.2565 71.5182 42.4464 71.4539 42.5673 71.3268C42.6881 71.1997 42.7477 71.0145 42.7477 70.7744V70.3287H42.7367C42.6473 70.4903 42.5233 70.6159 42.368 70.7069C42.2126 70.7964 42.0447 70.8419 41.8642 70.8419C41.632 70.8419 41.4327 70.8011 41.2695 70.721C41.1063 70.641 40.9713 70.5296 40.863 70.3884C40.7563 70.2471 40.6778 70.0855 40.6292 69.9003C40.5806 69.7167 40.5554 69.519 40.5554 69.3087C40.5554 69.1141 40.5853 68.9274 40.6449 68.7516C40.7045 68.5758 40.7908 68.4205 40.9038 68.2871C41.0168 68.1537 41.1549 68.047 41.3181 67.9685C41.4813 67.8901 41.6665 67.8508 41.8736 67.8508C42.0572 67.8508 42.2267 67.8901 42.3805 67.9669C42.5343 68.0438 42.652 68.1647 42.7352 68.331H42.7462V67.9309H43.388V70.6928H43.3911ZM41.9662 70.3381C42.109 70.3381 42.2299 70.3099 42.3303 70.2503C42.4292 70.1922 42.5108 70.1153 42.572 70.0196C42.6332 69.9238 42.6787 69.8156 42.7069 69.6932C42.7352 69.5708 42.7493 69.4484 42.7493 69.3244C42.7493 69.2004 42.7336 69.0796 42.7038 68.9634C42.674 68.8473 42.6285 68.7438 42.5657 68.6527C42.5045 68.5633 42.4229 68.4911 42.324 68.4393C42.2252 68.3875 42.1059 68.3608 41.9662 68.3608C41.8234 68.3608 41.7026 68.3907 41.6053 68.4503C41.508 68.5099 41.428 68.5884 41.3683 68.6841C41.3087 68.7798 41.2648 68.8881 41.2381 69.0105C41.2114 69.1329 41.1988 69.2538 41.1988 69.3746C41.1988 69.4954 41.2145 69.6116 41.2444 69.7261C41.2742 69.8407 41.3197 69.9427 41.3825 70.0337C41.4437 70.1231 41.5237 70.1969 41.6194 70.2534C41.7151 70.3099 41.8297 70.3381 41.9662 70.3381Z" fill="black"></path>
    <path d="M45.1832 66.823H45.8251V70.845H45.1832V66.823Z" fill="black"></path>
    <path d="M47.6674 66.823H48.3092V67.4318H47.6674V66.823ZM47.6674 67.9324H48.3092V70.845H47.6674V67.9324Z" fill="black"></path>
    <path d="M50.1343 67.9324H50.7432V68.3608L50.7542 68.3718C50.8515 68.2102 50.9802 68.0831 51.1371 67.9921C51.2956 67.8995 51.4698 67.854 51.6612 67.854C51.9798 67.854 52.2324 67.9371 52.416 68.1019C52.5996 68.2667 52.6922 68.5146 52.6922 68.8457V70.845H52.0504V69.0137C52.0426 68.7845 51.9939 68.6182 51.9045 68.5146C51.815 68.4111 51.6738 68.3593 51.4823 68.3593C51.374 68.3593 51.2752 68.3797 51.1889 68.4189C51.1026 68.4581 51.0288 68.5131 50.9692 68.5821C50.9095 68.6512 50.8625 68.7328 50.8279 68.8269C50.7934 68.9211 50.7777 69.0199 50.7777 69.1251V70.8434H50.1359V67.9324H50.1343Z" fill="black"></path>
    <path d="M54.9959 69.5551C54.9959 69.6681 55.0116 69.7763 55.0446 69.8815C55.076 69.9866 55.1246 70.0792 55.1874 70.1577C55.2517 70.2361 55.3318 70.2989 55.429 70.346C55.5263 70.3931 55.6425 70.4166 55.779 70.4166C55.9673 70.4166 56.118 70.3758 56.2325 70.2958C56.3471 70.2157 56.4318 70.0933 56.4883 69.9317H57.0972C57.0642 70.0902 57.0046 70.2299 56.923 70.3538C56.8398 70.4778 56.741 70.5814 56.6248 70.6661C56.5087 70.7509 56.3785 70.8152 56.2325 70.8576C56.0881 70.9015 55.9375 70.9219 55.779 70.9219C55.5499 70.9219 55.3475 70.8842 55.1701 70.8089C54.9928 70.7336 54.8437 70.6284 54.7229 70.4935C54.6005 70.3585 54.5095 70.1969 54.4467 70.0086C54.3839 69.8203 54.3541 69.6147 54.3541 69.3887C54.3541 69.1816 54.3871 68.9854 54.453 68.8002C54.5189 68.6151 54.613 68.4503 54.7354 68.3106C54.8578 68.1694 55.0053 68.058 55.178 67.9748C55.3506 67.8916 55.5467 67.8508 55.7633 67.8508C55.9924 67.8508 56.198 67.8979 56.38 67.9952C56.5621 68.0909 56.7127 68.218 56.8336 68.375C56.9544 68.5335 57.0407 68.7139 57.0956 68.9179C57.1505 69.1219 57.1647 69.3338 57.138 69.5519H54.9959V69.5551ZM56.4946 69.1329C56.4867 69.0309 56.4648 68.9336 56.4302 68.8395C56.3942 68.7453 56.3455 68.6637 56.2843 68.5947C56.2215 68.5256 56.1478 68.4691 56.0583 68.4252C55.9705 68.3828 55.8716 68.3608 55.7633 68.3608C55.6503 68.3608 55.5483 68.3812 55.4557 68.4205C55.3631 68.4597 55.2847 68.5146 55.2188 68.5837C55.1529 68.6527 55.1011 68.7343 55.0603 68.8285C55.021 68.9226 54.9991 69.0247 54.9959 69.1329H56.4946Z" fill="black"></path>
    <path d="M64.1401 70.6928C64.1401 71.1322 64.0161 71.4602 63.7713 71.6752C63.525 71.8917 63.1719 71.9984 62.7089 71.9984C62.563 71.9984 62.4155 71.9827 62.2664 71.9529C62.1173 71.9231 61.9824 71.8729 61.86 71.8007C61.7375 71.7285 61.6355 71.6359 61.5524 71.5182C61.4692 71.4021 61.4206 71.2593 61.4064 71.0898H62.0483C62.0671 71.1793 62.0985 71.253 62.144 71.3095C62.1895 71.366 62.2428 71.41 62.3041 71.4413C62.3653 71.4727 62.4343 71.4931 62.5096 71.5041C62.5849 71.5135 62.6634 71.5182 62.7466 71.5182C63.0055 71.5182 63.1954 71.4539 63.3162 71.3268C63.4371 71.1997 63.4967 71.0145 63.4967 70.7744V70.3287H63.4857C63.3963 70.4903 63.2723 70.6159 63.1169 70.7069C62.9616 70.7964 62.7937 70.8419 62.6132 70.8419C62.381 70.8419 62.1816 70.8011 62.0184 70.721C61.8552 70.641 61.7203 70.5296 61.612 70.3884C61.5053 70.2471 61.4268 70.0855 61.3782 69.9003C61.3295 69.7167 61.3044 69.519 61.3044 69.3087C61.3044 69.1141 61.3342 68.9274 61.3939 68.7516C61.4535 68.5758 61.5398 68.4205 61.6528 68.2871C61.7658 68.1537 61.9039 68.047 62.0671 67.9685C62.2303 67.8901 62.4155 67.8508 62.6226 67.8508C62.8062 67.8508 62.9757 67.8901 63.1295 67.9669C63.2833 68.0438 63.401 68.1647 63.4841 68.331H63.4951V67.9309H64.137V70.6928H64.1401ZM62.7152 70.3381C62.858 70.3381 62.9788 70.3099 63.0793 70.2503C63.1781 70.1922 63.2597 70.1153 63.3209 70.0196C63.3837 69.9238 63.4277 69.8156 63.4559 69.6932C63.4841 69.5708 63.4983 69.4484 63.4983 69.3244C63.4983 69.2004 63.4826 69.0796 63.4528 68.9634C63.4229 68.8473 63.3774 68.7438 63.3147 68.6527C63.2535 68.5633 63.1719 68.4911 63.073 68.4393C62.9741 68.3875 62.8549 68.3608 62.7152 68.3608C62.5724 68.3608 62.4516 68.3907 62.3543 68.4503C62.257 68.5099 62.1769 68.5884 62.1173 68.6841C62.0577 68.7798 62.0137 68.8881 61.9871 69.0105C61.9604 69.1329 61.9478 69.2538 61.9478 69.3746C61.9478 69.4954 61.9635 69.6116 61.9933 69.7261C62.0232 69.8407 62.0687 69.9427 62.1314 70.0337C62.1942 70.1231 62.2727 70.1969 62.3684 70.2534C62.4641 70.3099 62.5802 70.3381 62.7152 70.3381Z" fill="black"></path>
    <path d="M67.2504 70.9235C67.0182 70.9235 66.8095 70.8842 66.6274 70.8073C66.4454 70.7305 66.2916 70.6237 66.166 70.4888C66.0405 70.3538 65.9448 70.1922 65.8789 70.0039C65.813 69.8156 65.78 69.61 65.78 69.384C65.78 69.1627 65.813 68.9572 65.8789 68.7704C65.9448 68.5821 66.0405 68.4205 66.166 68.2855C66.2916 68.1506 66.4454 68.0438 66.6274 67.9669C66.8095 67.8901 67.0166 67.8508 67.2504 67.8508C67.4827 67.8508 67.6914 67.8901 67.8734 67.9669C68.0555 68.0438 68.2093 68.1506 68.3348 68.2855C68.4603 68.4205 68.5561 68.5821 68.622 68.7704C68.6879 68.9587 68.7208 69.1627 68.7208 69.384C68.7208 69.61 68.6879 69.8156 68.622 70.0039C68.5561 70.1922 68.4603 70.3538 68.3348 70.4888C68.2093 70.6237 68.0555 70.7305 67.8734 70.8073C67.6898 70.8858 67.4827 70.9235 67.2504 70.9235ZM67.2504 70.4166C67.3932 70.4166 67.5172 70.3868 67.6223 70.3271C67.7275 70.2675 67.8138 70.1891 67.8813 70.0902C67.9487 69.9929 67.999 69.883 68.0303 69.7606C68.0617 69.6382 68.079 69.5143 68.079 69.3856C68.079 69.2616 68.0633 69.1376 68.0303 69.0137C67.999 68.8897 67.9487 68.7798 67.8813 68.6841C67.8138 68.5884 67.7275 68.5099 67.6223 68.4503C67.5172 68.3907 67.3932 68.3608 67.2504 68.3608C67.1076 68.3608 66.9836 68.3907 66.8785 68.4503C66.7734 68.5099 66.687 68.5884 66.6196 68.6841C66.5521 68.7798 66.5019 68.8897 66.4705 69.0137C66.4391 69.1376 66.4234 69.2616 66.4234 69.3856C66.4234 69.5127 66.4391 69.6382 66.4705 69.7606C66.5019 69.883 66.5521 69.9929 66.6196 70.0902C66.687 70.1875 66.7734 70.2659 66.8785 70.3271C66.9836 70.3868 67.1076 70.4166 67.2504 70.4166Z" fill="black"></path>
    <path d="M70.8833 69.5551C70.8833 69.6681 70.899 69.7763 70.9319 69.8815C70.9633 69.9866 71.012 70.0792 71.0747 70.1577C71.1391 70.2361 71.2191 70.2989 71.3164 70.346C71.4137 70.3931 71.5298 70.4166 71.6664 70.4166C71.8547 70.4166 72.0053 70.3758 72.1199 70.2958C72.2344 70.2157 72.3192 70.0933 72.3757 69.9317H72.9846C72.95 70.0902 72.892 70.2299 72.8104 70.3538C72.7272 70.4778 72.6283 70.5814 72.5122 70.6661C72.3961 70.7509 72.2658 70.8152 72.1199 70.8576C71.9755 70.9015 71.8249 70.9219 71.6664 70.9219C71.4372 70.9219 71.2348 70.8842 71.0575 70.8089C70.8802 70.7336 70.7311 70.6284 70.6102 70.4935C70.4878 70.3585 70.3968 70.1969 70.334 70.0086C70.2728 69.8203 70.2415 69.6147 70.2415 69.3887C70.2415 69.1816 70.2744 68.9854 70.3403 68.8002C70.4062 68.6151 70.5004 68.4503 70.6228 68.3106C70.7452 68.1694 70.8927 68.058 71.0653 67.9748C71.2379 67.8916 71.4325 67.8508 71.6507 67.8508C71.8798 67.8508 72.0854 67.8979 72.2674 67.9952C72.4494 68.0909 72.6001 68.218 72.7209 68.375C72.8418 68.5335 72.9281 68.7139 72.983 68.9179C73.0379 69.1219 73.052 69.3338 73.0254 69.5519H70.8833V69.5551ZM72.382 69.1329C72.3741 69.0309 72.3521 68.9336 72.3176 68.8395C72.2815 68.7453 72.2329 68.6637 72.1717 68.5947C72.1105 68.5256 72.0351 68.4691 71.9457 68.4252C71.8578 68.3828 71.759 68.3608 71.6507 68.3608C71.5377 68.3608 71.4357 68.3812 71.3431 68.4205C71.2505 68.4597 71.172 68.5146 71.1061 68.5837C71.0402 68.6527 70.9884 68.7343 70.9476 68.8285C70.9084 68.9226 70.8864 69.0247 70.8833 69.1329H72.382Z" fill="black"></path>
    <path d="M75.1266 69.9097C75.1454 70.098 75.2176 70.2283 75.34 70.3036C75.464 70.3789 75.6131 70.4166 75.7857 70.4166C75.8453 70.4166 75.9144 70.4119 75.9913 70.4025C76.0682 70.3931 76.1404 70.3758 76.2078 70.3491C76.2753 70.3224 76.3303 70.2848 76.3742 70.233C76.4181 70.1828 76.437 70.1153 76.4338 70.0337C76.4307 69.9505 76.3993 69.883 76.3444 69.8313C76.2879 69.7795 76.2157 69.7371 76.1278 69.7041C76.0399 69.6728 75.9395 69.6445 75.8265 69.6225C75.7135 69.6006 75.599 69.5755 75.4828 69.5488C75.362 69.5221 75.2475 69.4907 75.136 69.4531C75.0246 69.4154 74.9258 69.3652 74.8379 69.3008C74.75 69.2365 74.6794 69.1549 74.626 69.056C74.5727 68.9572 74.5476 68.8332 74.5476 68.6873C74.5476 68.5288 74.5868 68.3969 74.6637 68.2902C74.7406 68.1835 74.8379 68.0972 74.9571 68.0313C75.0748 67.9654 75.2066 67.9199 75.351 67.8932C75.4954 67.8665 75.6335 67.854 75.7653 67.854C75.916 67.854 76.0588 67.8697 76.1969 67.901C76.3334 67.9324 76.4574 67.9842 76.5688 68.0564C76.6802 68.1286 76.7712 68.2212 76.845 68.3357C76.9187 68.4503 76.9642 68.5884 76.9831 68.75H76.313C76.2832 68.5962 76.2126 68.4927 76.1011 68.4393C75.9897 68.3875 75.8642 68.3608 75.7214 68.3608C75.6759 68.3608 75.6225 68.364 75.5613 68.3718C75.4985 68.3797 75.4405 68.3938 75.3871 68.4142C75.3322 68.4346 75.2867 68.4644 75.249 68.5036C75.2114 68.5429 75.1925 68.5947 75.1925 68.659C75.1925 68.7375 75.2192 68.8018 75.2741 68.8505C75.3291 68.8991 75.3997 68.9399 75.4876 68.9713C75.5754 69.0027 75.6759 69.0309 75.7889 69.0529C75.9018 69.0749 76.018 69.1 76.1388 69.1266C76.2549 69.1533 76.3695 69.1847 76.4825 69.2224C76.5955 69.26 76.6959 69.3103 76.7838 69.3746C76.8717 69.4389 76.9438 69.519 76.9972 69.6163C77.0521 69.7136 77.0788 69.8344 77.0788 69.9772C77.0788 70.1498 77.0396 70.2958 76.9611 70.4166C76.8826 70.5374 76.7806 70.6347 76.6535 70.7101C76.528 70.7854 76.3883 70.8403 76.2345 70.8733C76.0807 70.9078 75.9285 70.9235 75.7779 70.9235C75.5943 70.9235 75.4232 70.9031 75.2679 70.8623C75.1125 70.8215 74.9775 70.7587 74.863 70.674C74.7484 70.5892 74.6574 70.4841 74.5931 70.3585C74.5272 70.233 74.4926 70.0839 74.4895 69.9113H75.1266V69.9097Z" fill="black"></path>
    <path d="M81.3849 66.823H82.0267V68.3153H82.0377C82.1162 68.1835 82.2339 68.0737 82.3892 67.9858C82.5446 67.8979 82.7188 67.854 82.9102 67.854C83.2288 67.854 83.4815 67.9371 83.6651 68.1019C83.8487 68.2667 83.9412 68.5146 83.9412 68.8457V70.845H83.2994V69.0137C83.2916 68.7845 83.2429 68.6182 83.1535 68.5146C83.064 68.4111 82.9228 68.3593 82.7313 68.3593C82.6231 68.3593 82.5242 68.3797 82.4379 68.4189C82.3516 68.4581 82.2778 68.5131 82.2182 68.5821C82.1585 68.6512 82.1115 68.7328 82.0769 68.8269C82.0424 68.9211 82.0267 69.0199 82.0267 69.1251V70.8434H81.3849V66.823Z" fill="black"></path>
    <path d="M86.2481 69.5551C86.2481 69.6681 86.2638 69.7763 86.2967 69.8815C86.3281 69.9866 86.3768 70.0792 86.4395 70.1577C86.5039 70.2361 86.5839 70.2989 86.6812 70.346C86.7785 70.3931 86.8946 70.4166 87.0312 70.4166C87.2195 70.4166 87.3701 70.3758 87.4847 70.2958C87.5992 70.2157 87.684 70.0933 87.7405 69.9317H88.3493C88.3148 70.0902 88.2568 70.2299 88.1752 70.3538C88.092 70.4778 87.9931 70.5814 87.877 70.6661C87.7609 70.7509 87.6306 70.8152 87.4847 70.8576C87.3403 70.9015 87.1896 70.9219 87.0312 70.9219C86.802 70.9219 86.5996 70.8842 86.4223 70.8089C86.2449 70.7336 86.0959 70.6284 85.975 70.4935C85.8526 70.3585 85.7616 70.1969 85.6988 70.0086C85.6361 69.8203 85.6063 69.6147 85.6063 69.3887C85.6063 69.1816 85.6392 68.9854 85.7051 68.8002C85.771 68.6151 85.8652 68.4503 85.9876 68.3106C86.11 68.1694 86.2575 68.058 86.4301 67.9748C86.6027 67.8916 86.7973 67.8508 87.0155 67.8508C87.2446 67.8508 87.4501 67.8979 87.6322 67.9952C87.8142 68.0909 87.9649 68.218 88.0857 68.375C88.2065 68.5335 88.2929 68.7139 88.3478 68.9179C88.4027 69.1219 88.4168 69.3338 88.3902 69.5519H86.2481V69.5551ZM87.7467 69.1329C87.7389 69.0309 87.7169 68.9336 87.6824 68.8395C87.6463 68.7453 87.5977 68.6637 87.5365 68.5947C87.4737 68.5256 87.3999 68.4691 87.3105 68.4252C87.2226 68.3828 87.1237 68.3608 87.0155 68.3608C86.9025 68.3608 86.8005 68.3812 86.7079 68.4205C86.6153 68.4597 86.5368 68.5146 86.4709 68.5837C86.405 68.6527 86.3532 68.7343 86.3124 68.8285C86.2732 68.9226 86.2512 69.0247 86.2481 69.1329H87.7467Z" fill="black"></path>
    <path d="M90.6075 67.9324V68.4958H90.6185C90.6374 68.4173 90.6734 68.3404 90.7284 68.2651C90.7833 68.1898 90.8492 68.1207 90.9261 68.0595C91.003 67.9968 91.0893 67.9481 91.1819 67.9105C91.276 67.8728 91.3718 67.854 91.4691 67.854C91.5444 67.854 91.5962 67.8555 91.6244 67.8602C91.6527 67.8634 91.6809 67.8681 91.7123 67.8712V68.4911C91.6668 68.4832 91.6213 68.477 91.5742 68.4707C91.5271 68.4644 91.4816 68.4628 91.4361 68.4628C91.3278 68.4628 91.2243 68.4848 91.1285 68.5272C91.0328 68.5711 90.9496 68.6339 90.8774 68.7186C90.8068 68.8034 90.7503 68.907 90.708 69.0309C90.6672 69.1549 90.6452 69.2977 90.6452 69.4593V70.845H90.0034V67.9324H90.6075Z" fill="black"></path>
    <path d="M93.5154 69.5551C93.5154 69.6681 93.5311 69.7763 93.564 69.8815C93.5954 69.9866 93.6441 70.0792 93.7069 70.1577C93.7712 70.2361 93.8512 70.2989 93.9485 70.346C94.0458 70.3931 94.1619 70.4166 94.2985 70.4166C94.4868 70.4166 94.6374 70.3758 94.752 70.2958C94.8666 70.2157 94.9513 70.0933 95.0078 69.9317H95.6167C95.5821 70.0902 95.5241 70.2299 95.4425 70.3538C95.3593 70.4778 95.2604 70.5814 95.1443 70.6661C95.0282 70.7509 94.8979 70.8152 94.752 70.8576C94.6076 70.9015 94.457 70.9219 94.2985 70.9219C94.0694 70.9219 93.8669 70.8842 93.6896 70.8089C93.5123 70.7336 93.3632 70.6284 93.2423 70.4935C93.1199 70.3585 93.0289 70.1969 92.9662 70.0086C92.905 69.8203 92.8736 69.6147 92.8736 69.3887C92.8736 69.1816 92.9065 68.9854 92.9724 68.8002C93.0384 68.6151 93.1325 68.4503 93.2549 68.3106C93.3773 68.1694 93.5248 68.058 93.6974 67.9748C93.8701 67.8916 94.0647 67.8508 94.2828 67.8508C94.5119 67.8508 94.7175 67.8979 94.8995 67.9952C95.0815 68.0909 95.2322 68.218 95.353 68.375C95.4739 68.5335 95.5602 68.7139 95.6151 68.9179C95.67 69.1219 95.6842 69.3338 95.6575 69.5519H93.5154V69.5551ZM95.0141 69.1329C95.0062 69.0309 94.9843 68.9336 94.9497 68.8395C94.9136 68.7453 94.865 68.6637 94.8038 68.5947C94.7426 68.5256 94.6673 68.4691 94.5778 68.4252C94.4899 68.3828 94.3911 68.3608 94.2828 68.3608C94.1698 68.3608 94.0678 68.3812 93.9752 68.4205C93.8826 68.4597 93.8042 68.5146 93.7383 68.5837C93.6723 68.6527 93.6206 68.7343 93.5798 68.8285C93.5405 68.9226 93.5185 69.0247 93.5154 69.1329H95.0141Z" fill="black"></path>
  </g>
  <defs>
    <clipPath id="clip0_8_305">
      <rect width="109.849" height="72" fill="white" transform="translate(0.12616)"></rect>
    </clipPath>
  </defs>
</svg>
