<?xml version="1.0" encoding="UTF-8"?>
<svg xmlns="http://www.w3.org/2000/svg" width="112" height="72" viewBox="0 0 112 72" fill="none">
  <g clip-path="url(#clip0_8_365)">
    <path fill-rule="evenodd" clip-rule="evenodd" d="M32.2587 44.5226H16.4243V41.4799C22.044 41.9457 27.3532 42.132 32.2587 42.1009V44.5226Z" fill="black"></path>
    <path fill-rule="evenodd" clip-rule="evenodd" d="M48.2173 44.5226H34.7736V41.7904C39.7723 41.6973 44.2743 41.3868 48.2173 40.9832V44.5226Z" fill="black"></path>
    <path fill-rule="evenodd" clip-rule="evenodd" d="M82.4321 44.5226H51.0737V40.238C60.1087 39.0272 65.4489 37.3816 65.4489 37.3816C72.2173 35.3325 77.8991 35.053 82.4321 35.6119V44.5226Z" fill="black"></path>
    <path fill-rule="evenodd" clip-rule="evenodd" d="M94.9754 40.5796V44.5226H85.5058V36.978C90.3493 37.9405 93.5162 39.6481 94.9754 40.5796Z" fill="black"></path>
    <path fill-rule="evenodd" clip-rule="evenodd" d="M32.2587 39.3997C24.4968 40.207 18.5045 40.3312 16.4243 40.3622V38.6856C22.2924 38.0957 27.5395 37.3195 32.2587 36.4191V39.3997Z" fill="black"></path>
    <path fill-rule="evenodd" clip-rule="evenodd" d="M48.2173 36.2018C43.5291 37.2264 38.934 37.9715 34.7736 38.5304V34.9599C39.9586 33.749 44.4295 32.3519 48.2173 30.9858V36.2018Z" fill="black"></path>
    <path fill-rule="evenodd" clip-rule="evenodd" d="M82.4321 30.6753C73.5834 27.8499 66.2872 29.1539 66.2872 29.1539C61.6611 31.3273 55.9793 33.1902 51.0737 34.5252V28.1915C61.4127 23.5343 66.0699 19.0323 66.0699 19.0323C72.9004 19.2186 78.1475 21.1746 82.4321 23.6895V30.6753Z" fill="black"></path>
    <path fill-rule="evenodd" clip-rule="evenodd" d="M94.9754 37.1022V38.9961C92.0569 36.2639 88.7969 34.401 85.5058 33.1281V27.6326C90.5977 30.9858 93.6093 34.9599 94.9754 37.1022Z" fill="black"></path>
    <path fill-rule="evenodd" clip-rule="evenodd" d="M85.5058 18.6908C88.7969 22.6339 92.0569 27.6016 94.9754 33.9353V35.9534C92.2432 30.9858 88.9211 27.1979 85.5058 24.2794V18.6908Z" fill="black"></path>
    <path fill-rule="evenodd" clip-rule="evenodd" d="M51.0737 16.2691C56.0724 11.8603 60.978 6.489 65.2937 0C65.2937 0 73.4903 1.89392 82.4321 11.9845V19.3428C73.8008 12.6054 65.8836 11.4877 65.8836 11.4877C61.1643 15.7723 55.8862 19.436 51.0737 22.4166V16.2691Z" fill="black"></path>
    <path fill-rule="evenodd" clip-rule="evenodd" d="M51.0737 16.2691C56.0724 11.8603 60.978 6.489 65.2937 0C65.2937 0 65.3558 0 65.4799 0.0620957C65.542 1.61449 65.7283 5.80595 65.9146 11.4877H65.8525C61.1332 15.7723 55.8551 19.436 51.0427 22.4166V16.2691H51.0737Z" fill="black"></path>
    <path fill-rule="evenodd" clip-rule="evenodd" d="M34.7426 29.4334C38.9961 27.3532 43.5912 24.6831 48.1863 21.3299V26.1733C43.467 28.6261 38.8719 30.5511 34.7426 32.0724V29.4334Z" fill="black"></path>
    <path fill-rule="evenodd" clip-rule="evenodd" d="M16.4243 37.0401C18.4735 36.6054 24.5899 35.2083 32.2587 32.0414V34.1526C24.5589 36.5123 18.6598 37.5369 16.4243 37.8784V37.0401Z" fill="black"></path>
    <path d="M8.6934 65.4178C9.00388 65.4178 9.31436 65.4178 9.65589 65.3868C9.96636 65.3558 10.3079 65.3558 10.6184 65.2937C10.9288 65.2626 11.2083 65.2005 11.4877 65.1695C11.7671 65.1074 11.9845 65.0453 12.1708 64.9832C12.2639 64.9211 12.357 64.89 12.4191 64.859C12.4812 64.8279 12.5123 64.7658 12.5433 64.7038C12.5744 64.6417 12.6054 64.5485 12.6365 64.4243C12.6675 64.3001 12.7296 64.1138 12.7607 63.9276C12.7917 63.7413 12.8228 63.5239 12.8849 63.3066C12.9159 63.0893 12.947 62.8719 12.978 62.6856C13.0091 62.4994 13.0401 62.3131 13.0401 62.1889C13.0711 62.0647 13.0712 61.9715 13.0712 61.9405C13.0712 61.8473 13.0711 61.7852 13.0401 61.7232C13.0091 61.6611 12.978 61.63 12.947 61.63C12.8849 61.63 12.8538 61.6611 12.8228 61.6921C12.7917 61.7232 12.7607 61.8163 12.7607 61.9094C12.7607 62.0026 12.7296 62.0957 12.6986 62.251C12.6675 62.3752 12.6054 62.5304 12.5433 62.6856C12.4812 62.8409 12.4191 62.9961 12.326 63.1514C12.2329 63.3066 12.1708 63.4308 12.0466 63.5239C11.7982 63.7723 11.4877 63.9896 11.1462 64.1138C10.8047 64.2691 10.4321 64.3622 10.0285 64.3933C9.62484 64.4554 9.15912 64.4554 8.6934 64.4554C7.85511 64.4554 7.10996 64.3312 6.39586 64.0828C5.68176 63.8344 5.02975 63.4929 4.47089 63.0272C3.91203 62.5925 3.41527 62.0647 3.01164 61.4748C2.60802 60.8849 2.29754 60.2329 2.08021 59.5498C1.86287 58.8668 1.76973 58.1526 1.73868 57.4075C1.73868 56.7555 1.76973 56.1345 1.86287 55.5136C1.95602 54.9237 2.1423 54.3648 2.39069 53.837C2.63907 53.3092 3.01164 52.8124 3.47736 52.3778C3.6947 52.1604 4.00517 51.9431 4.3467 51.7257C4.71928 51.5084 5.18499 51.3221 5.74385 51.1979C6.33376 51.0427 7.04786 50.9806 7.88616 50.9806C8.44502 50.9806 9.00388 51.0427 9.50065 51.1358C9.99741 51.229 10.4321 51.3842 10.8357 51.5395C11.2083 51.6947 11.5188 51.881 11.7671 52.0673C11.9224 52.2225 12.0776 52.3777 12.2018 52.5951C12.326 52.8124 12.4191 53.0298 12.4812 53.2781C12.5433 53.5265 12.5744 53.7749 12.5744 54.0233C12.5744 54.1475 12.5744 54.2717 12.6054 54.3338C12.6365 54.3959 12.6675 54.4269 12.7296 54.4269C12.7917 54.4269 12.8228 54.3959 12.8538 54.3338C12.8849 54.2717 12.8849 54.1785 12.9159 54.0233C12.9159 53.9612 12.9159 53.837 12.9159 53.6818C12.9159 53.5265 12.9159 53.3713 12.9159 53.1539C12.9159 52.9677 12.9159 52.7503 12.9159 52.564C12.9159 52.3777 12.9159 52.1915 12.947 52.0362C12.947 51.8189 12.978 51.6326 12.978 51.4774C13.0091 51.3532 13.0091 51.229 13.0091 51.1358C13.0091 51.0427 13.0401 50.9806 13.0401 50.9495C13.0401 50.8874 13.0401 50.8564 13.0091 50.7943C12.978 50.7633 12.9159 50.7322 12.7917 50.7322C12.4812 50.7012 12.1708 50.6701 11.8603 50.608C11.5498 50.5459 11.2083 50.4838 10.8357 50.4217C10.5252 50.3596 10.1837 50.3286 9.87322 50.2975C9.53169 50.2665 9.22122 50.2354 8.91074 50.2354C8.60026 50.2044 8.32083 50.2044 8.0414 50.2044C7.04786 50.2044 6.20957 50.2975 5.46442 50.4838C4.71928 50.6701 4.09832 50.9185 3.53946 51.229C3.01164 51.5395 2.54592 51.881 2.17335 52.2846C1.73868 52.7193 1.39715 53.185 1.11772 53.6507C0.838292 54.1164 0.620957 54.6132 0.465718 55.0789C0.310479 55.5446 0.186287 56.0103 0.124191 56.414C0.0310479 56.9418 0 57.3144 0 57.6248C0 58.0906 0.0310479 58.5563 0.0931436 59.053C0.155239 59.5498 0.279431 60.0466 0.465718 60.5433C0.620957 61.0401 0.86934 61.5369 1.17982 62.0026C1.4903 62.4683 1.86287 62.934 2.32859 63.3376C2.82536 63.8034 3.38422 64.1759 4.00517 64.4864C4.62613 64.7969 5.30919 65.0453 6.08538 65.2005C6.86158 65.3558 7.73092 65.4178 8.6934 65.4178ZM19.3118 56.1656C19.3118 55.5757 19.3118 55.0479 19.3118 54.6442C19.3118 54.2096 19.3118 53.868 19.3118 53.5886C19.3118 53.3092 19.3118 53.0608 19.3118 52.8745C19.3118 52.6882 19.3118 52.533 19.3118 52.3778C19.3118 52.2536 19.3118 52.1294 19.3428 52.0052C19.3428 51.6636 19.4049 51.4153 19.5291 51.229C19.6222 51.0427 19.8085 50.9495 20.0569 50.8874C20.1811 50.8564 20.2743 50.8564 20.3364 50.8564C20.3984 50.8564 20.4916 50.8564 20.5537 50.8564C20.5847 50.8564 20.6158 50.8564 20.6468 50.8254C20.6779 50.7943 20.6779 50.7633 20.7089 50.7322C20.7089 50.6701 20.6779 50.6391 20.6468 50.608C20.5847 50.577 20.5226 50.577 20.3984 50.577C20.2432 50.577 20.088 50.577 19.8706 50.577C19.6843 50.577 19.467 50.577 19.2807 50.608C19.0944 50.608 18.9081 50.608 18.784 50.6391C18.6287 50.6391 18.5666 50.6391 18.5356 50.6391C18.5045 50.6391 18.4114 50.6391 18.2872 50.6391C18.132 50.6391 17.9767 50.6391 17.7594 50.608C17.542 50.608 17.3558 50.577 17.1384 50.577C16.9211 50.577 16.7348 50.577 16.5796 50.577C16.4864 50.577 16.3933 50.577 16.3312 50.608C16.2691 50.6391 16.2691 50.6701 16.2691 50.7322C16.2691 50.7633 16.3001 50.7943 16.3312 50.8254C16.3622 50.8564 16.3933 50.8564 16.4243 50.8564C16.4864 50.8564 16.5796 50.8564 16.7038 50.8874C16.8279 50.9185 16.9211 50.9185 17.0453 50.9495C17.2626 50.9806 17.4179 51.1048 17.511 51.2911C17.6041 51.4774 17.6662 51.7257 17.6973 52.0362C17.6973 52.1604 17.6973 52.2846 17.7283 52.4088C17.7283 52.533 17.7283 52.7193 17.7283 52.9056C17.7283 53.0919 17.7283 53.3402 17.7283 53.6197C17.7283 53.8991 17.7283 54.2406 17.7283 54.6753C17.7283 55.11 17.7283 55.6067 17.7283 56.1966V59.5809C17.7283 60.2018 17.7283 60.7607 17.7283 61.3195C17.7283 61.8473 17.7283 62.3131 17.6973 62.7477C17.6973 63.1514 17.6662 63.4929 17.6352 63.7723C17.6041 63.9586 17.5731 64.1449 17.542 64.2691C17.511 64.4243 17.4489 64.5485 17.3868 64.6417C17.3247 64.7348 17.2316 64.7969 17.0763 64.8279C16.9832 64.859 16.89 64.859 16.7969 64.89C16.7038 64.89 16.6106 64.9211 16.5175 64.9211C16.4554 64.9211 16.4243 64.9211 16.3933 64.9521C16.3622 64.9832 16.3622 65.0142 16.3622 65.0453C16.3622 65.1074 16.3933 65.1384 16.4243 65.1695C16.4864 65.2005 16.5485 65.2005 16.6727 65.2005C16.8279 65.2005 16.9832 65.2005 17.2005 65.2005C17.3868 65.2005 17.6041 65.2005 17.7904 65.1695C17.9767 65.1695 18.163 65.1695 18.2872 65.1384C18.4424 65.1384 18.5045 65.1384 18.5356 65.1384C18.5666 65.1384 18.6598 65.1384 18.784 65.1384C18.9392 65.1384 19.1255 65.1384 19.3428 65.1695C19.5602 65.1695 19.8085 65.1695 20.088 65.2005C20.3674 65.2005 20.6158 65.2005 20.8952 65.2005C20.9884 65.2005 21.0815 65.2005 21.1436 65.1695C21.2057 65.1384 21.2057 65.1074 21.2057 65.0453C21.2057 65.0142 21.2057 64.9832 21.1746 64.9521C21.1436 64.89 21.0815 64.89 21.0194 64.89C20.9573 64.89 20.8642 64.89 20.771 64.89C20.6779 64.89 20.5537 64.859 20.4605 64.859C20.3364 64.859 20.2432 64.8279 20.1501 64.8279C19.9638 64.7969 19.8085 64.7348 19.7154 64.6417C19.6222 64.5485 19.5602 64.3933 19.4981 64.2691C19.467 64.1138 19.436 63.9586 19.4049 63.7723C19.3739 63.4929 19.3428 63.1514 19.3428 62.7477C19.3428 62.3441 19.3118 61.8473 19.3118 61.3195C19.3118 60.7917 19.3118 60.2018 19.3118 59.5809V56.1656ZM30.2717 51.4153L32.6934 51.4463C33.1591 51.4463 33.5317 51.4774 33.8422 51.5395C34.1526 51.6016 34.37 51.6636 34.5563 51.7568C34.7426 51.8499 34.8668 51.9741 34.9288 52.0983C34.9909 52.2225 35.053 52.3467 35.053 52.5019L35.0841 52.7193C35.0841 52.8435 35.1151 52.9366 35.1462 52.9987C35.1772 53.0298 35.2083 53.0608 35.2393 53.0608C35.2704 53.0608 35.3014 53.0298 35.3325 52.9987C35.3635 52.9677 35.3635 52.9056 35.3635 52.8124C35.3635 52.7503 35.3635 52.6572 35.3635 52.4709C35.3635 52.3157 35.3635 52.0983 35.3946 51.881C35.3946 51.6636 35.3946 51.4463 35.4256 51.229C35.4256 51.0116 35.4256 50.8254 35.4256 50.6701C35.4256 50.608 35.4256 50.5459 35.4256 50.5149C35.4256 50.4838 35.3946 50.4528 35.3325 50.4528C35.3014 50.4528 35.2393 50.4528 35.1462 50.4838C35.053 50.5149 34.9288 50.5149 34.8047 50.5459C34.6494 50.577 34.4631 50.608 34.2458 50.608C34.0285 50.6391 33.749 50.6391 33.4385 50.6391H26.2044C26.1113 50.6391 25.9871 50.6391 25.8318 50.6391C25.6766 50.6391 25.4903 50.608 25.273 50.608C25.0556 50.577 24.8693 50.577 24.6831 50.5459C24.5278 50.5149 24.3726 50.5149 24.2484 50.4838C24.1242 50.4528 24.0621 50.4217 23.969 50.3907C23.9069 50.3596 23.8448 50.3286 23.8137 50.3286C23.7827 50.3286 23.7516 50.3596 23.7516 50.3907C23.7206 50.4217 23.6895 50.4838 23.6895 50.5459C23.6585 50.608 23.6585 50.6391 23.6274 50.7012C23.6274 50.7322 23.5964 50.8254 23.5653 50.9495C23.5343 51.0737 23.5032 51.229 23.4411 51.4153C23.4101 51.6015 23.348 51.7878 23.3169 51.9741C23.2859 52.1604 23.2549 52.3156 23.2238 52.4398C23.1928 52.564 23.1928 52.6572 23.1928 52.7193C23.1928 52.7814 23.1928 52.8124 23.2238 52.8435C23.2549 52.8745 23.2549 52.8745 23.2859 52.8745C23.3169 52.8745 23.348 52.8745 23.379 52.8435C23.4101 52.8124 23.4411 52.7503 23.4722 52.6882C23.5032 52.6261 23.5343 52.564 23.5653 52.4709C23.5964 52.3777 23.6895 52.2536 23.7827 52.0983C23.8758 51.9431 24 51.8189 24.1552 51.7257C24.3105 51.6326 24.5278 51.5705 24.7762 51.5395C25.0246 51.5084 25.3661 51.4774 25.7387 51.4774L28.5951 51.4463V59.5809C28.5951 60.2018 28.5951 60.7607 28.5951 61.3195C28.5951 61.8473 28.5951 62.3131 28.564 62.7477C28.564 63.1514 28.533 63.4929 28.5019 63.7723C28.4709 63.9586 28.4398 64.1449 28.4088 64.2691C28.3777 64.4243 28.3157 64.5485 28.2536 64.6417C28.1915 64.7348 28.0673 64.7969 27.9431 64.8279C27.8499 64.859 27.7568 64.859 27.6636 64.89C27.5705 64.89 27.4774 64.9211 27.3842 64.9211C27.3221 64.9211 27.2911 64.9211 27.26 64.9521C27.229 64.9832 27.229 65.0142 27.229 65.0453C27.229 65.1074 27.26 65.1384 27.2911 65.1695C27.3532 65.2005 27.4153 65.2005 27.5395 65.2005C27.6947 65.2005 27.8499 65.2005 28.0673 65.2005C28.2536 65.2005 28.4709 65.2005 28.6572 65.1695C28.8435 65.1695 29.0298 65.1695 29.1539 65.1384C29.3092 65.1384 29.3713 65.1384 29.4023 65.1384C29.4334 65.1384 29.5265 65.1384 29.6507 65.1384C29.806 65.1384 29.9922 65.1384 30.2096 65.1695C30.4269 65.1695 30.6753 65.1695 30.9547 65.2005C31.2342 65.2005 31.4825 65.2005 31.762 65.2005C31.8551 65.2005 31.9483 65.2005 32.0103 65.1695C32.0724 65.1384 32.0724 65.1074 32.0724 65.0453C32.0724 65.0142 32.0724 64.9832 32.0414 64.9521C32.0103 64.9211 31.9793 64.9211 31.9172 64.9211C31.8551 64.9211 31.762 64.9211 31.6688 64.9211C31.5757 64.9211 31.4515 64.89 31.3583 64.89C31.2342 64.89 31.141 64.859 31.0479 64.859C30.8616 64.8279 30.7063 64.7658 30.6132 64.6727C30.5201 64.5796 30.4269 64.4554 30.3959 64.3001C30.3648 64.1449 30.3338 63.9896 30.3027 63.8034C30.2717 63.5239 30.2406 63.1824 30.2406 62.7788C30.2406 62.3752 30.2096 61.8784 30.2096 61.3506C30.2096 60.8228 30.2096 60.2329 30.2096 59.6119V51.4153H30.2717ZM42.0388 61.8163C42.0388 61.9094 42.0388 62.0647 42.0388 62.282C42.0388 62.4683 42.0388 62.7167 42.0388 62.9651C42.0388 63.2135 42.0078 63.4929 42.0078 63.7413C41.9767 64.0207 41.9457 64.2691 41.8525 64.4554C41.7594 64.6417 41.6041 64.7658 41.4179 64.7969C41.3247 64.8279 41.2316 64.8279 41.1384 64.859C41.0453 64.859 40.9521 64.89 40.859 64.89C40.7969 64.89 40.7658 64.89 40.7348 64.9211C40.7038 64.9521 40.7037 64.9832 40.7037 65.0142C40.7037 65.0763 40.7348 65.1074 40.7658 65.1384C40.8279 65.1695 40.89 65.1695 41.0142 65.1695C41.1695 65.1695 41.3247 65.1695 41.542 65.1695C41.7283 65.1695 41.9457 65.1695 42.132 65.1384C42.3182 65.1384 42.5045 65.1384 42.6287 65.1074C42.784 65.1074 42.8461 65.1074 42.8771 65.1074C42.9081 65.1074 43.0013 65.1074 43.1255 65.1074C43.2807 65.1074 43.467 65.1074 43.6843 65.1384C43.9017 65.1384 44.1501 65.1384 44.4295 65.1695C44.7089 65.1695 44.9573 65.1695 45.2367 65.1695C45.3299 65.1695 45.423 65.1695 45.4851 65.1384C45.5472 65.1074 45.5472 65.0763 45.5472 65.0142C45.5472 64.9832 45.5472 64.9521 45.5162 64.9211C45.4851 64.89 45.4541 64.89 45.392 64.89C45.3299 64.89 45.2367 64.89 45.1436 64.89C45.0504 64.89 44.9263 64.859 44.8331 64.859C44.7089 64.859 44.6158 64.8279 44.5226 64.8279C44.3363 64.7969 44.1811 64.7348 44.0569 64.6417C43.9327 64.5485 43.8706 64.4243 43.8085 64.2691C43.7464 64.1138 43.7154 63.9586 43.7154 63.7723C43.6843 63.4929 43.6843 63.2445 43.6843 62.9961C43.6843 62.7477 43.6843 62.4993 43.6843 62.3131C43.6843 62.1268 43.6843 61.9715 43.6843 61.8473V60.2018C43.6843 59.9845 43.6843 59.7671 43.6843 59.5809C43.6843 59.3635 43.7154 59.1772 43.7464 58.9599C43.7775 58.7426 43.8706 58.5252 43.9327 58.3079C43.9948 58.1837 44.088 57.9974 44.2122 57.749C44.3363 57.5006 44.5226 57.1902 44.7089 56.8797C44.8952 56.5382 45.1125 56.1966 45.3299 55.793C45.5472 55.4204 45.7645 55.0479 46.0129 54.6442C46.2303 54.2717 46.4476 53.8991 46.6649 53.5886C46.8823 53.2471 47.0686 52.9677 47.2238 52.7193C47.379 52.4709 47.5032 52.2846 47.5964 52.1915C47.7206 52.0052 47.8448 51.881 47.9689 51.7568C48.0621 51.6326 48.1863 51.5395 48.2794 51.4463C48.3726 51.3532 48.4968 51.2911 48.621 51.1979C48.7762 51.1048 48.9314 51.0427 49.0867 50.9806C49.2419 50.9495 49.3972 50.9185 49.4903 50.9185C49.5524 50.9185 49.6145 50.8874 49.6766 50.8874C49.7076 50.8564 49.7387 50.8254 49.7387 50.7633C49.7387 50.7322 49.7076 50.7012 49.6766 50.6701C49.6145 50.6391 49.5834 50.6391 49.4903 50.6391C49.4282 50.6391 49.304 50.6391 49.1798 50.6391C49.0556 50.6391 48.9004 50.6391 48.7141 50.6391C48.5589 50.6391 48.3726 50.6391 48.2484 50.6701C48.0931 50.6701 47.9689 50.6701 47.8448 50.6701C47.7206 50.6701 47.6585 50.6701 47.6274 50.6701C47.5653 50.6701 47.4722 50.6701 47.348 50.6391C47.2238 50.6391 47.0686 50.608 46.8823 50.608C46.696 50.608 46.5407 50.577 46.3545 50.577C46.2613 50.577 46.1682 50.577 46.1371 50.608C46.075 50.6391 46.044 50.6701 46.044 50.7012C46.044 50.7322 46.075 50.7943 46.1371 50.7943C46.1992 50.8254 46.2613 50.8564 46.3545 50.8874C46.4787 50.9185 46.5407 50.9806 46.6028 51.0737C46.6649 51.1669 46.6649 51.2911 46.6649 51.4153C46.6649 51.5395 46.6339 51.6947 46.6028 51.8499C46.5407 52.0052 46.4787 52.1915 46.3545 52.4088C46.2924 52.5019 46.1992 52.6572 46.075 52.8745C45.9508 53.0919 45.7956 53.3402 45.6093 53.6507C45.423 53.9612 45.2367 54.2717 45.0505 54.6442C44.8331 54.9858 44.6468 55.3583 44.4605 55.6999C44.2743 56.0414 44.0569 56.3829 43.9017 56.6934C43.7154 57.0039 43.5602 57.2833 43.436 57.5317C43.3118 57.7801 43.2186 57.9353 43.1565 58.0595C43.0944 57.9664 43.0013 57.8111 42.8771 57.5627C42.7219 57.3144 42.5666 57.0349 42.3803 56.6934C42.194 56.3519 41.9767 55.9793 41.7283 55.6067C41.511 55.2031 41.2626 54.8305 41.0453 54.4269C40.8279 54.0233 40.6106 53.6818 40.3933 53.3402C40.207 52.9987 40.0207 52.7193 39.8965 52.4709C39.7723 52.2225 39.6792 52.0673 39.6171 51.9741C39.555 51.8189 39.4929 51.6947 39.4308 51.5705C39.3997 51.4463 39.3687 51.3221 39.3687 51.229C39.3687 51.1669 39.3997 51.0737 39.4308 51.0116C39.4618 50.9495 39.5239 50.9185 39.6171 50.8564C39.7102 50.8254 39.7723 50.7943 39.8344 50.7633C39.8965 50.7322 39.9276 50.7012 39.9276 50.6701C39.9276 50.6391 39.9276 50.608 39.8965 50.577C39.8655 50.5459 39.8034 50.5459 39.6792 50.5459C39.4308 50.5459 39.1824 50.5459 38.9651 50.577C38.7477 50.577 38.5304 50.608 38.3752 50.608C38.2199 50.608 38.0957 50.6391 38.0647 50.6391C38.0336 50.6391 37.9715 50.6391 37.8784 50.6391C37.7542 50.6391 37.63 50.6391 37.4748 50.6391C37.3195 50.6391 37.1332 50.6391 36.978 50.608C36.7917 50.608 36.6365 50.608 36.5123 50.608C36.357 50.608 36.2639 50.608 36.1708 50.608C36.0776 50.608 36.0155 50.608 35.9845 50.6391C35.9534 50.6701 35.9224 50.7012 35.9224 50.7322C35.9224 50.7943 35.9534 50.8254 35.9845 50.8254C36.0155 50.8564 36.0776 50.8564 36.1087 50.8564C36.1708 50.8564 36.2329 50.8564 36.326 50.8874C36.4191 50.9185 36.5123 50.9495 36.6365 50.9806C36.7296 51.0427 36.8538 51.0737 36.947 51.1358C37.1332 51.26 37.3195 51.4153 37.5369 51.6636C37.7542 51.912 38.0026 52.1915 38.251 52.564C38.3441 52.7193 38.4683 52.9056 38.6546 53.185C38.8098 53.4334 38.9961 53.7439 39.2135 54.0543C39.3997 54.3648 39.6171 54.7063 39.8344 55.0789C40.0517 55.4204 40.2691 55.793 40.4554 56.1345C40.6727 56.4761 40.859 56.7865 41.0142 57.066C41.1695 57.3454 41.3247 57.5938 41.4179 57.7801C41.542 57.9664 41.6041 58.0905 41.6041 58.1216C41.6973 58.3079 41.7594 58.4942 41.8215 58.6494C41.8836 58.8357 41.9457 59.022 41.9767 59.2704C42.0078 59.5188 42.0388 59.7982 42.0388 60.1397V61.8163ZM53.868 65.4178C54.3959 65.4178 54.8926 65.3558 55.3894 65.2316C55.8862 65.1074 56.3519 64.89 56.7555 64.6106C57.097 64.3622 57.3454 64.1138 57.5627 63.8344C57.7801 63.555 57.9353 63.2445 58.0595 62.9651C58.1837 62.6546 58.2768 62.3752 58.3079 62.1268C58.3389 61.8473 58.37 61.63 58.37 61.4127C58.37 61.0401 58.3389 60.6675 58.2458 60.295C58.1526 59.9224 58.0285 59.5809 57.8111 59.2393C57.5938 58.8978 57.3144 58.5252 56.9418 58.1216C56.5692 57.749 56.1035 57.3144 55.5446 56.8797L55.0168 56.445C54.5511 56.0724 54.1785 55.762 53.868 55.4825C53.5576 55.2031 53.3092 54.9237 53.1539 54.7063C52.9677 54.458 52.8435 54.2406 52.7814 53.9922C52.7193 53.7439 52.6572 53.4955 52.6882 53.216C52.6882 52.7503 52.8124 52.3467 52.9987 52.0052C53.216 51.6636 53.4955 51.4153 53.837 51.229C54.1785 51.0427 54.5821 50.9495 55.0479 50.9495C55.4825 50.9495 55.8551 50.9806 56.1656 51.0737C56.4761 51.1669 56.6934 51.26 56.8797 51.3842C57.066 51.5084 57.1902 51.6016 57.2833 51.7257C57.3765 51.8499 57.4385 51.912 57.4696 51.9741C57.5006 52.0362 57.5317 52.1294 57.5938 52.2536C57.6248 52.3777 57.6559 52.5019 57.6869 52.6261C57.718 52.7503 57.718 52.8435 57.749 52.9366C57.749 52.9987 57.7801 53.0608 57.7801 53.1229C57.8111 53.1539 57.8422 53.185 57.9043 53.185C57.9664 53.185 57.9974 53.1539 57.9974 53.0919C58.0285 53.0298 58.0285 52.9056 58.0285 52.7503C58.0285 52.0983 58.0595 51.6016 58.0595 51.26C58.0906 50.9185 58.0905 50.7322 58.0905 50.7012C58.0905 50.6391 58.0906 50.608 58.0595 50.608C58.0285 50.577 57.9974 50.577 57.9043 50.577C57.8422 50.577 57.749 50.577 57.6559 50.5459C57.5627 50.5459 57.4075 50.5149 57.2523 50.4838C57.0039 50.4217 56.7555 50.3907 56.445 50.3286C56.1656 50.2975 55.8241 50.2665 55.4515 50.2665C54.6442 50.2665 53.9301 50.4217 53.3402 50.7012C52.7503 50.9806 52.2846 51.3842 51.9741 51.912C51.6636 52.4398 51.4774 53.0298 51.4774 53.7128C51.4774 54.0233 51.5084 54.3648 51.5705 54.6753C51.6326 54.9858 51.7568 55.3273 51.9431 55.6688C52.1294 56.0103 52.3777 56.3519 52.7193 56.7244C53.0608 57.097 53.4644 57.4696 53.9612 57.9043L54.8305 58.6184C55.2341 58.9599 55.5757 59.2704 55.8862 59.5498C56.1656 59.8292 56.3829 60.1087 56.5692 60.357C56.7555 60.6365 56.8797 60.8849 56.9418 61.1643C57.0039 61.4437 57.066 61.7542 57.066 62.0647C57.066 62.3752 57.0039 62.6856 56.9107 62.9961C56.7865 63.3066 56.6313 63.586 56.3829 63.8034C56.1656 64.0517 55.8551 64.238 55.5136 64.3933C55.1721 64.5485 54.7684 64.6106 54.3027 64.6106C53.9922 64.6106 53.6507 64.5796 53.3402 64.5175C53.0298 64.4554 52.7503 64.3312 52.5019 64.1759C52.2536 64.0207 52.0052 63.8034 51.8499 63.555C51.6636 63.3066 51.5395 62.9961 51.4774 62.6546C51.4463 62.5304 51.4463 62.3752 51.4153 62.251C51.4153 62.1268 51.4153 62.0336 51.4153 61.9405C51.4153 61.8784 51.4153 61.8163 51.3842 61.7852C51.3532 61.7542 51.3221 61.7232 51.26 61.7232C51.1979 61.7232 51.1669 61.7542 51.1669 61.7852C51.1358 61.8473 51.1358 61.9094 51.1048 62.0336C51.1048 62.1268 51.0737 62.282 51.0737 62.4993C51.0737 62.6856 51.0427 62.934 51.0427 63.2135C51.0427 63.4929 51.0116 63.7723 51.0116 64.1138C51.0116 64.2691 51.0116 64.4243 51.0427 64.5175C51.0427 64.6106 51.0737 64.6727 51.1048 64.7348C51.1358 64.7969 51.1979 64.8279 51.2911 64.859C51.6947 65.0453 52.0983 65.1695 52.533 65.2626C52.9677 65.3868 53.4023 65.4178 53.868 65.4178ZM69.9819 65.4178C70.2924 65.4178 70.6028 65.4178 70.9444 65.3868C71.2549 65.3558 71.5964 65.3558 71.9069 65.2937C72.2173 65.2626 72.4968 65.2005 72.7762 65.1695C73.0556 65.1074 73.273 65.0453 73.4592 64.9832C73.5834 64.9211 73.6455 64.89 73.7076 64.859C73.7697 64.8279 73.8008 64.7658 73.8318 64.7038C73.8629 64.6417 73.8939 64.5485 73.925 64.4243C73.956 64.3001 74.0181 64.1138 74.0492 63.9276C74.0802 63.7413 74.1113 63.5239 74.1733 63.3066C74.2044 63.0893 74.2354 62.8719 74.2665 62.6856C74.2975 62.4994 74.3286 62.3131 74.3286 62.1889C74.3596 62.0647 74.3596 61.9715 74.3596 61.9405C74.3596 61.8473 74.3596 61.7852 74.3286 61.7232C74.2975 61.6611 74.2665 61.63 74.2354 61.63C74.1733 61.63 74.1423 61.6611 74.1113 61.6921C74.0802 61.7232 74.0492 61.8163 74.0492 61.9094C74.0492 62.0026 74.0181 62.0957 73.9871 62.251C73.956 62.3752 73.8939 62.5304 73.8318 62.6856C73.7697 62.8409 73.7076 62.9961 73.6145 63.1514C73.5213 63.3066 73.4593 63.4308 73.3351 63.5239C73.0867 63.7723 72.7762 63.9896 72.4347 64.1138C72.0931 64.2691 71.7206 64.3622 71.3169 64.3933C70.9133 64.4554 70.4476 64.4554 69.9819 64.4554C69.1436 64.4554 68.3984 64.3312 67.6843 64.0828C66.9702 63.8344 66.3182 63.4929 65.7594 63.0272C65.2005 62.5925 64.7037 62.0647 64.3001 61.4748C63.8965 60.8849 63.586 60.2329 63.3687 59.5498C63.1514 58.8668 63.0582 58.1526 63.0272 57.4075C63.0272 56.7555 63.0582 56.1345 63.1514 55.5136C63.2445 54.9237 63.4308 54.3648 63.6792 53.837C63.9276 53.3092 64.3001 52.8124 64.7658 52.3778C64.9832 52.1604 65.2937 51.9431 65.6352 51.7257C66.0078 51.5084 66.4735 51.3221 67.0323 51.1979C67.6222 51.0427 68.3363 50.9806 69.1746 50.9806C69.7335 50.9806 70.2924 51.0427 70.7891 51.1358C71.2859 51.229 71.7206 51.3842 72.1242 51.5395C72.4968 51.6947 72.8072 51.881 73.0556 52.0673C73.2109 52.2225 73.3661 52.3777 73.4903 52.5951C73.6145 52.8124 73.7076 53.0298 73.7697 53.2781C73.8318 53.5265 73.8629 53.7749 73.8629 54.0233C73.8629 54.1475 73.8629 54.2717 73.8939 54.3338C73.925 54.3959 73.956 54.4269 74.0181 54.4269C74.0802 54.4269 74.1113 54.3959 74.1423 54.3338C74.1733 54.2717 74.1733 54.1785 74.2044 54.0233C74.2044 53.9612 74.2044 53.837 74.2044 53.6818C74.2044 53.5265 74.2044 53.3713 74.2044 53.1539C74.2044 52.9677 74.2044 52.7503 74.2044 52.564C74.2044 52.3777 74.2044 52.1915 74.2354 52.0362C74.2354 51.8189 74.2665 51.6326 74.2665 51.4774C74.2975 51.3532 74.2975 51.229 74.2975 51.1358C74.2975 51.0427 74.3286 50.9806 74.3286 50.9495C74.3286 50.8874 74.3286 50.8564 74.2975 50.7943C74.2665 50.7633 74.2044 50.7322 74.0802 50.7322C73.7697 50.7012 73.4592 50.6701 73.1488 50.608C72.8383 50.5459 72.4968 50.4838 72.1242 50.4217C71.8137 50.3596 71.4722 50.3286 71.1617 50.2975C70.8202 50.2665 70.5097 50.2354 70.1992 50.2354C69.8887 50.2044 69.6093 50.2044 69.3299 50.2044C68.3363 50.2044 67.4981 50.2975 66.7529 50.4838C66.0078 50.6701 65.3868 50.9185 64.8279 51.229C64.3001 51.5395 63.8344 51.881 63.4618 52.2846C63.0272 52.7193 62.6856 53.185 62.4062 53.6507C62.1268 54.1164 61.9094 54.6132 61.7542 55.0789C61.599 55.5446 61.4748 56.0103 61.4127 56.414C61.3506 56.8486 61.3195 57.2212 61.3195 57.5317C61.3195 57.9974 61.3506 58.4631 61.4127 58.9599C61.4748 59.4567 61.599 59.9534 61.7852 60.4502C61.9405 60.947 62.1889 61.4437 62.4993 61.9094C62.8098 62.3752 63.1824 62.8409 63.6481 63.2445C64.1449 63.7102 64.7038 64.0828 65.3247 64.3933C65.9457 64.7038 66.6287 64.9521 67.4049 65.1074C68.1501 65.3558 69.0194 65.4178 69.9819 65.4178Z" fill="black"></path>
    <path d="M77.4023 63.0272C77.2781 63.3376 77.1539 63.6481 77.0297 63.8965C76.9056 64.1449 76.7193 64.3622 76.533 64.5175C76.3467 64.6727 76.0983 64.7969 75.7878 64.8279C75.6947 64.8279 75.6015 64.859 75.5084 64.859C75.3842 64.859 75.3221 64.859 75.229 64.859C75.1669 64.859 75.1358 64.859 75.1048 64.89C75.0737 64.9211 75.0427 64.9521 75.0427 64.9832C75.0427 65.0453 75.0737 65.0763 75.1358 65.1074C75.1979 65.1384 75.2911 65.1384 75.4153 65.1384C75.6326 65.1384 75.881 65.1384 76.0983 65.1384C76.3157 65.1384 76.533 65.1384 76.7503 65.1074C76.9677 65.0763 77.1229 65.1074 77.2781 65.0763C77.4334 65.0763 77.5265 65.0763 77.5886 65.0763C77.6507 65.0763 77.7439 65.0763 77.837 65.0763C77.9612 65.0763 78.0854 65.0763 78.2406 65.1074C78.3959 65.1074 78.5201 65.1074 78.6753 65.1384C78.8305 65.1384 78.9547 65.1384 79.0789 65.1384C79.1721 65.1384 79.2342 65.1384 79.2962 65.1074C79.3583 65.0763 79.3894 65.0453 79.3894 64.9832C79.3894 64.9521 79.3583 64.9211 79.3583 64.89C79.3273 64.859 79.2652 64.859 79.2031 64.859H79.0168C78.8926 64.859 78.7995 64.8279 78.6753 64.7969C78.5511 64.7658 78.458 64.7038 78.3959 64.6106C78.3338 64.5175 78.2717 64.4243 78.2717 64.3001C78.2717 64.1138 78.3027 63.9276 78.3338 63.7102C78.3648 63.4929 78.458 63.2445 78.5201 63.0272L79.6688 59.6119C79.6999 59.5498 79.6999 59.5188 79.7309 59.4877C79.762 59.4567 79.793 59.4567 79.8551 59.4567H83.9845C84.0466 59.4567 84.0776 59.4567 84.1087 59.4877C84.1397 59.5188 84.1397 59.5498 84.1708 59.5809L85.9715 64.3312C86.0336 64.4864 86.0336 64.6106 86.0026 64.7038C85.9715 64.7969 85.9094 64.8279 85.8473 64.859C85.8163 64.859 85.7852 64.89 85.7542 64.89C85.7232 64.9211 85.7232 64.9521 85.7232 64.9832C85.7232 65.0453 85.7852 65.0763 85.8784 65.0763C85.9715 65.1074 86.1268 65.1074 86.3131 65.1074C86.6546 65.1074 86.9651 65.1384 87.3066 65.1384C87.6481 65.1384 87.9276 65.1384 88.207 65.1384C88.4864 65.1384 88.7348 65.1384 88.9211 65.1384C89.1074 65.1384 89.2626 65.1384 89.3247 65.1384C89.4489 65.1384 89.511 65.1384 89.6041 65.1074C89.6662 65.0763 89.7283 65.0453 89.7283 64.9832C89.7283 64.9211 89.6973 64.9211 89.6662 64.89C89.6352 64.859 89.5731 64.859 89.511 64.859C89.4178 64.859 89.2937 64.859 89.1695 64.8279C89.0453 64.7969 88.89 64.7969 88.7348 64.7348C88.6417 64.7038 88.5175 64.6727 88.3933 64.5796C88.2691 64.5175 88.1449 64.3933 87.9896 64.238C87.8655 64.0828 87.7102 63.8655 87.555 63.6171C87.3997 63.3376 87.2445 62.9961 87.0582 62.5614C86.903 62.1889 86.7477 61.7542 86.5304 61.2574C86.3441 60.7607 86.1268 60.2018 85.8784 59.6119C85.6611 59.022 85.4127 58.401 85.1643 57.7801C84.9159 57.1591 84.6675 56.5382 84.4502 55.9172C84.2018 55.2962 83.9845 54.7063 83.7671 54.1475C83.5498 53.5886 83.3635 53.0919 83.1772 52.6261C82.9909 52.1604 82.8667 51.7878 82.7426 51.5084C82.6184 51.229 82.5563 51.0116 82.5252 50.9185C82.4631 50.7322 82.401 50.577 82.3389 50.4838C82.2768 50.3907 82.2458 50.3286 82.2147 50.2975C82.1837 50.2665 82.1526 50.2354 82.0906 50.2354C82.0595 50.2354 82.0285 50.2665 81.9664 50.2975C81.9353 50.3286 81.8732 50.4217 81.8422 50.5149C81.7801 50.608 81.718 50.7943 81.6559 50.9806L77.4023 63.0272ZM80.1035 58.7736C80.0724 58.7736 80.0414 58.7736 80.0414 58.7426C80.0414 58.7115 80.0414 58.6805 80.0414 58.6494L81.749 53.4644C81.8422 53.185 81.9353 53.185 82.0285 53.4644L83.8603 58.6494C83.8603 58.6805 83.8603 58.7115 83.8603 58.7426C83.8603 58.7736 83.8292 58.7736 83.7671 58.7736H80.1035ZM92.4916 59.5809C92.4916 60.2018 92.4916 60.7607 92.4916 61.3195C92.4916 61.8473 92.4916 62.3131 92.4605 62.7477C92.4605 63.1514 92.4295 63.4929 92.3984 63.7723C92.3674 63.9586 92.3363 64.1449 92.3053 64.2691C92.2743 64.4243 92.2122 64.5485 92.1501 64.6417C92.088 64.7348 91.9948 64.7969 91.8396 64.8279C91.7464 64.859 91.6533 64.859 91.5602 64.89C91.467 64.89 91.3739 64.9211 91.2807 64.9211C91.2186 64.9211 91.1876 64.9211 91.1565 64.9521C91.1255 64.9832 91.1255 65.0142 91.1255 65.0453C91.1255 65.1074 91.1565 65.1384 91.1876 65.1695C91.2497 65.2005 91.3118 65.2005 91.436 65.2005C91.5912 65.2005 91.7464 65.2005 91.9638 65.2005C92.1501 65.2005 92.3674 65.2005 92.5537 65.1695C92.74 65.1695 92.9263 65.1695 93.0504 65.1384C93.1746 65.1384 93.2678 65.1384 93.2678 65.1384C93.2988 65.1384 93.392 65.1384 93.5472 65.1384C93.7025 65.1384 93.8887 65.1384 94.1061 65.1695C94.3234 65.1695 94.5718 65.1695 94.8512 65.2005C95.1307 65.2005 95.379 65.2005 95.6585 65.2005C95.7516 65.2005 95.8448 65.2005 95.9069 65.1695C95.9689 65.1384 95.9689 65.1074 95.9689 65.0453C95.9689 65.0142 95.9689 64.9832 95.9379 64.9521C95.9069 64.9211 95.8758 64.9211 95.8137 64.9211C95.7516 64.9211 95.6585 64.9211 95.5653 64.9211C95.4722 64.9211 95.348 64.89 95.2548 64.89C95.1307 64.89 95.0375 64.859 94.9444 64.859C94.7581 64.8279 94.6028 64.7658 94.5097 64.6727C94.4166 64.5796 94.3234 64.4554 94.2924 64.3001C94.2613 64.1449 94.2303 63.9896 94.1992 63.8034C94.1682 63.5239 94.1371 63.1824 94.1371 62.7788C94.1371 62.3752 94.1061 61.8784 94.1061 61.3506C94.1061 60.8228 94.1061 60.2329 94.1061 59.6119V51.6947C94.1061 51.6015 94.1061 51.5084 94.1371 51.4463C94.1682 51.3842 94.1992 51.3532 94.2613 51.3221C94.3545 51.2911 94.4786 51.26 94.6028 51.229C94.7581 51.1979 94.9133 51.1979 95.0686 51.1979C95.1928 51.1979 95.348 51.1979 95.5343 51.1979C95.7206 51.1979 95.9379 51.229 96.1863 51.2911C96.4347 51.3532 96.683 51.4463 96.9314 51.5705C97.1798 51.6947 97.4592 51.912 97.7076 52.1604C97.956 52.4398 98.1733 52.6882 98.2975 52.9677C98.4528 53.2471 98.5459 53.5265 98.608 53.7749C98.6701 54.0543 98.7322 54.3027 98.7322 54.52C98.7633 54.7374 98.7633 54.9547 98.7633 55.11C98.7633 55.5446 98.6701 55.9793 98.5149 56.3519C98.3596 56.7244 98.1113 57.066 97.8008 57.3454C97.4903 57.6248 97.1488 57.8422 96.7451 57.9974C96.3415 58.1526 95.9069 58.2458 95.4411 58.2458C95.2548 58.2458 95.0996 58.2458 95.0375 58.2768C94.9754 58.3079 94.9133 58.3389 94.9133 58.4321C94.9133 58.4942 94.9444 58.5252 94.9754 58.5252C95.0065 58.5563 95.0686 58.5563 95.1307 58.5563C95.1927 58.5563 95.2548 58.5873 95.348 58.5873C95.4411 58.5873 95.5032 58.5873 95.5653 58.5873C96.2484 58.5873 96.9004 58.4631 97.4592 58.2458C98.0492 58.0285 98.5459 57.718 98.9495 57.3144C99.3842 56.9107 99.6947 56.414 99.9431 55.8551C100.191 55.2962 100.285 54.6753 100.316 53.9922C100.316 53.6507 100.254 53.3402 100.16 53.0298C100.067 52.7193 99.9431 52.4709 99.7878 52.2536C99.6326 52.0362 99.4774 51.8499 99.3532 51.6947C99.2911 51.6326 99.1669 51.5084 99.0116 51.3842C98.8564 51.26 98.6391 51.1358 98.3596 51.0116C98.0802 50.8875 97.7387 50.7943 97.304 50.7012C96.8693 50.608 96.3726 50.577 95.7827 50.577C95.5653 50.577 95.3169 50.577 95.0996 50.577C94.8512 50.577 94.6339 50.577 94.4166 50.608C94.1992 50.608 93.9819 50.608 93.7956 50.6391C93.6093 50.6391 93.4851 50.6391 93.3609 50.6391C93.3299 50.6391 93.2367 50.6391 93.0815 50.6391C92.9263 50.6391 92.74 50.6391 92.5537 50.608C92.3363 50.608 92.119 50.577 91.8706 50.577C91.6222 50.577 91.4049 50.577 91.1876 50.577C91.0944 50.577 91.0013 50.577 90.9392 50.608C90.8771 50.6391 90.8771 50.6701 90.8771 50.7322C90.8771 50.7633 90.9081 50.7943 90.9392 50.8254C90.9702 50.8564 91.0013 50.8564 91.0323 50.8564C91.0944 50.8564 91.1565 50.8564 91.2497 50.8564C91.3428 50.8564 91.4049 50.8564 91.4981 50.8874C91.5912 50.8874 91.6533 50.9185 91.6843 50.9185C91.9017 50.9495 92.0569 51.0427 92.1811 51.1048C92.3053 51.1979 92.3674 51.3221 92.4295 51.4463C92.4916 51.6015 92.5226 51.7878 92.5226 52.0052C92.5226 52.1294 92.5226 52.2536 92.5537 52.3778C92.5537 52.5019 92.5537 52.6882 92.5537 52.8745C92.5537 53.0608 92.5537 53.3092 92.5537 53.5886C92.5537 53.868 92.5537 54.2096 92.5537 54.6442C92.5537 55.0789 92.5537 55.5757 92.5537 56.1656V59.5809H92.4916ZM104.569 59.5809C104.569 60.2018 104.569 60.7607 104.569 61.3195C104.569 61.8473 104.569 62.3131 104.538 62.7477C104.538 63.1514 104.507 63.4929 104.476 63.7723C104.445 63.9586 104.414 64.1449 104.383 64.2691C104.352 64.4243 104.29 64.5485 104.228 64.6417C104.166 64.7348 104.072 64.7969 103.917 64.8279C103.824 64.859 103.731 64.859 103.638 64.89C103.545 64.89 103.451 64.9211 103.358 64.9211C103.296 64.9211 103.265 64.9211 103.234 64.9521C103.203 64.9832 103.203 65.0142 103.203 65.0453C103.203 65.1074 103.234 65.1384 103.265 65.1695C103.327 65.2005 103.389 65.2005 103.514 65.2005C103.669 65.2005 103.824 65.2005 104.041 65.1695C104.228 65.1695 104.445 65.1384 104.631 65.1384C104.849 65.1384 105.004 65.1074 105.159 65.1074C105.314 65.1074 105.376 65.1074 105.408 65.1074C105.563 65.1074 105.749 65.1074 105.997 65.1074C106.246 65.1074 106.556 65.1384 106.929 65.1384C107.301 65.1384 107.767 65.1695 108.295 65.1695C108.823 65.1695 109.475 65.2005 110.189 65.2005C110.437 65.2005 110.624 65.2005 110.779 65.1695C110.903 65.1384 111.027 65.1074 111.089 65.0453C111.151 64.9832 111.213 64.859 111.244 64.7038C111.276 64.6106 111.276 64.5175 111.307 64.3622C111.338 64.207 111.338 64.0828 111.369 63.8965C111.4 63.7413 111.4 63.586 111.431 63.4308C111.462 63.2755 111.462 63.1514 111.462 63.0272C111.462 62.903 111.493 62.8409 111.493 62.8098C111.493 62.7477 111.493 62.6856 111.493 62.6235C111.493 62.5614 111.431 62.5304 111.4 62.5304C111.338 62.5304 111.307 62.5614 111.276 62.5925C111.244 62.6235 111.244 62.7167 111.213 62.8098C111.151 63.2135 111.058 63.4929 110.903 63.7102C110.779 63.9276 110.592 64.0828 110.344 64.1759C110.189 64.238 109.972 64.3001 109.754 64.3312C109.537 64.3622 109.32 64.3933 109.102 64.3933C108.885 64.3933 108.668 64.3933 108.512 64.3933C108.047 64.3933 107.674 64.3622 107.364 64.3312C107.084 64.3001 106.836 64.207 106.68 64.1138C106.525 63.9896 106.432 63.8344 106.37 63.6481C106.308 63.4308 106.277 63.1824 106.246 62.8409C106.246 62.7477 106.246 62.6235 106.246 62.4062C106.246 62.1889 106.246 61.9715 106.246 61.6921C106.246 61.4127 106.246 61.1643 106.246 60.8849C106.246 60.6054 106.246 60.357 106.246 60.1087C106.246 59.8603 106.246 59.674 106.246 59.5498V57.8422C106.246 57.8111 106.246 57.7801 106.277 57.749C106.308 57.718 106.339 57.718 106.37 57.718C106.432 57.718 106.556 57.718 106.743 57.718C106.898 57.718 107.115 57.718 107.332 57.718C107.55 57.718 107.798 57.718 108.016 57.749C108.264 57.749 108.481 57.7801 108.668 57.7801C108.854 57.7801 109.009 57.8111 109.133 57.8111C109.382 57.8422 109.568 57.8732 109.723 57.9664C109.847 58.0285 109.972 58.1216 110.034 58.2147C110.096 58.3079 110.127 58.401 110.158 58.4942C110.189 58.6184 110.22 58.7426 110.22 58.8357C110.22 58.9288 110.22 59.022 110.22 59.1462C110.22 59.2083 110.22 59.2393 110.251 59.2704C110.282 59.3014 110.313 59.3325 110.344 59.3325C110.375 59.3325 110.406 59.3014 110.437 59.2704C110.468 59.2393 110.468 59.1772 110.468 59.1151C110.468 59.053 110.468 58.9909 110.468 58.9599C110.468 58.9288 110.468 58.8668 110.468 58.7736C110.468 58.6805 110.468 58.5563 110.499 58.4321C110.499 58.3079 110.499 58.1837 110.53 58.0595C110.53 57.9353 110.561 57.8111 110.561 57.718C110.592 57.4075 110.624 57.1591 110.655 56.9728C110.686 56.7865 110.717 56.6934 110.717 56.6313C110.717 56.5692 110.717 56.5382 110.686 56.5071C110.655 56.4761 110.655 56.4761 110.624 56.4761C110.592 56.4761 110.561 56.5071 110.499 56.5382C110.468 56.5692 110.406 56.6313 110.344 56.7244C110.251 56.8176 110.158 56.8797 110.003 56.9107C109.847 56.9418 109.661 56.9728 109.444 56.9728C109.382 56.9728 109.257 56.9728 109.071 57.0039C108.916 57.0039 108.73 57.0039 108.512 57.0039C108.295 57.0039 108.078 57.0039 107.86 57.0039C107.643 57.0039 107.426 57.0039 107.208 57.0039C106.991 57.0039 106.836 57.0039 106.68 57.0039C106.525 57.0039 106.432 57.0039 106.401 57.0039C106.339 57.0039 106.339 56.9728 106.308 56.9728C106.277 56.9418 106.277 56.8797 106.277 56.8176V51.5395C106.277 51.4774 106.277 51.4153 106.308 51.3842C106.339 51.3532 106.37 51.3532 106.401 51.3532C106.463 51.3532 106.556 51.3532 106.712 51.3532C106.867 51.3532 107.084 51.3532 107.301 51.3532C107.519 51.3532 107.767 51.3532 108.016 51.3532C108.264 51.3532 108.45 51.3532 108.636 51.3842C108.823 51.3842 108.947 51.3842 109.009 51.4153C109.351 51.4463 109.599 51.5084 109.785 51.5705C109.972 51.6326 110.096 51.6947 110.189 51.7878C110.282 51.881 110.344 51.9741 110.375 52.0673C110.406 52.1294 110.437 52.2225 110.437 52.3157C110.468 52.4088 110.468 52.5019 110.468 52.564C110.468 52.6572 110.468 52.7193 110.468 52.7503C110.468 52.8124 110.468 52.8745 110.499 52.9366C110.53 52.9677 110.561 52.9987 110.624 52.9987C110.655 52.9987 110.686 52.9677 110.717 52.9366C110.748 52.9056 110.748 52.8435 110.748 52.7814C110.748 52.7193 110.779 52.6261 110.779 52.5019C110.779 52.3777 110.81 52.2536 110.81 52.1294C110.81 52.0052 110.841 51.881 110.841 51.7568C110.841 51.6326 110.872 51.5705 110.872 51.5084C110.903 51.229 110.934 51.0427 110.965 50.9185C110.996 50.7943 111.027 50.6701 111.027 50.608C111.027 50.5459 111.027 50.5149 110.996 50.4838C110.996 50.4528 110.965 50.4217 110.934 50.4217C110.872 50.4217 110.841 50.4528 110.81 50.4528C110.779 50.4838 110.717 50.4838 110.686 50.5149C110.592 50.5459 110.499 50.5459 110.344 50.577C110.189 50.608 110.034 50.608 109.847 50.608C109.785 50.608 109.661 50.608 109.475 50.608C109.288 50.608 109.071 50.608 108.792 50.608C108.543 50.608 108.264 50.608 107.953 50.608C107.643 50.608 107.364 50.608 107.084 50.608C106.805 50.608 106.525 50.608 106.277 50.608C106.028 50.608 105.842 50.608 105.687 50.608C105.532 50.608 105.439 50.608 105.408 50.608L104.631 50.577C104.414 50.577 104.197 50.5459 103.948 50.5459C103.7 50.5459 103.483 50.5459 103.234 50.5459C103.141 50.5459 103.048 50.5459 102.986 50.577C102.924 50.608 102.924 50.6391 102.924 50.7012C102.924 50.7322 102.955 50.7633 102.986 50.7943C103.017 50.8254 103.048 50.8254 103.079 50.8254C103.141 50.8254 103.203 50.8254 103.296 50.8254C103.389 50.8254 103.451 50.8254 103.545 50.8564C103.638 50.8564 103.7 50.8874 103.731 50.8874C103.948 50.9185 104.103 51.0116 104.228 51.0737C104.352 51.1669 104.414 51.2911 104.476 51.4153C104.538 51.5705 104.569 51.7568 104.569 51.9741C104.569 52.0983 104.569 52.2225 104.6 52.3467C104.6 52.4709 104.6 52.6572 104.6 52.8124C104.6 52.9987 104.6 53.2471 104.6 53.5265C104.6 53.8059 104.6 54.1475 104.6 54.5821C104.6 55.0168 104.6 55.5136 104.6 56.1035V59.5809H104.569Z" fill="black"></path>
    <path d="M28.0362 71.8448C28.0983 71.8448 28.1915 71.8448 28.2536 71.8137C28.3157 71.7827 28.3777 71.7827 28.4398 71.7206C28.4709 71.6895 28.533 71.6585 28.564 71.5964C28.5951 71.5653 28.6261 71.5032 28.6261 71.4722C28.6572 71.4411 28.6572 71.379 28.6572 71.348C28.6572 71.3169 28.6572 71.2859 28.6572 71.2549C28.6572 71.1928 28.6572 71.1617 28.6261 71.0996C28.6261 71.0375 28.5951 71.0065 28.564 70.9444C28.533 70.8823 28.5019 70.8512 28.4398 70.7891C28.3777 70.727 28.3157 70.6649 28.2536 70.6028L28.1915 70.5407C28.1294 70.4786 28.0673 70.4476 28.0362 70.4166C28.0052 70.4166 27.9741 70.3855 27.9431 70.3545C27.912 70.3234 27.912 70.2924 27.881 70.2613C27.881 70.2303 27.8499 70.1992 27.881 70.1682C27.881 70.1061 27.881 70.044 27.912 70.0129C27.9431 69.9198 28.0052 69.8887 28.0362 69.8577C28.0983 69.8266 28.1294 69.8266 28.1915 69.8266C28.2536 69.8266 28.3157 69.8266 28.3467 69.8577C28.3777 69.8577 28.4088 69.8887 28.4398 69.8887C28.4709 69.9198 28.4709 69.9198 28.5019 69.9508L28.533 69.9819C28.533 69.9819 28.533 70.0129 28.564 70.0129C28.564 70.044 28.564 70.044 28.564 70.075C28.564 70.1061 28.564 70.1061 28.564 70.1061V70.1371C28.564 70.1371 28.564 70.1371 28.5951 70.1371C28.5951 70.1371 28.5951 70.1061 28.5951 70.075C28.5951 69.9819 28.5951 69.9198 28.5951 69.8577C28.5951 69.8266 28.5951 69.7956 28.5951 69.7956C28.5951 69.7956 28.5951 69.7956 28.5951 69.7645C28.5951 69.7645 28.5951 69.7645 28.564 69.7645H28.533C28.533 69.7645 28.5019 69.7645 28.4709 69.7645C28.4398 69.7645 28.4088 69.7645 28.3467 69.7335C28.3157 69.7335 28.2536 69.7335 28.2225 69.7335C28.0983 69.7335 28.0052 69.7645 27.912 69.7956C27.8189 69.8266 27.7568 69.8887 27.7257 69.9508C27.6947 70.0129 27.6636 70.1061 27.6636 70.1992C27.6636 70.2303 27.6636 70.2924 27.6636 70.3234C27.6636 70.3545 27.6947 70.4166 27.7257 70.4476C27.7568 70.4787 27.7878 70.5407 27.8189 70.6028C27.8499 70.6649 27.912 70.696 28.0052 70.7581L28.1294 70.8512C28.1915 70.9133 28.2225 70.9444 28.2846 70.9754C28.3157 71.0065 28.3467 71.0686 28.3777 71.0996C28.4088 71.1307 28.4088 71.1617 28.4398 71.2238C28.4398 71.2549 28.4709 71.3169 28.4709 71.348C28.4709 71.379 28.4709 71.4411 28.4398 71.4722C28.4088 71.5032 28.4088 71.5653 28.3777 71.5964C28.3467 71.6274 28.3157 71.6585 28.2536 71.6895C28.1915 71.7206 28.1604 71.7206 28.0983 71.7206C28.0673 71.7206 28.0052 71.7206 27.9741 71.6895C27.9431 71.6895 27.881 71.6585 27.8499 71.6274C27.8189 71.5964 27.7878 71.5653 27.7568 71.5343C27.7257 71.5032 27.7257 71.4722 27.6947 71.4101C27.6947 71.379 27.6947 71.379 27.6947 71.348C27.6947 71.3169 27.6947 71.3169 27.6947 71.3169V71.2859C27.6947 71.2859 27.6947 71.2859 27.6636 71.2859V71.3169C27.6636 71.348 27.6636 71.348 27.6636 71.379C27.6636 71.4101 27.6636 71.4411 27.6636 71.4722C27.6636 71.5032 27.6636 71.5653 27.6636 71.5964C27.6636 71.6274 27.6636 71.6274 27.6636 71.6585V71.6895C27.6636 71.6895 27.6636 71.6895 27.6947 71.7206C27.7568 71.7516 27.8189 71.7516 27.881 71.7827C27.912 71.8448 27.9741 71.8448 28.0362 71.8448ZM31.6688 70.5718C31.6688 70.4787 31.6688 70.4166 31.6688 70.3545C31.6688 70.2924 31.6688 70.2303 31.6688 70.1992C31.6688 70.1682 31.6688 70.1371 31.6688 70.1061C31.6688 70.075 31.6688 70.044 31.6688 70.044C31.6688 70.0129 31.6688 70.0129 31.6688 69.9819C31.6688 69.9508 31.6688 69.9198 31.6688 69.8887C31.6688 69.8577 31.6999 69.8577 31.6999 69.8266C31.6999 69.8266 31.7309 69.7956 31.762 69.7956C31.793 69.7956 31.793 69.7956 31.8241 69.7956C31.8551 69.7956 31.8551 69.7956 31.8551 69.7956C31.8551 69.7956 31.8551 69.7956 31.8862 69.7956C31.8862 69.7956 31.8862 69.7956 31.8862 69.7645H31.8551C31.8551 69.7645 31.8241 69.7645 31.793 69.7645C31.762 69.7645 31.7309 69.7645 31.7309 69.7645C31.6999 69.7645 31.6688 69.7645 31.6688 69.7645C31.6378 69.7645 31.6378 69.7645 31.6067 69.7645C31.5757 69.7645 31.5757 69.7645 31.5757 69.7645H31.5446C31.5136 69.7645 31.5136 69.7645 31.4825 69.7645C31.4515 69.7645 31.4204 69.7645 31.3894 69.7645C31.3583 69.7645 31.3273 69.7645 31.2962 69.7645C31.2652 69.7645 31.2652 69.7645 31.2652 69.7645C31.2652 69.7645 31.2652 69.7645 31.2652 69.7956C31.2652 69.7956 31.2652 69.7956 31.2962 69.7956C31.3273 69.7956 31.3273 69.7956 31.3273 69.7956H31.3894C31.4204 69.7956 31.4515 69.8266 31.4515 69.8266C31.4825 69.8266 31.4825 69.8577 31.4825 69.8887C31.4825 69.9198 31.4825 69.9198 31.4825 69.9508C31.4825 69.9819 31.4825 69.9819 31.4825 70.0129C31.4825 70.044 31.4825 70.044 31.4825 70.075C31.4825 70.1061 31.4825 70.1371 31.4825 70.1682C31.4825 70.1992 31.4825 70.2613 31.4825 70.3234C31.4825 70.3855 31.4825 70.4476 31.4825 70.5407V71.0065C31.4825 71.0996 31.4825 71.1617 31.4825 71.2549C31.4825 71.3169 31.4825 71.4101 31.4825 71.4411C31.4825 71.5032 31.4825 71.5343 31.4825 71.5964C31.4825 71.6274 31.4825 71.6585 31.4825 71.6585C31.4825 71.6585 31.4825 71.6895 31.4515 71.7206L31.4204 71.7516H31.3583C31.3583 71.7516 31.3583 71.7516 31.3273 71.7516C31.3273 71.7516 31.3273 71.7516 31.3273 71.7827H31.3583C31.3894 71.7827 31.3894 71.7827 31.4204 71.7827C31.4515 71.7827 31.4825 71.7827 31.5136 71.7827C31.5446 71.7827 31.5757 71.7827 31.5757 71.7827C31.6067 71.7827 31.6067 71.7827 31.6067 71.7827C31.6378 71.7827 31.6999 71.7827 31.7309 71.7827C31.762 71.7827 31.8241 71.7827 31.8862 71.7827C31.9483 71.7827 32.0103 71.7827 32.0724 71.7827C32.1345 71.7827 32.2277 71.7827 32.3208 71.7827C32.3519 71.7827 32.3829 71.7827 32.414 71.7827C32.445 71.7827 32.445 71.7827 32.4761 71.7827C32.4761 71.7827 32.5071 71.7827 32.5071 71.7516C32.5071 71.7516 32.5071 71.7206 32.5382 71.7206C32.5382 71.6895 32.5382 71.6895 32.5382 71.6585C32.5382 71.6274 32.5382 71.5964 32.5382 71.5653C32.5382 71.5343 32.5382 71.5032 32.5382 71.5032C32.5382 71.4722 32.5382 71.4722 32.5382 71.4722C32.5382 71.4411 32.5382 71.4411 32.5382 71.4411C32.5382 71.4411 32.5382 71.4411 32.5071 71.4411V71.4722C32.5071 71.5032 32.5071 71.5032 32.5071 71.5343C32.5071 71.5653 32.4761 71.5653 32.4761 71.5964C32.4761 71.6274 32.445 71.6274 32.445 71.6585C32.414 71.6895 32.3829 71.6895 32.3519 71.7206C32.3208 71.7206 32.2898 71.7516 32.2277 71.7516C32.1966 71.7516 32.1345 71.7516 32.1035 71.7516C32.0414 71.7516 31.9793 71.7516 31.9483 71.7516C31.9172 71.7516 31.8862 71.7516 31.8551 71.7206C31.8241 71.7206 31.8241 71.6895 31.793 71.6895C31.762 71.6895 31.762 71.6585 31.762 71.5964C31.762 71.5343 31.7309 71.4722 31.7309 71.4101C31.7309 71.3169 31.7309 71.2238 31.7309 71.0996V70.5718H31.6688ZM34.7426 70.7891C34.7426 70.8823 34.7426 70.9444 34.7736 71.0375C34.8047 71.1307 34.8047 71.1927 34.8667 71.2859C34.8978 71.379 34.9599 71.4411 34.9909 71.5032C35.053 71.5653 35.1151 71.6274 35.1772 71.6895C35.2393 71.7516 35.3325 71.7827 35.4567 71.8137C35.5498 71.8448 35.674 71.8448 35.7982 71.8448C35.9224 71.8448 36.0466 71.8137 36.1708 71.7827C36.295 71.7516 36.3881 71.6895 36.4812 71.6274C36.5744 71.5653 36.6365 71.4722 36.6986 71.379C36.7607 71.2859 36.8228 71.1927 36.8538 71.0686C36.8849 70.9444 36.9159 70.8512 36.9159 70.727C36.9159 70.6028 36.8849 70.4787 36.8538 70.3855C36.8228 70.2924 36.7607 70.1992 36.6986 70.1061C36.6365 70.0129 36.5744 69.9508 36.4812 69.8887C36.3881 69.8266 36.295 69.7956 36.2018 69.7645C36.1087 69.7335 35.9845 69.7335 35.8603 69.7335C35.7361 69.7335 35.6119 69.7645 35.5188 69.7956C35.4256 69.8266 35.3325 69.8577 35.2393 69.9198C35.1462 69.9819 35.0841 70.044 35.022 70.1061C34.9599 70.1682 34.9288 70.2613 34.8667 70.3234C34.8357 70.4166 34.8047 70.4787 34.7736 70.5718C34.7426 70.6339 34.7426 70.727 34.7426 70.7891ZM34.9909 70.727C34.9909 70.5718 35.022 70.4476 35.053 70.3545C35.0841 70.2303 35.1462 70.1371 35.2083 70.075C35.2704 70.0129 35.3635 69.9508 35.4567 69.9198C35.5498 69.8887 35.6429 69.8577 35.7671 69.8577C35.8603 69.8577 35.9224 69.8577 36.0155 69.8887C36.1087 69.9198 36.1708 69.9508 36.2329 70.0129C36.295 70.075 36.357 70.1371 36.4191 70.1992C36.4812 70.2924 36.5123 70.3855 36.5433 70.4787C36.5744 70.5718 36.5744 70.696 36.5744 70.8202C36.5744 70.9444 36.5744 71.0686 36.5433 71.1617C36.5123 71.2548 36.4812 71.348 36.4502 71.4101C36.4191 71.4722 36.357 71.5343 36.295 71.5653C36.2329 71.5964 36.2018 71.6274 36.1397 71.6585C36.0776 71.6895 36.0155 71.6895 35.9845 71.7206C35.9224 71.7206 35.8913 71.7206 35.8603 71.7206C35.7361 71.7206 35.6119 71.6895 35.5188 71.6585C35.4256 71.5964 35.3325 71.5343 35.2393 71.4411C35.1462 71.348 35.0841 71.2548 35.053 71.1307C35.022 71.0065 34.9909 70.8823 34.9909 70.727ZM40.859 71.5964C40.859 71.6274 40.859 71.6274 40.859 71.6585C40.859 71.6895 40.8279 71.6895 40.8279 71.6895C40.7969 71.6895 40.7658 71.7206 40.7348 71.7206C40.7038 71.7206 40.6727 71.7206 40.6106 71.7516C40.5796 71.7516 40.5485 71.7516 40.5175 71.7516C40.4243 71.7516 40.3622 71.7516 40.2691 71.7206C40.1759 71.6895 40.1138 71.6585 40.0207 71.6274C39.9586 71.5964 39.8655 71.5343 39.8034 71.4722C39.7723 71.4411 39.7723 71.4411 39.7413 71.4101C39.7102 71.379 39.6792 71.348 39.6792 71.2859C39.6481 71.2548 39.6171 71.1927 39.6171 71.1307C39.586 71.0686 39.586 71.0065 39.555 70.9444C39.555 70.8823 39.5239 70.8202 39.5239 70.727C39.5239 70.6339 39.5239 70.5407 39.555 70.4476C39.586 70.3545 39.6171 70.2924 39.6481 70.2303C39.6792 70.1682 39.7413 70.1061 39.7723 70.075C39.8344 70.044 39.8655 70.0129 39.9276 69.9819C39.9896 69.9508 40.0207 69.9508 40.0828 69.9198C40.1449 69.9198 40.1759 69.8887 40.238 69.8887C40.2691 69.8887 40.3312 69.8887 40.3622 69.8887C40.4554 69.8887 40.5175 69.8887 40.6106 69.9198C40.6727 69.9198 40.7348 69.9508 40.7969 69.9819C40.859 70.0129 40.89 70.0129 40.9211 70.044C40.9521 70.075 40.9832 70.1061 41.0142 70.1061C41.0142 70.1371 41.0453 70.1371 41.0453 70.1682C41.0453 70.1992 41.0453 70.1992 41.0763 70.2303C41.0763 70.2613 41.0763 70.2613 41.0763 70.2924V70.3234H41.1074V70.2924C41.1074 70.2303 41.1074 70.1682 41.1074 70.1371C41.1074 70.1061 41.1074 70.044 41.1074 70.0129C41.1074 69.9819 41.1074 69.9508 41.1074 69.9508C41.1074 69.9198 41.1074 69.9198 41.1074 69.9198C41.1074 69.9198 41.1074 69.9198 41.1074 69.8887C41.1074 69.8887 41.1074 69.8887 41.0763 69.8887C41.0453 69.8887 41.0142 69.8887 41.0142 69.8887C40.9832 69.8887 40.9521 69.8887 40.9521 69.8887C40.9211 69.8887 40.89 69.8887 40.89 69.8887C40.89 69.8887 40.859 69.8887 40.8279 69.8887C40.7969 69.8887 40.7658 69.8887 40.7348 69.8577C40.7038 69.8577 40.6417 69.8577 40.6106 69.8577C40.5796 69.8577 40.5175 69.8577 40.4864 69.8577C40.4243 69.8577 40.3312 69.8577 40.2691 69.8577C40.1759 69.8577 40.1138 69.8887 40.0207 69.9198C39.9276 69.9508 39.8655 69.9819 39.7723 70.044C39.7102 70.075 39.6481 70.1371 39.586 70.1992C39.5239 70.2613 39.4929 70.3234 39.4308 70.3855C39.3997 70.4476 39.3687 70.5407 39.3376 70.6339C39.3066 70.727 39.3066 70.8202 39.3066 70.9444C39.3066 71.0375 39.3066 71.0996 39.3376 71.1928C39.3687 71.2549 39.3687 71.348 39.3997 71.4101C39.4308 71.4722 39.4618 71.5343 39.4929 71.5964C39.5239 71.6585 39.586 71.6895 39.6171 71.7206C39.6792 71.7827 39.7723 71.8448 39.8655 71.8758C39.9586 71.9069 40.0207 71.9379 40.1138 71.9689C40.207 72 40.2691 72 40.3312 72C40.3933 72 40.4554 72 40.5175 72C40.5485 72 40.6106 72 40.6417 72C40.7038 72 40.7348 72 40.7969 71.9689C40.859 71.9689 40.89 71.9379 40.9521 71.9379C41.0142 71.9379 41.0453 71.9069 41.1074 71.8758C41.1074 71.8758 41.1074 71.8758 41.1384 71.8758C41.1384 71.8758 41.1384 71.8758 41.1384 71.8448V71.8137C41.1384 71.7827 41.1384 71.7827 41.1384 71.7516V71.4411C41.1384 71.4101 41.1384 71.379 41.1384 71.348C41.1384 71.3169 41.1384 71.2859 41.1384 71.2549C41.1384 71.2238 41.1384 71.1927 41.1384 71.1617C41.1384 71.0996 41.1384 71.0686 41.1695 71.0686C41.2005 71.0375 41.2005 71.0375 41.2316 71.0065C41.2626 71.0065 41.2626 71.0065 41.2626 71.0065H41.2937C41.2937 71.0065 41.2937 71.0065 41.3247 71.0065C41.3247 71.0065 41.3247 71.0065 41.3247 70.9754H41.2937C41.2626 70.9754 41.2626 70.9754 41.2316 70.9754C41.2005 70.9754 41.1695 70.9754 41.1384 70.9754C41.1074 70.9754 41.0763 70.9754 41.0763 70.9754C41.0453 70.9754 41.0453 70.9754 41.0453 70.9754H41.0142C40.9832 70.9754 40.9832 70.9754 40.9521 70.9754C40.9211 70.9754 40.89 70.9754 40.859 70.9754C40.8279 70.9754 40.7969 70.9754 40.7658 70.9754H40.7348C40.7348 70.9754 40.7348 70.9754 40.7348 71.0065C40.7348 71.0065 40.7348 71.0065 40.7658 71.0065H40.859C40.89 71.0065 40.9211 71.0375 40.9211 71.0375C40.9521 71.0375 40.9521 71.0686 40.9521 71.0686C40.9521 71.0996 40.9521 71.0996 40.9832 71.1617C40.9832 71.1927 40.9832 71.2238 40.9832 71.2859V71.5964H40.859ZM43.7154 71.5032C43.6843 71.5343 43.6843 71.5964 43.6533 71.6274C43.6222 71.6585 43.6222 71.6895 43.5912 71.7206C43.5602 71.7516 43.5291 71.7516 43.4981 71.7516H43.467C43.436 71.7516 43.436 71.7516 43.436 71.7516C43.436 71.7516 43.436 71.7516 43.4049 71.7516C43.4049 71.7516 43.4049 71.7516 43.4049 71.7827H43.436C43.467 71.7827 43.4981 71.7827 43.5291 71.7827C43.5602 71.7827 43.5912 71.7827 43.6222 71.7827C43.6533 71.7827 43.6843 71.7827 43.6843 71.7827C43.7154 71.7827 43.7154 71.7827 43.7154 71.7827H43.7464C43.7775 71.7827 43.7775 71.7827 43.8085 71.7827C43.8396 71.7827 43.8396 71.7827 43.8706 71.7827C43.9017 71.7827 43.9017 71.7827 43.9327 71.7827H43.9638C43.9638 71.7827 43.9638 71.7827 43.9638 71.7516C43.9638 71.7516 43.9638 71.7516 43.9327 71.7516H43.9017C43.8706 71.7516 43.8706 71.7516 43.8396 71.7516C43.8396 71.7516 43.8085 71.7516 43.8085 71.7206L43.7775 71.6895C43.7775 71.6585 43.7775 71.6274 43.7775 71.5964C43.7775 71.5653 43.7775 71.5343 43.8085 71.5032L43.9638 71.0375C43.9638 71.0375 43.9638 71.0375 43.9638 71.0065C43.9638 71.0065 43.9638 71.0065 43.9948 71.0065H44.5847L44.8331 71.6585C44.8331 71.6895 44.8331 71.6895 44.8331 71.7206C44.8331 71.7206 44.8331 71.7516 44.8021 71.7516C44.8021 71.7516 44.8021 71.7516 44.8331 71.7516C44.8331 71.7516 44.8642 71.7516 44.8952 71.7516C44.9573 71.7516 44.9884 71.7516 45.0194 71.7516C45.0504 71.7516 45.1125 71.7516 45.1436 71.7516C45.1746 71.7516 45.2057 71.7516 45.2367 71.7516C45.2678 71.7516 45.2678 71.7516 45.2988 71.7516C45.3299 71.7516 45.3299 71.7516 45.3299 71.7516C45.3299 71.7516 45.3609 71.7516 45.3609 71.7206C45.3609 71.7206 45.3609 71.7206 45.3299 71.7206C45.3299 71.7206 45.2988 71.7206 45.2678 71.7206C45.2367 71.7206 45.2367 71.7206 45.2057 71.7206C45.2057 71.7206 45.1746 71.7206 45.1746 71.6895C45.1436 71.6895 45.1436 71.6585 45.1125 71.6585C45.0815 71.6274 45.0815 71.5964 45.0505 71.5653C45.0194 71.5343 45.0194 71.4722 44.9884 71.4101C44.9573 71.348 44.9573 71.2859 44.9263 71.2238C44.8952 71.1617 44.8642 71.0686 44.8331 71.0065C44.8021 70.9133 44.771 70.8512 44.74 70.7581C44.7089 70.6649 44.6779 70.5718 44.6468 70.5097C44.6158 70.4165 44.5847 70.3545 44.5537 70.2613C44.5226 70.1992 44.4916 70.1061 44.4605 70.044C44.4295 69.9819 44.4295 69.9198 44.3984 69.8887C44.3674 69.8577 44.3674 69.8266 44.3674 69.7956C44.3674 69.7645 44.3363 69.7335 44.3363 69.7335C44.3363 69.7335 44.3363 69.7025 44.3053 69.7025C44.3053 69.7025 44.3053 69.7025 44.2743 69.7025C44.2743 69.7025 44.2743 69.7335 44.2432 69.7335C44.2432 69.7335 44.2432 69.7645 44.2122 69.7956L43.7154 71.5032ZM44.088 70.9133L44.3053 70.1682C44.3053 70.1371 44.3363 70.1371 44.3363 70.1682L44.5847 70.8823H44.088V70.9133ZM47.9379 70.1682C47.9689 70.1992 48 70.2303 48.031 70.2924C48.0621 70.3545 48.1242 70.4166 48.1863 70.4787C48.2484 70.5407 48.3105 70.6339 48.4036 70.696C48.4657 70.7891 48.5589 70.8512 48.621 70.9444C48.6831 71.0065 48.7451 71.0686 48.8072 71.1307C48.8693 71.1927 48.9314 71.2548 48.9935 71.3169C49.0556 71.379 49.1177 71.4411 49.1488 71.4722C49.2109 71.5343 49.2419 71.5653 49.273 71.5964C49.304 71.6274 49.3351 71.6585 49.3351 71.6585C49.3972 71.7206 49.4282 71.7516 49.4592 71.7827C49.4903 71.8137 49.5213 71.8137 49.5213 71.8448H49.5524C49.5524 71.8448 49.5524 71.8448 49.5524 71.8137C49.5524 71.8137 49.5524 71.7827 49.5524 71.7516C49.5524 71.7206 49.5524 71.6895 49.5524 71.6585V70.075C49.5524 70.0129 49.5524 69.9819 49.5524 69.9508C49.5524 69.9198 49.5524 69.8887 49.5834 69.8887C49.6145 69.8577 49.6145 69.8577 49.6455 69.8577C49.6766 69.8577 49.6766 69.8577 49.6766 69.8577H49.7387C49.7387 69.8577 49.7387 69.8577 49.7387 69.8266H49.7076C49.6766 69.8266 49.6455 69.8266 49.6145 69.8266C49.5834 69.8266 49.5524 69.8266 49.5524 69.8266C49.5213 69.8266 49.5213 69.8266 49.4903 69.8266C49.4903 69.8266 49.4592 69.8266 49.4282 69.8266C49.3972 69.8266 49.3661 69.8266 49.3351 69.8266C49.304 69.8266 49.273 69.8266 49.2109 69.8266C49.1798 69.8266 49.1798 69.8266 49.1798 69.8266C49.1798 69.8266 49.1798 69.8266 49.1798 69.8577C49.1798 69.8577 49.1798 69.8577 49.2109 69.8577H49.2419C49.2419 69.8577 49.273 69.8577 49.304 69.8577C49.3351 69.8577 49.3351 69.8577 49.3661 69.8577C49.3972 69.8577 49.4282 69.8887 49.4282 69.8887C49.4592 69.9198 49.4592 69.9198 49.4592 69.9819C49.4592 70.0129 49.4592 70.075 49.4592 70.1371L49.4903 71.5032C49.4592 71.4722 49.4282 71.4411 49.3972 71.4101C49.3661 71.348 49.304 71.3169 49.2419 71.2238C49.1798 71.1617 49.1177 71.0996 49.0556 71.0065C48.9935 70.9444 48.9314 70.8512 48.8383 70.7891C48.7451 70.696 48.683 70.6028 48.5899 70.5407C48.4968 70.4476 48.4347 70.3855 48.3726 70.2924C48.3105 70.2303 48.2484 70.1371 48.1863 70.075C48.1242 70.0129 48.0931 69.9819 48.0621 69.9198C48.031 69.8887 48 69.8577 48 69.8577L47.9069 69.7645C47.9069 69.7645 47.9069 69.7645 47.8758 69.7645V69.7956C47.8758 69.8266 47.8758 69.8577 47.8758 69.8887V71.4411C47.8758 71.5343 47.8758 71.5964 47.8758 71.6274C47.8758 71.6895 47.8758 71.7206 47.8448 71.7206C47.8448 71.7516 47.8137 71.7516 47.7827 71.7516C47.7516 71.7516 47.7516 71.7516 47.7206 71.7516C47.6895 71.7516 47.6895 71.7516 47.6585 71.7516C47.6585 71.7516 47.6585 71.7516 47.6274 71.7516V71.7827H47.6585C47.6895 71.7827 47.7516 71.7827 47.7827 71.7827C47.8137 71.7827 47.8448 71.7827 47.8758 71.7827C47.9069 71.7827 47.9069 71.7827 47.9379 71.7827C47.9379 71.7827 47.9689 71.7827 48 71.7827C48.031 71.7827 48.0621 71.7827 48.0931 71.7827C48.1242 71.7827 48.1863 71.7827 48.2173 71.7827C48.2484 71.7827 48.2484 71.7827 48.2484 71.7827C48.2484 71.7827 48.2484 71.7827 48.2484 71.7516C48.2484 71.7516 48.2484 71.7516 48.2173 71.7516C48.1863 71.7516 48.1863 71.7516 48.1863 71.7516C48.1552 71.7516 48.1552 71.7516 48.1242 71.7516C48.0931 71.7516 48.0931 71.7516 48.0621 71.7516C48.031 71.7516 48.031 71.7206 48 71.7206C47.9689 71.6895 47.9689 71.6585 47.9689 71.6274C47.9689 71.5964 47.9689 71.5343 47.9689 71.4411L47.9379 70.1682Z" fill="black"></path>
    <path d="M54.6442 71.5964C54.6442 71.6274 54.6442 71.6274 54.6442 71.6585C54.6442 71.6895 54.6132 71.6895 54.6132 71.6895C54.5821 71.6895 54.5511 71.7206 54.52 71.7206C54.489 71.7206 54.458 71.7206 54.3959 71.7516C54.3338 71.7827 54.3338 71.7516 54.3027 71.7516C54.2096 71.7516 54.1475 71.7516 54.0543 71.7206C53.9612 71.6895 53.8991 71.6585 53.8059 71.6274C53.7439 71.5964 53.6507 71.5343 53.5886 71.4722C53.5576 71.4411 53.5576 71.4411 53.5265 71.4101C53.4955 71.379 53.4644 71.348 53.4644 71.2859C53.4334 71.2548 53.4023 71.1927 53.4023 71.1307C53.3713 71.0686 53.3713 71.0065 53.3402 70.9444C53.3402 70.8823 53.3092 70.8202 53.3092 70.727C53.3092 70.6339 53.3092 70.5407 53.3402 70.4476C53.3713 70.3545 53.4023 70.2924 53.4334 70.2303C53.4644 70.1682 53.5265 70.1061 53.5576 70.075C53.6197 70.044 53.6507 70.0129 53.7128 69.9819C53.7749 69.9508 53.806 69.9508 53.868 69.9198C53.9301 69.9198 53.9612 69.8887 54.0233 69.8887C54.0854 69.8887 54.1164 69.8887 54.1475 69.8887C54.2406 69.8887 54.3027 69.8887 54.3959 69.9198C54.458 69.9198 54.5201 69.9508 54.5821 69.9819C54.6442 70.0129 54.6753 70.0129 54.7063 70.044C54.7374 70.075 54.7684 70.1061 54.7995 70.1061C54.7995 70.1371 54.8305 70.1371 54.8305 70.1682C54.8305 70.1992 54.8305 70.1992 54.8616 70.2303C54.8616 70.2613 54.8616 70.2613 54.8616 70.2924V70.3234H54.8926V70.2924C54.8926 70.2303 54.8926 70.1682 54.8926 70.1371C54.8926 70.1061 54.8926 70.044 54.8926 70.0129C54.8926 69.9819 54.8926 69.9508 54.8926 69.9508C54.8926 69.9198 54.8926 69.9198 54.8926 69.9198C54.8926 69.9198 54.8926 69.9198 54.8926 69.8887C54.8926 69.8887 54.8926 69.8887 54.8616 69.8887C54.8305 69.8887 54.7995 69.8887 54.7995 69.8887C54.7684 69.8887 54.7374 69.8887 54.7374 69.8887C54.7063 69.8887 54.6753 69.8887 54.6753 69.8887C54.6753 69.8887 54.6442 69.8887 54.6132 69.8887C54.5821 69.8887 54.5511 69.8887 54.52 69.8577C54.489 69.8577 54.4269 69.8577 54.3959 69.8577C54.3648 69.8577 54.3027 69.8577 54.2717 69.8577C54.2096 69.8577 54.1164 69.8577 54.0543 69.8577C53.9612 69.8577 53.8991 69.8887 53.8059 69.9198C53.7128 69.9508 53.6507 69.9819 53.5576 70.044C53.4955 70.075 53.4334 70.1371 53.4023 70.1992C53.3402 70.2613 53.3092 70.3234 53.2471 70.3855C53.216 70.4476 53.185 70.5407 53.1539 70.6339C53.1229 70.727 53.1229 70.8202 53.1229 70.9444C53.1229 71.0375 53.1229 71.0996 53.1539 71.1928C53.185 71.2549 53.185 71.348 53.216 71.4101C53.2471 71.4722 53.2781 71.5343 53.3092 71.5964C53.3402 71.6585 53.3713 71.6895 53.4334 71.7206C53.4955 71.7827 53.5886 71.8448 53.6818 71.8758C53.7749 71.9069 53.837 71.9379 53.9301 71.9689C54.0233 72 54.0854 72 54.1475 72C54.2096 72 54.2717 72 54.3338 72C54.3648 72 54.4269 72 54.458 72C54.5201 72 54.5511 72 54.6132 71.9689C54.6753 71.9689 54.7063 71.9379 54.7684 71.9379C54.8305 71.9069 54.8616 71.9069 54.9237 71.8758C54.9237 71.8758 54.9237 71.8758 54.9547 71.8758C54.9547 71.8758 54.9547 71.8758 54.9547 71.8448V71.8137C54.9547 71.7827 54.9547 71.7827 54.9547 71.7516V71.4411C54.9547 71.4101 54.9547 71.379 54.9547 71.348C54.9547 71.3169 54.9547 71.2859 54.9547 71.2549C54.9547 71.2238 54.9547 71.1927 54.9547 71.1617C54.9547 71.0996 54.9547 71.0686 54.9858 71.0686C54.9858 71.0375 55.0168 71.0375 55.0479 71.0065H55.11C55.11 71.0065 55.11 71.0065 55.11 70.9754H55.0789C55.0479 70.9754 55.0479 70.9754 55.0168 70.9754C54.9858 70.9754 54.9547 70.9754 54.9237 70.9754C54.8926 70.9754 54.8616 70.9754 54.8616 70.9754C54.8305 70.9754 54.8305 70.9754 54.8305 70.9754C54.8305 70.9754 54.8305 70.9754 54.7995 70.9754C54.7684 70.9754 54.7684 70.9754 54.7374 70.9754C54.7063 70.9754 54.6753 70.9754 54.6442 70.9754C54.6132 70.9754 54.5821 70.9754 54.5511 70.9754C54.5201 70.9754 54.52 70.9754 54.52 70.9754C54.52 70.9754 54.52 70.9754 54.52 71.0065H54.6132C54.6442 71.0065 54.6753 71.0375 54.6753 71.0375C54.7063 71.0375 54.7063 71.0686 54.7063 71.0686C54.7063 71.0996 54.7063 71.0996 54.7374 71.1617C54.7374 71.1927 54.7374 71.2238 54.7374 71.2859V71.5964H54.6442ZM57.4385 70.7891C57.4385 70.8823 57.4385 70.9444 57.4696 71.0375C57.5006 71.1307 57.5006 71.1927 57.5627 71.2859C57.5938 71.379 57.6559 71.4411 57.6869 71.5032C57.749 71.5653 57.8111 71.6274 57.8732 71.6895C57.9353 71.7516 58.0285 71.7827 58.1526 71.8137C58.2458 71.8448 58.37 71.8448 58.4942 71.8448C58.6184 71.8448 58.7426 71.8137 58.8667 71.7827C58.9909 71.7516 59.0841 71.6895 59.1772 71.6274C59.2704 71.5653 59.3325 71.4722 59.3946 71.379C59.4567 71.2859 59.4877 71.1927 59.5498 71.0686C59.5809 70.9444 59.6119 70.8512 59.6119 70.727C59.6119 70.6028 59.5809 70.4787 59.5498 70.3855C59.5188 70.2924 59.4567 70.1992 59.3946 70.1061C59.3325 70.0129 59.2704 69.9508 59.1772 69.8887C59.0841 69.8266 58.9909 69.7956 58.8978 69.7645C58.8047 69.7335 58.6805 69.7335 58.5563 69.7335C58.4321 69.7335 58.3079 69.7645 58.2147 69.7956C58.1216 69.8266 58.0285 69.8577 57.9353 69.9198C57.8732 69.9819 57.7801 70.044 57.718 70.1061C57.6559 70.1682 57.6248 70.2613 57.5627 70.3234C57.5317 70.4166 57.5006 70.4787 57.4696 70.5718C57.4696 70.6339 57.4385 70.727 57.4385 70.7891ZM57.718 70.727C57.718 70.5718 57.749 70.4476 57.7801 70.3545C57.8111 70.2303 57.8732 70.1371 57.9353 70.075C57.9974 70.0129 58.0906 69.9508 58.1837 69.9198C58.2768 69.8887 58.37 69.8577 58.4942 69.8577C58.5873 69.8577 58.6494 69.8577 58.7426 69.8887C58.8357 69.9198 58.8978 69.9508 58.9599 70.0129C59.022 70.075 59.0841 70.1371 59.1462 70.1992C59.2083 70.2924 59.2393 70.3855 59.2704 70.4787C59.3014 70.5718 59.3014 70.696 59.3014 70.8202C59.3014 70.9444 59.3014 71.0686 59.2704 71.1617C59.2393 71.2548 59.2083 71.348 59.1772 71.4101C59.1462 71.4722 59.0841 71.5343 59.022 71.5653C58.9599 71.5964 58.9288 71.6274 58.8667 71.6585C58.8047 71.6895 58.7426 71.6895 58.7115 71.7206C58.6494 71.7206 58.6184 71.7206 58.5873 71.7206C58.4631 71.7206 58.3389 71.6895 58.2458 71.6585C58.1526 71.5964 58.0595 71.5343 57.9664 71.4411C57.9043 71.348 57.8422 71.2548 57.7801 71.1307C57.718 71.0065 57.718 70.8823 57.718 70.727ZM62.2199 71.0375C62.2199 71.1307 62.2199 71.1927 62.2199 71.2859C62.2199 71.348 62.2199 71.4411 62.2199 71.4722C62.2199 71.5343 62.2199 71.5653 62.2199 71.6274C62.2199 71.6585 62.2199 71.6895 62.2199 71.6895C62.2199 71.7206 62.2199 71.7206 62.1889 71.7516L62.1578 71.7827H62.0957C62.0957 71.7827 62.0957 71.7827 62.0647 71.7827C62.0647 71.7827 62.0647 71.7827 62.0647 71.8137H62.0957C62.1268 71.8137 62.1268 71.8137 62.1578 71.8137C62.1889 71.8137 62.2199 71.8137 62.251 71.8137C62.282 71.8137 62.3131 71.8137 62.3131 71.8137C62.3441 71.8137 62.3441 71.8137 62.3441 71.8137C62.3752 71.8137 62.4062 71.8137 62.4373 71.8137C62.4683 71.8137 62.4993 71.8137 62.5614 71.8137C62.6235 71.8137 62.6856 71.8137 62.7477 71.8137C62.8098 71.8137 62.903 71.8137 63.0272 71.8137C63.0582 71.8137 63.0893 71.8137 63.1203 71.8137C63.1514 71.8137 63.1514 71.8137 63.1514 71.7827C63.1514 71.7827 63.1824 71.7516 63.1824 71.7206C63.1824 71.7206 63.1824 71.6895 63.1824 71.6585C63.1824 71.6274 63.1824 71.6274 63.1824 71.5964C63.1824 71.5653 63.1824 71.5653 63.1824 71.5343C63.1824 71.5032 63.1824 71.5032 63.1824 71.4722C63.1824 71.4411 63.1824 71.4411 63.1824 71.4411V71.4101C63.1824 71.4101 63.1824 71.4101 63.1514 71.4101V71.4411C63.1514 71.5032 63.1203 71.5343 63.1203 71.5653C63.0893 71.5964 63.0893 71.6274 63.0272 71.6274C62.9961 71.6274 62.9651 71.6585 62.934 71.6585C62.903 71.6585 62.8719 71.6585 62.8409 71.6585C62.8098 71.6585 62.7788 71.6585 62.7477 71.6585C62.6856 71.6585 62.6235 71.6585 62.5925 71.6585C62.5614 71.6585 62.5304 71.6274 62.4993 71.6274C62.4683 71.5964 62.4683 71.5964 62.4683 71.5653C62.4683 71.5343 62.4683 71.5032 62.4373 71.4411C62.4373 71.4411 62.4373 71.4101 62.4373 71.379C62.4373 71.348 62.4373 71.3169 62.4373 71.2859C62.4373 71.2548 62.4373 71.2238 62.4373 71.1617C62.4373 71.1307 62.4373 71.0996 62.4373 71.0686C62.4373 71.0375 62.4373 71.0065 62.4373 71.0065V70.7891C62.4373 70.7891 62.4373 70.7891 62.4683 70.7891C62.4683 70.7891 62.4993 70.7891 62.5304 70.7891C62.5614 70.7891 62.5925 70.7891 62.6235 70.7891C62.6546 70.7891 62.6856 70.7891 62.7167 70.7891C62.7477 70.7891 62.7788 70.7891 62.8098 70.7891C62.8409 70.7891 62.8719 70.7891 62.8719 70.7891C62.903 70.7891 62.934 70.7891 62.9651 70.8202C62.9961 70.8202 62.9961 70.8512 62.9961 70.8512C62.9961 70.8512 62.9961 70.8823 63.0272 70.8823C63.0272 70.9133 63.0272 70.9133 63.0272 70.9444V70.9754C63.0272 70.9754 63.0272 70.9754 63.0272 71.0065C63.0272 71.0065 63.0272 71.0065 63.0272 70.9754V70.9444C63.0272 70.9444 63.0272 70.9444 63.0272 70.9133V70.8823C63.0272 70.8512 63.0272 70.8512 63.0272 70.8202C63.0272 70.7891 63.0272 70.7891 63.0272 70.7891C63.0272 70.7581 63.0272 70.696 63.0272 70.696C63.0272 70.6649 63.0272 70.6649 63.0272 70.6339C63.0272 70.6339 63.0272 70.6339 63.0272 70.6028C63.0272 70.6028 63.0272 70.6028 62.9961 70.6028C62.9961 70.6028 62.9961 70.6339 62.9651 70.6339C62.9651 70.6339 62.934 70.6649 62.903 70.6649C62.8719 70.6649 62.8719 70.6649 62.8098 70.6649C62.8098 70.6649 62.7788 70.6649 62.7477 70.6649C62.7167 70.6649 62.6856 70.6649 62.6546 70.6649C62.6235 70.6649 62.5925 70.6649 62.5614 70.6649C62.5304 70.6649 62.4994 70.6649 62.4683 70.6649C62.4373 70.6649 62.4062 70.6649 62.4062 70.6649C62.3752 70.6649 62.3752 70.6649 62.3752 70.6649C62.3752 70.6649 62.3752 70.6649 62.3752 70.6339V69.8577H62.4062C62.4373 69.8577 62.4683 69.8577 62.4993 69.8577C62.5304 69.8577 62.5614 69.8577 62.5925 69.8577C62.6235 69.8577 62.6546 69.8577 62.6856 69.8577C62.7167 69.8577 62.7167 69.8577 62.7477 69.8577C62.8098 69.8577 62.8409 69.8577 62.8719 69.8887C62.903 69.8887 62.903 69.9198 62.934 69.9198L62.9651 69.9508V70.075C62.9651 70.075 62.9651 70.075 62.9961 70.075C62.9961 70.075 62.9961 70.075 62.9961 70.044V70.0129C62.9961 69.9819 62.9961 69.9819 62.9961 69.9508C62.9961 69.9198 62.9961 69.9198 62.9961 69.8887C62.9961 69.8577 62.9961 69.8577 62.9961 69.8577C62.9961 69.8266 62.9961 69.7956 62.9961 69.7645C62.9961 69.7335 62.9961 69.7335 62.9961 69.7335C62.9961 69.7335 62.9961 69.7335 62.9961 69.7025C62.9961 69.7025 62.9961 69.7025 62.9651 69.7025C62.9651 69.7025 62.9651 69.7025 62.934 69.7025C62.934 69.7025 62.903 69.7025 62.8719 69.7025C62.8409 69.7025 62.8409 69.7025 62.8098 69.7025C62.8098 69.7025 62.7788 69.7025 62.7477 69.7025C62.7167 69.7025 62.6856 69.7025 62.6546 69.7025C62.6235 69.7025 62.5925 69.7025 62.5304 69.7025C62.4993 69.7025 62.4373 69.7025 62.4062 69.7025C62.3752 69.7025 62.3441 69.7025 62.282 69.7025C62.251 69.7025 62.2199 69.7025 62.1889 69.7025C62.1578 69.7025 62.1578 69.7025 62.1578 69.7025H62.0336C62.0026 69.7025 61.9715 69.7025 61.9405 69.7025C61.9094 69.7025 61.8784 69.7025 61.8473 69.7025C61.8163 69.7025 61.8163 69.7025 61.8163 69.7025C61.8163 69.7025 61.8163 69.7025 61.8163 69.7335H61.9094C61.9405 69.7335 61.9715 69.7645 61.9715 69.7645C62.0026 69.7645 62.0026 69.7956 62.0026 69.8266C62.0026 69.8577 62.0026 69.8577 62.0026 69.8887C62.0026 69.9198 62.0026 69.9198 62.0026 69.9508C62.0026 69.9819 62.0026 69.9819 62.0026 70.0129C62.0026 70.044 62.0026 70.075 62.0026 70.1061C62.0026 70.1371 62.0026 70.1992 62.0026 70.2613C62.0026 70.3234 62.0026 70.3855 62.0026 70.4787V71.0375H62.2199ZM66.1009 71.8448C66.163 71.8448 66.2561 71.8448 66.3182 71.8137C66.3803 71.7827 66.4424 71.7827 66.5045 71.7206C66.5356 71.6895 66.5977 71.6585 66.6287 71.5964C66.6598 71.5653 66.6908 71.5032 66.6908 71.4722C66.7219 71.4411 66.7219 71.379 66.7219 71.348C66.7219 71.3169 66.7219 71.2859 66.7219 71.2549C66.7219 71.1928 66.7219 71.1617 66.6908 71.0996C66.6908 71.0375 66.6598 71.0065 66.6287 70.9444C66.5977 70.8823 66.5666 70.8512 66.5045 70.7891C66.4424 70.727 66.3803 70.6649 66.3182 70.6028L66.2561 70.5407C66.194 70.4786 66.132 70.4476 66.1009 70.4166C66.0699 70.3855 66.0388 70.3545 66.0078 70.2924C65.9767 70.2613 65.9767 70.2303 65.9457 70.1992C65.9457 70.1682 65.9146 70.1371 65.9146 70.1061C65.9146 70.044 65.9457 69.9819 65.9457 69.9508C65.9767 69.9198 66.0078 69.8577 66.0699 69.8577C66.132 69.8266 66.163 69.8266 66.2251 69.8266C66.2872 69.8266 66.3493 69.8266 66.3803 69.8577C66.4114 69.8577 66.4424 69.8887 66.4735 69.8887C66.5045 69.9198 66.5045 69.9198 66.5356 69.9508L66.5666 69.9819C66.5666 69.9819 66.5666 70.0129 66.5977 70.0129C66.5977 70.044 66.5977 70.044 66.5977 70.075C66.5977 70.1061 66.5977 70.1061 66.5977 70.1061V70.1371C66.5977 70.1371 66.5977 70.1371 66.6287 70.1371C66.6287 70.1371 66.6287 70.1061 66.6287 70.075C66.6287 69.9819 66.6287 69.9198 66.6287 69.8577C66.6287 69.8266 66.6287 69.7956 66.6287 69.7956C66.6287 69.7956 66.6287 69.7956 66.6287 69.7645C66.6287 69.7645 66.6287 69.7645 66.5977 69.7645H66.5666C66.5666 69.7645 66.5356 69.7645 66.5045 69.7645C66.4735 69.7645 66.4424 69.7645 66.3803 69.7335C66.3182 69.7025 66.2872 69.7335 66.2561 69.7335C66.132 69.7335 66.0388 69.7645 65.9457 69.7956C65.8525 69.8266 65.7904 69.8887 65.7594 69.9508C65.7283 70.0129 65.6973 70.1061 65.6973 70.1992C65.6973 70.2303 65.6973 70.2924 65.6973 70.3234C65.6973 70.3545 65.7283 70.4166 65.7594 70.4476C65.7904 70.4787 65.8215 70.5407 65.8525 70.6028C65.8836 70.6649 65.9457 70.696 66.0388 70.7581L66.163 70.8512C66.2251 70.9133 66.2561 70.9444 66.3182 70.9754C66.3493 71.0065 66.3803 71.0686 66.4114 71.0996C66.4424 71.1307 66.4424 71.1617 66.4735 71.2238C66.4735 71.2549 66.5045 71.3169 66.5045 71.348C66.5045 71.379 66.5045 71.4411 66.4735 71.4722C66.4424 71.5032 66.4424 71.5653 66.4114 71.5964C66.3803 71.6274 66.3493 71.6585 66.2872 71.6895C66.2251 71.7206 66.194 71.7206 66.132 71.7206C66.1009 71.7206 66.0388 71.7206 66.0078 71.6895C65.9767 71.6895 65.9146 71.6585 65.8836 71.6274C65.8525 71.5964 65.8215 71.5653 65.7904 71.5343C65.7594 71.5032 65.7594 71.4722 65.7283 71.4101C65.7283 71.379 65.7283 71.379 65.7283 71.348C65.7283 71.3169 65.7283 71.3169 65.7283 71.3169V71.2859C65.7283 71.2859 65.7283 71.2859 65.6973 71.2859V71.3169C65.6973 71.348 65.6973 71.348 65.6973 71.379C65.6973 71.4101 65.6973 71.4411 65.6973 71.4722C65.6973 71.5032 65.6973 71.5653 65.6973 71.5964C65.6973 71.6274 65.6973 71.6274 65.6973 71.6585V71.6895C65.6973 71.6895 65.6973 71.6895 65.7283 71.7206C65.7904 71.7516 65.8525 71.7516 65.9146 71.7827C65.9767 71.8448 66.0388 71.8448 66.1009 71.8448ZM72 70.5718C72 70.4787 72 70.4166 72 70.3545C72 70.2924 72 70.2303 72 70.1992C72 70.1682 72 70.1371 72 70.1061C72 70.075 72 70.044 72 70.044C72 70.0129 72 70.0129 72 69.9819C72 69.9198 72 69.8887 72.031 69.8577C72.031 69.8266 72.0621 69.8266 72.0931 69.8266C72.1242 69.8266 72.1242 69.8266 72.1242 69.8266H72.1552C72.1552 69.8266 72.1552 69.8266 72.1552 69.7956H72.1242C72.0931 69.7956 72.0931 69.7956 72.0621 69.7956C72.031 69.7956 72 69.7956 71.9689 69.7956C71.9379 69.7956 71.9069 69.7956 71.9069 69.7956C71.8758 69.7956 71.8758 69.7956 71.8758 69.7956H71.8448C71.8137 69.7956 71.8137 69.7956 71.7827 69.7956C71.7516 69.7956 71.7206 69.7956 71.6895 69.7956C71.6585 69.7956 71.6274 69.7956 71.5964 69.7956H71.5653C71.5653 69.7956 71.5653 69.7956 71.5653 69.8266H71.6585C71.6895 69.8266 71.7206 69.8577 71.7206 69.8577C71.7516 69.8577 71.7516 69.8887 71.7516 69.9198C71.7516 69.9508 71.7516 69.9508 71.7516 69.9819C71.7516 70.0129 71.7516 70.0129 71.7516 70.044C71.7516 70.075 71.7516 70.075 71.7516 70.1061C71.7516 70.1371 71.7516 70.1682 71.7516 70.1992C71.7516 70.2303 71.7516 70.2924 71.7516 70.3545C71.7516 70.4166 71.7516 70.4787 71.7516 70.5718V70.6339H70.6028V70.5718C70.6028 70.4787 70.6028 70.4166 70.6028 70.3545C70.6028 70.2924 70.6028 70.2303 70.6028 70.1992C70.6028 70.1682 70.6028 70.1371 70.6028 70.1061C70.6028 70.075 70.6028 70.044 70.6028 70.044C70.6028 70.0129 70.6028 70.0129 70.6028 69.9819C70.6028 69.9198 70.6028 69.8887 70.6339 69.8577C70.6339 69.8266 70.6649 69.8266 70.696 69.8266C70.727 69.8266 70.727 69.8266 70.727 69.8266H70.7581C70.7581 69.8266 70.7581 69.8266 70.7581 69.7956H70.727C70.696 69.7956 70.696 69.7956 70.6649 69.7956C70.6339 69.7956 70.6028 69.7956 70.5718 69.7956C70.5407 69.7956 70.5097 69.7956 70.5097 69.7956C70.4786 69.7956 70.4787 69.7956 70.4787 69.7956H70.4476C70.4166 69.7956 70.4166 69.7956 70.3855 69.7956C70.3545 69.7956 70.3234 69.7956 70.2924 69.7956C70.2613 69.7956 70.2303 69.7956 70.1992 69.7956H70.1682C70.1682 69.7956 70.1682 69.7956 70.1682 69.8266H70.2613C70.2924 69.8266 70.3234 69.8577 70.3234 69.8577C70.3545 69.8577 70.3545 69.8887 70.3545 69.9198C70.3545 69.9508 70.3545 69.9508 70.3545 69.9819C70.3545 70.0129 70.3545 70.0129 70.3545 70.044C70.3545 70.075 70.3545 70.075 70.3545 70.1061C70.3545 70.1371 70.3545 70.1682 70.3545 70.1992C70.3545 70.2303 70.3545 70.2924 70.3545 70.3545C70.3545 70.4166 70.3545 70.4787 70.3545 70.5718V71.0375C70.3545 71.1307 70.3545 71.1927 70.3545 71.2859C70.3545 71.348 70.3545 71.4411 70.3545 71.4722C70.3545 71.5343 70.3545 71.5653 70.3545 71.6274C70.3545 71.6585 70.3545 71.6895 70.3545 71.6895C70.3545 71.7206 70.3545 71.7206 70.3234 71.7516L70.2924 71.7827H70.2303C70.2303 71.7827 70.2303 71.7827 70.1992 71.7827C70.1992 71.7827 70.1992 71.7827 70.1992 71.8137H70.2303C70.2613 71.8137 70.2613 71.8137 70.2924 71.8137C70.3234 71.8137 70.3545 71.8137 70.3855 71.8137C70.4166 71.8137 70.4476 71.8137 70.4476 71.8137C70.4787 71.8137 70.4787 71.8137 70.4787 71.8137H70.5097C70.5407 71.8137 70.5718 71.8137 70.6028 71.8137C70.6339 71.8137 70.6649 71.8137 70.696 71.8137C70.727 71.8137 70.7581 71.8137 70.8202 71.8137C70.8512 71.8137 70.8512 71.8137 70.8512 71.8137C70.8512 71.8137 70.8512 71.8137 70.8512 71.7827C70.8512 71.7827 70.8512 71.7827 70.8202 71.7827C70.7891 71.7827 70.7891 71.7827 70.7891 71.7827C70.7581 71.7827 70.7581 71.7827 70.7581 71.7827H70.727C70.696 71.7827 70.6649 71.7827 70.6649 71.7516C70.6649 71.7516 70.6339 71.7206 70.6339 71.6895C70.6339 71.6585 70.6339 71.6585 70.6339 71.6274C70.6339 71.5964 70.6339 71.5343 70.6339 71.4722C70.6339 71.4101 70.6339 71.348 70.6339 71.2859C70.6339 71.2238 70.6339 71.1307 70.6339 71.0375V70.7581H71.7827V71.0375C71.7827 71.1307 71.7827 71.1927 71.7827 71.2859C71.7827 71.348 71.7827 71.4411 71.7827 71.4722C71.7827 71.5343 71.7827 71.5653 71.7827 71.6274C71.7827 71.6585 71.7827 71.6895 71.7827 71.6895C71.7827 71.7206 71.7827 71.7206 71.7516 71.7516L71.7206 71.7827H71.6585C71.6585 71.7827 71.6585 71.7827 71.6274 71.7827C71.6274 71.7827 71.6274 71.7827 71.6274 71.8137H71.6585C71.6895 71.8137 71.6895 71.8137 71.7206 71.8137C71.7516 71.8137 71.7827 71.8137 71.8137 71.8137C71.8448 71.8137 71.8758 71.8137 71.8758 71.8137C71.9069 71.8137 71.9069 71.8137 71.9069 71.8137H71.9379C71.9689 71.8137 72 71.8137 72.031 71.8137C72.0621 71.8137 72.0931 71.8137 72.1242 71.8137C72.1552 71.8137 72.1863 71.8137 72.2484 71.8137H72.2794C72.2794 71.8137 72.2794 71.8137 72.2794 71.7827C72.2794 71.7827 72.2794 71.7827 72.2484 71.7827H72.1552C72.1242 71.7827 72.0931 71.7827 72.0931 71.7516C72.0931 71.7516 72.0621 71.7206 72.0621 71.6895C72.0621 71.6585 72.0621 71.6585 72.0621 71.6274C72.0621 71.5964 72.0621 71.5343 72.0621 71.4722C72.0621 71.4101 72.0621 71.348 72.0621 71.2859C72.0621 71.2238 72.0621 71.1307 72.0621 71.0375V70.5718H72Z" fill="black"></path>
  </g>
  <defs>
    <clipPath id="clip0_8_365">
      <rect width="111.672" height="72" fill="white"></rect>
    </clipPath>
  </defs>
</svg>
