<?xml version="1.0" encoding="UTF-8"?>
<svg xmlns="http://www.w3.org/2000/svg" width="90" height="60" viewBox="0 0 90 60" fill="none">
  <g clip-path="url(#clip0_8_476)">
    <path d="M0 43.2175H7.72416V45.0593H4.81867V53.6686H2.81876V45.0593H0V43.2175Z" fill="black"></path>
    <path d="M8.75218 43.2175H13.3234C14.9534 43.2175 16.1677 43.9803 16.1677 46.4776C16.1677 49.0642 15.0835 49.3703 14.5045 49.554L16.484 53.6686H14.2341L12.5071 49.7147L10.7521 49.5158V53.6712H8.75218V43.2175ZM13.127 47.9444C13.8234 47.9444 14.155 47.7403 14.155 46.4776C14.155 45.2914 13.7545 44.9955 13.127 44.9955H10.7572V47.9444H13.127Z" fill="black"></path>
    <path d="M17.5554 43.2175H19.5553V49.1C19.5553 51.4902 20.0859 51.8983 21.5833 51.8983C22.9174 51.8983 23.5245 51.406 23.5245 49.1V43.2175H25.5372V49.1C25.5372 53.712 23.3102 53.7401 21.5833 53.7401C19.642 53.7401 17.5579 53.8549 17.5579 49.1V43.2175H17.5554Z" fill="black"></path>
    <path d="M26.8764 45.8322C26.8764 43.7609 28.1034 43.1563 29.7028 43.1334C31.2053 43.1028 32.917 43.3017 33.7435 43.5466V45.118C32.8302 45.0364 30.7717 44.9751 30.2538 44.9751C29.3789 44.9547 28.8763 45.0159 28.8763 45.9878V46.498C28.8763 47.3271 29.1926 47.5056 30.0038 47.5056H31.6543C33.7026 47.5056 34.1261 49.1204 34.1261 50.2759V50.9723C34.1261 53.3447 32.6466 53.786 31.2334 53.786C29.4503 53.786 28.282 53.6763 27.2004 53.3574V51.7861C27.7718 51.8422 29.5115 51.9442 30.8405 51.9442C31.4425 51.9442 32.1262 51.8447 32.1262 51.0437V50.48C32.1262 49.8856 31.9451 49.5056 31.1823 49.5056H29.5753C27.055 49.5056 26.8764 47.6434 26.8764 46.7353V45.8322Z" fill="black"></path>
    <path d="M34.6108 43.2175H42.3349V45.0593H39.4294V53.6686H37.4295V45.0593H34.6108V43.2175Z" fill="black"></path>
    <path d="M43.1742 45.3884C43.1742 43.5747 44.4598 43.1997 45.4445 43.2175C45.4445 43.2175 49.1229 43.3196 50.0412 43.4471V45.1001H45.9139C45.1716 45.1001 45.1715 45.5134 45.1715 45.8986V47.5286L49.3908 47.6791V49.3219L45.1715 49.4571V51.0871C45.1792 51.8447 45.6435 51.8294 46.0567 51.8294H50.0412V53.4671C49.2326 53.5768 45.5873 53.7094 45.5873 53.7094C44.6563 53.7503 43.1742 53.5385 43.1742 51.6126V45.3884Z" fill="black"></path>
    <path d="M51.1483 45.8322C51.1483 43.7609 52.3753 43.1563 53.9747 43.1334C55.4772 43.1028 57.1889 43.3017 58.0154 43.5466V45.118C57.1022 45.0364 55.0436 44.9751 54.5257 44.9751C53.6533 44.9547 53.1483 45.0159 53.1483 45.9878V46.498C53.1483 47.3271 53.4646 47.5056 54.2758 47.5056H55.9262C57.9746 47.5056 58.398 49.1204 58.398 50.2759V50.9723C58.398 53.3447 56.9185 53.786 55.5053 53.786C53.7222 53.786 52.5539 53.6763 51.4723 53.3574V51.7861C52.0437 51.8422 53.7834 51.9442 55.1125 51.9442C55.7145 51.9442 56.3981 51.8447 56.3981 51.0437V50.48C56.3981 49.8856 56.217 49.5056 55.4543 49.5056H53.8472C51.3269 49.5056 51.1483 47.6434 51.1483 46.7353V45.8322Z" fill="black"></path>
    <path d="M58.8827 43.2175H66.6069V45.0593H63.7014V53.6686H61.7015V45.0593H58.8827V43.2175Z" fill="black"></path>
    <path d="M69.2726 43.2175H71.5454L74.9407 53.6686H72.8132L72.0709 51.3524H68.6476L67.8925 53.6686H65.7447L69.2726 43.2175ZM71.5965 49.5821L70.423 45.8526L69.168 49.5821H71.5965Z" fill="black"></path>
    <path d="M74.2315 43.2175H81.9557V45.0593H79.0502V53.6686H77.0503V45.0593H74.2315V43.2175Z" fill="black"></path>
    <path d="M82.795 45.3884C82.795 43.5747 84.0806 43.1997 85.0653 43.2175C85.0653 43.2175 88.7437 43.3196 89.662 43.4471V45.1001H85.5346C84.7923 45.1001 84.7923 45.5134 84.7923 45.8986V47.5286L89.0115 47.6791V49.3219L84.7923 49.4571V51.0871C84.8 51.8447 85.2642 51.8294 85.6775 51.8294H89.662V53.4671C88.8534 53.5768 85.2081 53.7094 85.2081 53.7094C84.277 53.7503 82.795 53.5385 82.795 51.6126V45.3884Z" fill="black"></path>
    <path d="M2.47183 57.4185C2.47183 56.7476 2.86978 56.5512 3.39016 56.5435C3.87739 56.5333 4.43349 56.5996 4.70133 56.6787V57.1889C4.40543 57.1634 3.73709 57.143 3.56873 57.143C3.28557 57.1379 3.12232 57.1557 3.12232 57.472V57.6379C3.12232 57.9057 3.22435 57.9644 3.4871 57.9644H4.02279C4.68858 57.9644 4.82377 58.4899 4.82377 58.8648V59.0919C4.82377 59.8622 4.3442 60.0051 3.88504 60.0051C3.30598 60.0051 2.9259 59.9694 2.57642 59.8674V59.3572C2.76264 59.375 3.32639 59.4082 3.75749 59.4082C3.95391 59.4082 4.17584 59.375 4.17584 59.1148V58.9312C4.17584 58.7373 4.11717 58.6149 3.86973 58.6149H3.34935C2.5305 58.6149 2.47438 58.0103 2.47438 57.7144V57.4185H2.47183Z" fill="black"></path>
    <path d="M8.73687 56.569H9.3848V59.1225C9.3848 59.3674 9.53786 59.3623 9.67306 59.3623H10.8363V59.9592H9.44348C9.07359 59.9592 8.73687 59.8214 8.73687 59.2985V56.569Z" fill="black"></path>
    <path d="M16.0274 56.5461C16.8284 56.5461 17.387 56.6991 17.387 58.2883C17.387 59.7857 16.8615 59.9796 16.0274 59.9796C15.1932 59.9796 14.6626 59.8316 14.6626 58.2883C14.6626 56.6991 15.2494 56.5461 16.0274 56.5461ZM16.0274 59.3827C16.5733 59.3827 16.7391 59.2041 16.7391 58.2883C16.7391 57.2323 16.5427 57.143 16.0274 57.143C15.5248 57.143 15.3106 57.2067 15.3106 58.2883C15.3131 59.2169 15.4483 59.3827 16.0274 59.3827Z" fill="black"></path>
    <path d="M22.323 56.5333C22.8358 56.5333 23.1368 56.5614 23.6291 56.6838V57.1863C23.601 57.1863 23.0067 57.1047 22.4761 57.1047C21.9634 57.1047 21.8639 57.421 21.8639 58.2577C21.8639 59.1378 21.9659 59.3776 22.4455 59.3801C22.7618 59.3827 23.0296 59.1659 23.0296 59.1659V58.5562H22.5552V58.1455C22.7541 58.0613 23.0271 58.0307 23.3638 58.0307C23.4607 58.0307 23.5679 58.0358 23.6801 58.0434V59.9592H23.2133L23.0398 59.7322C22.8893 59.8699 22.7108 59.9694 22.3179 59.9821C21.3588 60.0204 21.2134 59.2118 21.2134 58.245C21.2159 57.2629 21.4022 56.5333 22.323 56.5333Z" fill="black"></path>
    <path d="M28.6493 56.569H29.3865L30.4885 59.9617H29.7972L29.5549 59.2092H28.4427L28.1978 59.9617H27.5014L28.6493 56.569ZM29.4044 58.6353L29.0217 57.4236L28.6136 58.6353H29.4044Z" fill="black"></path>
    <path d="M34.3149 56.569H34.973L36.3199 58.7628V56.569H36.9678V59.9617H36.3199L34.9679 57.7935V59.9617H34.3149V56.569Z" fill="black"></path>
    <path d="M43.1155 56.5333C43.6282 56.5333 43.9293 56.5614 44.4216 56.6838V57.1863C44.3935 57.1863 43.7992 57.1047 43.2686 57.1047C42.7558 57.1047 42.6563 57.421 42.6563 58.2577C42.6563 59.1378 42.7584 59.3776 43.238 59.3801C43.5543 59.3827 43.8221 59.1659 43.8221 59.1659V58.5562H43.3476V58.1455C43.5466 58.0613 43.8196 58.0307 44.1563 58.0307C44.2532 58.0307 44.3604 58.0358 44.4726 58.0434V59.9592H44.0058L43.8323 59.7322C43.6818 59.8699 43.5033 59.9694 43.1104 59.9821C42.1513 60.0204 42.0059 59.2118 42.0059 58.245C42.0084 57.2629 42.1946 56.5333 43.1155 56.5333Z" fill="black"></path>
    <path d="M49.7351 56.5461C50.5361 56.5461 51.0948 56.6991 51.0948 58.2883C51.0948 59.7857 50.5693 59.9796 49.7351 59.9796C48.901 59.9796 48.3704 59.8316 48.3704 58.2883C48.3678 56.6991 48.9546 56.5461 49.7351 56.5461ZM49.7351 59.3827C50.2785 59.3827 50.4468 59.2041 50.4468 58.2883C50.4468 57.2323 50.2504 57.143 49.7351 57.143C49.2326 57.143 49.0183 57.2067 49.0183 58.2883C49.0183 59.2169 49.1535 59.3827 49.7351 59.3827Z" fill="black"></path>
    <path d="M54.9977 57.2756C54.9977 56.6864 55.416 56.5639 55.7349 56.5716C55.7349 56.5716 56.9287 56.6047 57.2272 56.6455V57.1812H55.8879C55.6481 57.1812 55.6481 57.3164 55.6481 57.4414V57.972L57.018 58.0205V58.5536L55.6481 58.597V59.1276C55.6507 59.3725 55.8012 59.3699 55.9364 59.3699H57.2297V59.9005C56.967 59.9362 55.7833 59.9796 55.7833 59.9796C55.4798 59.9923 55.0002 59.9235 55.0002 59.2985V57.2756H54.9977Z" fill="black"></path>
    <path d="M61.0663 57.4185C61.0663 56.7476 61.4642 56.5512 61.9846 56.5435C62.4718 56.5333 63.0279 56.5996 63.2958 56.6787V57.1889C62.9999 57.1634 62.3315 57.143 62.1632 57.143C61.88 57.1379 61.7168 57.1557 61.7168 57.472V57.6379C61.7168 57.9057 61.8188 57.9644 62.0815 57.9644H62.6172C63.283 57.9644 63.4182 58.4899 63.4182 58.8648V59.0919C63.4182 59.8622 62.9386 60.0051 62.4795 60.0051C61.9004 60.0051 61.5203 59.9694 61.1709 59.8674V59.3572C61.3571 59.375 61.9208 59.4082 62.3519 59.4082C62.5484 59.4082 62.7703 59.375 62.7703 59.1148V58.9312C62.7703 58.7373 62.7116 58.6149 62.4642 58.6149H61.9438C61.125 58.6149 61.0688 58.0103 61.0688 57.7144V57.4185H61.0663Z" fill="black"></path>
    <path d="M68.4894 56.569H69.1374V58.023H70.3006V56.569H70.9485V59.9617H70.3006V58.62H69.1374V59.9617H68.4894V56.569Z" fill="black"></path>
    <path d="M74.9024 57.2756C74.9024 56.6864 75.3208 56.5639 75.6396 56.5716C75.6396 56.5716 76.8335 56.6047 77.1319 56.6455V57.1812H75.7927C75.5529 57.1812 75.5529 57.3164 75.5529 57.4414V57.972L76.9227 58.0205V58.5536L75.5529 58.597V59.1276C75.5555 59.3725 75.706 59.3699 75.8412 59.3699H77.1345V59.9005C76.8717 59.9362 75.6881 59.9796 75.6881 59.9796C75.3845 59.9923 74.905 59.9235 74.905 59.2985V57.2756H74.9024Z" fill="black"></path>
    <path d="M80.9787 56.569H82.4633C82.9939 56.569 83.3868 56.8165 83.3868 57.6277C83.3868 58.4669 83.0347 58.5664 82.846 58.6276L83.4888 59.9643H82.7592L82.198 58.6812L81.6266 58.6174V59.9668H80.9787V56.569ZM82.3996 58.1047C82.6266 58.1047 82.7337 58.0383 82.7337 57.6277C82.7337 57.2425 82.6036 57.1455 82.3996 57.1455H81.6292V58.1021H82.3996V58.1047Z" fill="black"></path>
    <path d="M87.3024 57.2756C87.3024 56.6864 87.7208 56.5639 88.0396 56.5716C88.0396 56.5716 89.2335 56.6047 89.5319 56.6455V57.1812H88.1927C87.9529 57.1812 87.9529 57.3164 87.9529 57.4414V57.972L89.3227 58.0205V58.5536L87.9529 58.597V59.1276C87.9554 59.3725 88.1059 59.3699 88.2411 59.3699H89.5345V59.9005C89.2717 59.9362 88.0881 59.9796 88.0881 59.9796C87.7845 59.9923 87.305 59.9235 87.305 59.2985V57.2756H87.3024Z" fill="black"></path>
    <path d="M44.3604 11.0965H42.4523V13.0071H44.3604V11.0965Z" fill="black"></path>
    <path d="M47.4061 11.0965H45.4955V13.0071H47.4061V11.0965Z" fill="black"></path>
    <path d="M44.3604 14.1423H42.4523V16.0503H44.3604V14.1423Z" fill="black"></path>
    <path d="M47.4061 14.1423H45.4955V16.0503H47.4061V14.1423Z" fill="black"></path>
    <path d="M26.93 22.1062H24.8V24.2388H26.93V22.1062Z" fill="black"></path>
    <path d="M30.3329 22.1062H28.1978V24.2388H30.3329V22.1062Z" fill="black"></path>
    <path d="M26.93 25.5066H24.8V27.6391H26.93V25.5066Z" fill="black"></path>
    <path d="M30.3329 25.5066H28.1978V27.6391H30.3329V25.5066Z" fill="black"></path>
    <path d="M62.0331 19.6471H60.5178V21.1624H62.0331V19.6471Z" fill="black"></path>
    <path d="M64.4488 19.6471H62.931V21.1624H64.4488V19.6471Z" fill="black"></path>
    <path d="M62.0331 22.0603H60.5178V23.5755H62.0331V22.0603Z" fill="black"></path>
    <path d="M64.4488 22.0603H62.931V23.5755H64.4488V22.0603Z" fill="black"></path>
    <path d="M20.2185 22.3894L27.5856 15.0223L42.2125 29.6493L38.7586 33.1032L47.8219 29.5115L62.3086 15.0223L68.5711 21.2848L72.4893 19.7313L62.3086 9.55317L58.2373 13.6244L44.6103 0L31.3201 13.2877L27.583 9.55317L17.5579 19.5757L20.2185 22.3894ZM44.6103 5.46916L55.5002 16.359L44.9445 26.9121L34.0547 16.0248L44.6103 5.46916Z" fill="black"></path>
    <path d="M32.1976 37.5239L16.2723 20.6777L13.2826 23.698L31.6032 40.6411L76.3335 20.0272L32.1976 37.5239Z" fill="black"></path>
  </g>
  <defs>
    <clipPath id="clip0_8_476">
      <rect width="89.662" height="60" fill="white"></rect>
    </clipPath>
  </defs>
</svg>
