<?xml version="1.0" encoding="UTF-8"?>
<svg xmlns="http://www.w3.org/2000/svg" width="109" height="70" viewBox="0 0 109 70" fill="none">
  <g clip-path="url(#clip0_8_384)">
    <path fill-rule="evenodd" clip-rule="evenodd" d="M77.1719 41.5381C76.4599 41.5381 75.8869 40.9651 75.8869 40.2531V20.6128L66.2143 15.0211L62.8281 16.9834V40.2531C62.8281 40.9651 62.255 41.5381 61.543 41.5381H55.2394C54.5274 41.5381 53.9544 40.9651 53.9544 40.2531V19.8661C53.9544 19.4146 54.1975 18.9805 54.5969 18.7547L60.258 15.4863V8.35282L50.5681 2.76116L40.8782 8.35282V20.3318L47.1297 23.947C47.5291 24.1727 47.7723 24.6068 47.7723 25.0584V40.2531C47.7723 40.6004 47.6333 40.9303 47.3902 41.1735C47.3262 41.2329 47.2561 41.2864 47.1815 41.3329C46.9731 41.4754 46.7276 41.5512 46.4525 41.5381L39.5758 41.4513C38.8812 41.4339 38.3081 40.8782 38.3081 40.1663V21.811L35.5123 20.196L25.8397 25.7877V40.2531C25.8397 40.9651 25.2667 41.5381 24.5547 41.5381C23.8427 41.5381 23.2697 40.9651 23.2697 40.2531V25.0584C23.2697 24.6068 23.5128 24.1727 23.9122 23.947L34.8698 17.626C35.2692 17.4002 35.7554 17.4002 36.1548 17.626L38.3081 18.8763V7.60611C38.3081 7.15461 38.5512 6.72047 38.9506 6.49472L49.9082 0.156343C50.3076 -0.0694076 50.7938 -0.0694076 51.1932 0.156343L62.1508 6.49472C62.5502 6.72047 62.7934 7.15461 62.7934 7.60611V14.0139L65.5371 12.4163C65.9365 12.1906 66.4227 12.1906 66.8221 12.4163L77.7797 18.7373C78.1791 18.9631 78.4222 19.3972 78.4222 19.8487V40.2357C78.457 40.9651 77.8839 41.5381 77.1719 41.5381ZM60.2406 18.4595L56.5244 20.6128V38.9681H60.2406V18.4595ZM40.8782 38.8986L45.2022 38.9507V25.7877L40.8782 23.2871V38.8986Z" fill="black"></path>
    <path d="M48.8489 8.9954V7.57144C48.8489 7.10257 48.5363 6.91155 48.1717 7.10257L47.0082 7.76246C46.6261 7.97084 46.3309 8.52654 46.3309 8.97804V10.4194C46.3309 10.8882 46.6261 11.0793 47.0082 10.8709L48.1717 10.211C48.5537 10.0026 48.8489 9.4469 48.8489 8.9954Z" fill="black"></path>
    <path d="M45.8447 10.6798V9.25589C45.8447 8.80438 45.5495 8.596 45.1674 8.80439L44.004 9.46427C43.6219 9.67266 43.3267 10.2283 43.3267 10.6798V12.1038C43.3267 12.5727 43.6219 12.7637 44.004 12.5553L45.1674 11.8954C45.5495 11.687 45.8447 11.1314 45.8447 10.6798Z" fill="black"></path>
    <path d="M68.3676 21.4812V20.0572C68.3676 19.5883 68.6802 19.3973 69.0449 19.6057L70.2084 20.2656C70.5904 20.474 70.8856 21.0297 70.8856 21.4812V22.9051C70.8856 23.374 70.5904 23.565 70.2084 23.3566L69.0449 22.6967C68.6629 22.4884 68.3676 21.9327 68.3676 21.4812Z" fill="black"></path>
    <path d="M71.3719 23.1656V21.7416C71.3719 21.2901 71.6671 21.0818 72.0491 21.2901L73.2126 21.95C73.5946 22.1584 73.8898 22.7141 73.8898 23.1656V24.5896C73.8898 25.0584 73.5946 25.2495 73.2126 25.0411L72.0491 24.3812C71.6671 24.1728 71.3719 23.6171 71.3719 23.1656Z" fill="black"></path>
    <path d="M33.6715 26.7776V25.3536C33.6715 24.9021 33.359 24.6937 32.9943 24.9021L31.8308 25.562C31.4488 25.7704 31.1536 26.3261 31.1536 26.7776V28.2016C31.1536 28.6704 31.4488 28.8615 31.8308 28.6531L32.9943 27.9932C33.3763 27.7848 33.6715 27.2291 33.6715 26.7776Z" fill="black"></path>
    <path d="M30.6673 27.0554V28.4794C30.6673 28.9309 30.3721 29.4866 29.9901 29.695L28.8266 30.3549C28.4446 30.5633 28.1493 30.3722 28.1493 29.9034V28.4794C28.1493 28.0279 28.4446 27.4722 28.8266 27.2638L29.9901 26.6039C30.3547 26.3956 30.6673 26.5866 30.6673 27.0554Z" fill="black"></path>
    <path d="M30.6673 30.6501V32.074C30.6673 32.5256 30.3721 33.0812 29.9901 33.2896L28.8266 33.9495C28.4446 34.1579 28.1493 33.9669 28.1493 33.498V32.074C28.1493 31.6226 28.4446 31.0669 28.8266 30.8585L29.9901 30.1986C30.3547 29.9902 30.6673 30.1986 30.6673 30.6501Z" fill="black"></path>
    <path d="M33.6715 28.9656V30.3896C33.6715 30.8411 33.3763 31.3968 32.9943 31.6052L31.8308 32.2651C31.4488 32.4735 31.1536 32.2824 31.1536 31.8136V30.3896C31.1536 29.9381 31.4488 29.3824 31.8308 29.174L32.9943 28.5141C33.359 28.3058 33.6715 28.4968 33.6715 28.9656Z" fill="black"></path>
    <path d="M71.3719 25.3536V26.7776C71.3719 27.2291 71.6671 27.7848 72.0491 27.9932L73.2126 28.6531C73.5946 28.8615 73.8898 28.6704 73.8898 28.2016V26.7776C73.8898 26.3261 73.5946 25.7704 73.2126 25.562L72.0491 24.9021C71.6671 24.6938 71.3719 24.9021 71.3719 25.3536Z" fill="black"></path>
    <path d="M68.3676 23.6692V25.0932C68.3676 25.5447 68.6629 26.1004 69.0449 26.3087L70.2084 26.9686C70.5904 27.177 70.8856 26.986 70.8856 26.5171V25.0932C70.8856 24.6417 70.5904 24.086 70.2084 23.8776L69.0449 23.2177C68.6802 23.0093 68.3676 23.2003 68.3676 23.6692Z" fill="black"></path>
    <path d="M45.8447 12.8679V14.2919C45.8447 14.7434 45.5495 15.2991 45.1674 15.5074L44.004 16.15C43.6219 16.3583 43.3267 16.1673 43.3267 15.6985V14.2745C43.3267 13.823 43.6219 13.2673 44.004 13.0589L45.1674 12.399C45.5495 12.208 45.8447 12.399 45.8447 12.8679Z" fill="black"></path>
    <path d="M48.8489 11.1661V12.59C48.8489 13.0415 48.5537 13.5972 48.1717 13.8056L47.0082 14.4655C46.6261 14.6739 46.3309 14.4829 46.3309 14.014V12.59C46.3309 12.1385 46.6261 11.5829 47.0082 11.3745L48.1717 10.7146C48.5363 10.5062 48.8489 10.7146 48.8489 11.1661Z" fill="black"></path>
    <path d="M7.68068 50.9405H8.83651C8.74951 50.4496 8.59105 50.013 8.36112 49.6309C8.1312 49.2456 7.84535 48.9193 7.50357 48.6521C7.1618 48.3818 6.77807 48.1767 6.3524 48.0369C5.92984 47.8971 5.47776 47.8272 4.99617 47.8272C4.18212 47.8272 3.45817 48.0261 2.82433 48.4238C2.19048 48.8215 1.6918 49.3869 1.32827 50.1202C0.964745 50.8535 0.782982 51.7235 0.782982 52.7302C0.782982 53.7368 0.964745 54.6068 1.32827 55.3401C1.6918 56.0734 2.19048 56.6389 2.82433 57.0366C3.45817 57.4343 4.18212 57.6331 4.99617 57.6331C5.47776 57.6331 5.92984 57.5632 6.3524 57.4234C6.77807 57.2836 7.1618 57.0801 7.50357 56.8128C7.84535 56.5425 8.1312 56.2147 8.36112 55.8295C8.59105 55.4442 8.74951 55.0076 8.83651 54.5198H7.68068C7.61232 54.8492 7.4927 55.1412 7.32181 55.396C7.15403 55.6477 6.94896 55.8605 6.70661 56.0345C6.46737 56.2054 6.20171 56.3344 5.90965 56.4214C5.61758 56.5084 5.31309 56.5519 4.99617 56.5519C4.41825 56.5519 3.89471 56.4058 3.42554 56.1138C2.95948 55.8217 2.58819 55.3914 2.31166 54.8228C2.03824 54.2542 1.90153 53.5566 1.90153 52.7302C1.90153 51.9037 2.03824 51.2061 2.31166 50.6375C2.58819 50.0689 2.95948 49.6386 3.42554 49.3466C3.89471 49.0545 4.41825 48.9085 4.99617 48.9085C5.31309 48.9085 5.61758 48.952 5.90965 49.039C6.20171 49.126 6.46737 49.2565 6.70661 49.4304C6.94896 49.6013 7.15403 49.8126 7.32181 50.0643C7.4927 50.316 7.61232 50.608 7.68068 50.9405Z" fill="black"></path>
    <path fill-rule="evenodd" clip-rule="evenodd" d="M18.1006 55.3401C18.4641 54.6068 18.6459 53.7368 18.6459 52.7302C18.6459 51.7235 18.4641 50.8535 18.1006 50.1202C17.7371 49.3869 17.2384 48.8215 16.6046 48.4238C15.9707 48.0261 15.2468 47.8272 14.4327 47.8272C13.6187 47.8272 12.8947 48.0261 12.2609 48.4238C11.627 48.8215 11.1283 49.3869 10.7648 50.1202C10.4013 50.8535 10.2195 51.7235 10.2195 52.7302C10.2195 53.7368 10.4013 54.6068 10.7648 55.3401C11.1283 56.0734 11.627 56.6389 12.2609 57.0366C12.8947 57.4343 13.6187 57.6331 14.4327 57.6331C15.2468 57.6331 15.9707 57.4343 16.6046 57.0366C17.2384 56.6389 17.7371 56.0734 18.1006 55.3401ZM17.1126 50.6375C17.3891 51.2061 17.5274 51.9037 17.5274 52.7302C17.5274 53.5566 17.3891 54.2542 17.1126 54.8228C16.8391 55.3914 16.4678 55.8217 15.9987 56.1138C15.5326 56.4058 15.0106 56.5519 14.4327 56.5519C13.8548 56.5519 13.3313 56.4058 12.8621 56.1138C12.396 55.8217 12.0247 55.3914 11.7482 54.8228C11.4748 54.2542 11.3381 53.5566 11.3381 52.7302C11.3381 51.9037 11.4748 51.2061 11.7482 50.6375C12.0247 50.0689 12.396 49.6386 12.8621 49.3466C13.3313 49.0545 13.8548 48.9085 14.4327 48.9085C15.0106 48.9085 15.5326 49.0545 15.9987 49.3466C16.4678 49.6386 16.8391 50.0689 17.1126 50.6375Z" fill="black"></path>
    <path d="M20.5894 47.9577H21.9689L25.2127 55.8807H25.3245L28.5683 47.9577H29.9479V57.5026H28.8666V50.2507H28.7734L25.7906 57.5026H24.7466L21.7638 50.2507H21.6706V57.5026H20.5894V47.9577Z" fill="black"></path>
    <path fill-rule="evenodd" clip-rule="evenodd" d="M36.1414 47.9577H32.9163V57.5026H34.0721V54.0165H36.1601C36.9027 54.0165 37.5117 53.8813 37.987 53.611C38.4624 53.3376 38.8135 52.971 39.0403 52.5111C39.2703 52.0513 39.3852 51.5401 39.3852 50.9778C39.3852 50.4154 39.2703 49.9058 39.0403 49.4491C38.8104 48.9923 38.4562 48.6304 37.9777 48.3632C37.5023 48.0928 36.8903 47.9577 36.1414 47.9577ZM34.0721 52.9911H36.1228C36.6355 52.9911 37.0472 52.9026 37.3579 52.7255C37.6686 52.5484 37.8938 52.3091 38.0337 52.0078C38.1766 51.7033 38.248 51.3599 38.248 50.9778C38.248 50.5956 38.1766 50.2538 38.0337 49.9524C37.8938 49.651 37.667 49.4149 37.3532 49.244C37.0394 49.07 36.623 48.983 36.1042 48.983H34.0721V52.9911Z" fill="black"></path>
    <path fill-rule="evenodd" clip-rule="evenodd" d="M41.4183 57.5026H40.2066L43.7113 47.9577H44.9044L48.4092 57.5026H47.1975L46.2379 54.7995H42.3779L41.4183 57.5026ZM44.3452 49.4677L45.8739 53.7741H42.7419L44.2706 49.4677H44.3452Z" fill="black"></path>
    <path d="M56.3462 57.5026H57.4648V47.9577H56.3276V55.4706H56.2344L51.0145 47.9577H49.896V57.5026H51.0518V50.0084H51.145L56.3462 57.5026Z" fill="black"></path>
    <path d="M58.9573 47.9577H60.2809L62.9282 52.4132H63.04L65.6872 47.9577H67.0109L63.562 53.5691V57.5026H62.4062V53.5691L58.9573 47.9577Z" fill="black"></path>
    <path d="M77.6657 57.5019V47.957H76.5285V55.4699H76.4353L71.2154 47.957H70.0969V57.5019H71.2527V50.0077H71.3459L76.5472 57.5019H77.6657Z" fill="black"></path>
    <path fill-rule="evenodd" clip-rule="evenodd" d="M80.37 57.5019H79.1583L82.663 47.957H83.8562L87.3609 57.5019H86.1492L85.1896 54.7988H81.3296L80.37 57.5019ZM83.2969 49.467L84.8256 53.7734H81.6936L83.2223 49.467H83.2969Z" fill="black"></path>
    <path d="M90.2272 47.957H88.8477V57.5019H89.9289V50.25H90.0221L93.0049 57.5019H94.0489L97.0317 50.25H97.1249V57.5019H98.2062V47.957H96.8266L93.5828 55.88H93.471L90.2272 47.957Z" fill="black"></path>
    <path d="M100.524 57.5019V47.957H106.284V48.9823H101.679V52.2075H105.986V53.2328H101.679V56.4766H106.359V57.5019H100.524Z" fill="black"></path>
    <path d="M27.8927 63.0102V63.492H29.303V67.4952H29.8461V63.492H31.2564V63.0102H27.8927Z" fill="black"></path>
    <path fill-rule="evenodd" clip-rule="evenodd" d="M32.6395 67.4952H32.0701L33.7169 63.0102H34.2775L35.9244 67.4952H35.355L34.9041 66.225H33.0904L32.6395 67.4952ZM34.0147 63.7198L34.7331 65.7433H33.2614L33.9797 63.7198H34.0147Z" fill="black"></path>
    <path d="M40.3252 64.0154C40.404 64.1322 40.4675 64.2643 40.5157 64.4118H41.0763C41.0354 64.1943 40.961 63.9964 40.853 63.8183C40.7449 63.6387 40.6099 63.4847 40.4478 63.3563C40.2872 63.2263 40.104 63.1263 39.8982 63.0562C39.6938 62.9847 39.4733 62.9489 39.2368 62.9489C38.9492 62.9489 38.6857 63.0022 38.4462 63.1088C38.2068 63.2154 37.9995 63.3687 37.8243 63.5687C37.6491 63.7687 37.5133 64.011 37.417 64.2957C37.3221 64.5789 37.2746 64.8979 37.2746 65.2527C37.2746 65.7257 37.3578 66.1345 37.5243 66.4791C37.6922 66.8236 37.9258 67.0893 38.2251 67.2762C38.5258 67.4631 38.8747 67.5565 39.2718 67.5565C39.6281 67.5565 39.9434 67.4821 40.2179 67.3331C40.4938 67.1828 40.7099 66.9711 40.8661 66.6981C41.0238 66.4251 41.1026 66.1039 41.1026 65.7345V65.2527H39.3945V65.7345H40.5767C40.5722 65.9943 40.5168 66.2213 40.4106 66.4156C40.3011 66.617 40.1478 66.7733 39.9507 66.8842C39.7551 66.9937 39.5288 67.0484 39.2718 67.0484C38.9944 67.0484 38.7448 66.9798 38.5229 66.8426C38.301 66.7054 38.125 66.5032 37.9951 66.236C37.8652 65.9688 37.8002 65.6411 37.8002 65.2527C37.8002 64.8644 37.8644 64.5366 37.9929 64.2694C38.1214 64.0023 38.2944 63.8001 38.5119 63.6628C38.7295 63.5256 38.9711 63.457 39.2368 63.457C39.3988 63.457 39.5478 63.4789 39.6835 63.5227C39.8193 63.5665 39.9405 63.63 40.0471 63.7132C40.1551 63.7964 40.2478 63.8972 40.3252 64.0154Z" fill="black"></path>
    <path d="M42.0328 63.0102H42.5759V67.0134H44.6607V67.4952H42.0328V63.0102Z" fill="black"></path>
    <path d="M45.5016 67.4952H46.0447V63.0102H45.5016V67.4952Z" fill="black"></path>
    <path d="M50.6901 67.4952H50.1645L47.7205 63.9738H47.6767V67.4952H47.1336V63.0102H47.6592L50.1119 66.5404H50.1557V63.0102H50.6901V67.4952Z" fill="black"></path>
    <path d="M54.4835 63.0102H51.7768V67.4952H54.5186V67.0134H52.3199V65.4892H54.3434V65.0074H52.3199V63.492H54.4835V63.0102Z" fill="black"></path>
    <path d="M57.1969 63.0102H57.74V65.0074H60.1313V63.0102H60.6744V67.4952H60.1313V65.4892H57.74V67.4952H57.1969V63.0102Z" fill="black"></path>
    <path d="M64.4685 63.0102H61.7617V67.4952H64.5035V67.0134H62.3048V65.4892H64.3283V65.0074H62.3048V63.492H64.4685V63.0102Z" fill="black"></path>
    <path fill-rule="evenodd" clip-rule="evenodd" d="M65.4474 63.0102H66.9628C67.3132 63.0102 67.6008 63.0701 67.8256 63.1898C68.0504 63.3081 68.2169 63.4709 68.3249 63.6782C68.433 63.8855 68.487 64.1213 68.487 64.3855C68.487 64.6498 68.433 64.8841 68.3249 65.0885C68.2169 65.2929 68.0512 65.4535 67.8278 65.5703C67.7721 65.599 67.7125 65.6242 67.649 65.6458L68.6622 67.4952H68.0315L67.0858 65.7411C67.0485 65.7425 67.0104 65.7433 66.9715 65.7433H65.9905V67.4952H65.4474V63.0102ZM66.954 65.2527H65.9905V63.492H66.9453C67.1876 63.492 67.3825 63.5293 67.53 63.6037C67.6774 63.6767 67.7847 63.7804 67.8519 63.9147C67.9191 64.049 67.9526 64.2059 67.9526 64.3855C67.9526 64.5651 67.9191 64.7198 67.8519 64.8498C67.7862 64.9782 67.6796 65.0775 67.5322 65.1476C67.3862 65.2177 67.1935 65.2527 66.954 65.2527Z" fill="black"></path>
    <path d="M72.0987 63.0102H69.392V67.4952H72.1337V67.0134H69.9351V65.4892H71.9585V65.0074H69.9351V63.492H72.0987V63.0102Z" fill="black"></path>
  </g>
  <defs>
    <clipPath id="clip0_8_384">
      <rect width="108.76" height="70" fill="white"></rect>
    </clipPath>
  </defs>
</svg>
