<?xml version="1.0" encoding="UTF-8"?>
<svg xmlns="http://www.w3.org/2000/svg" width="109" height="78" viewBox="0 0 109 78" fill="none">
  <path d="M8.78506 59.0496H7.63596C7.56801 58.7191 7.44908 58.4287 7.27919 58.1785C7.11238 57.9283 6.90851 57.7183 6.66757 57.5484C6.42972 57.3754 6.16561 57.2457 5.87525 57.1592C5.58488 57.0727 5.28217 57.0294 4.96709 57.0294C4.39254 57.0294 3.87205 57.1746 3.40561 57.465C2.94227 57.7553 2.57314 58.1832 2.29822 58.7485C2.02639 59.3137 1.89047 60.0072 1.89047 60.8289C1.89047 61.6505 2.02639 62.344 2.29822 62.9093C2.57314 63.4746 2.94227 63.9024 3.40561 64.1928C3.87205 64.4831 4.39254 64.6283 4.96709 64.6283C5.28217 64.6283 5.58488 64.5851 5.87525 64.4986C6.16561 64.4121 6.42972 64.2839 6.66757 64.114C6.90851 63.941 7.11238 63.7294 7.27919 63.4792C7.44908 63.2259 7.56801 62.9356 7.63596 62.6081H8.78506C8.69857 63.0931 8.54103 63.5271 8.31245 63.9101C8.08386 64.2932 7.79968 64.619 7.45989 64.8878C7.1201 65.1534 6.73862 65.3558 6.31543 65.4948C5.89533 65.6338 5.44588 65.7033 4.96709 65.7033C4.15778 65.7033 3.43805 65.5056 2.8079 65.1102C2.17775 64.7148 1.68197 64.1526 1.32056 63.4236C0.959147 62.6946 0.778442 61.8297 0.778442 60.8289C0.778442 59.828 0.959147 58.9631 1.32056 58.2341C1.68197 57.5051 2.17775 56.9429 2.8079 56.5476C3.43805 56.1522 4.15778 55.9545 4.96709 55.9545C5.44588 55.9545 5.89533 56.024 6.31543 56.163C6.73862 56.302 7.1201 56.5059 7.45989 56.7746C7.79968 57.0402 8.08386 57.3646 8.31245 57.7476C8.54103 58.1276 8.69857 58.5616 8.78506 59.0496Z" fill="black"></path>
  <path d="M18.5371 60.8289C18.5371 61.8297 18.3564 62.6946 17.995 63.4236C17.6336 64.1526 17.1378 64.7148 16.5077 65.1102C15.8775 65.5056 15.1578 65.7033 14.3485 65.7033C13.5392 65.7033 12.8195 65.5056 12.1893 65.1102C11.5592 64.7148 11.0634 64.1526 10.702 63.4236C10.3406 62.6946 10.1599 61.8297 10.1599 60.8289C10.1599 59.828 10.3406 58.9631 10.702 58.2341C11.0634 57.5051 11.5592 56.9429 12.1893 56.5476C12.8195 56.1522 13.5392 55.9545 14.3485 55.9545C15.1578 55.9545 15.8775 56.1522 16.5077 56.5476C17.1378 56.9429 17.6336 57.5051 17.995 58.2341C18.3564 58.9631 18.5371 59.828 18.5371 60.8289ZM17.4251 60.8289C17.4251 60.0072 17.2877 59.3137 17.0127 58.7485C16.7409 58.1832 16.3718 57.7553 15.9053 57.465C15.442 57.1746 14.923 57.0294 14.3485 57.0294C13.7739 57.0294 13.2535 57.1746 12.787 57.465C12.3237 57.7553 11.9545 58.1832 11.6796 58.7485C11.4078 59.3137 11.2719 60.0072 11.2719 60.8289C11.2719 61.6505 11.4078 62.344 11.6796 62.9093C11.9545 63.4746 12.3237 63.9024 12.787 64.1928C13.2535 64.4831 13.7739 64.6283 14.3485 64.6283C14.923 64.6283 15.442 64.4831 15.9053 64.1928C16.3718 63.9024 16.7409 63.4746 17.0127 62.9093C17.2877 62.344 17.4251 61.6505 17.4251 60.8289Z" fill="black"></path>
  <path d="M20.4693 56.0842H21.8408L25.0657 63.9611H25.1769L28.4018 56.0842H29.7733V65.5735H28.6983V58.3639H28.6057L25.6402 65.5735H24.6023L21.6369 58.3639H21.5443V65.5735H20.4693V56.0842Z" fill="black"></path>
  <path d="M32.7246 65.5735V56.0842H35.931C36.6754 56.0842 37.2839 56.2186 37.7565 56.4873C38.2323 56.753 38.5844 57.1128 38.813 57.5669C39.0416 58.021 39.1559 58.5276 39.1559 59.0867C39.1559 59.6458 39.0416 60.1539 38.813 60.6111C38.5875 61.0683 38.2384 61.4328 37.7658 61.7046C37.2932 61.9733 36.6878 62.1077 35.9495 62.1077H33.6513V61.0883H35.9124C36.4221 61.0883 36.8314 61.0003 37.1403 60.8242C37.4492 60.6482 37.6731 60.4103 37.8122 60.1107C37.9542 59.808 38.0253 59.4666 38.0253 59.0867C38.0253 58.7067 37.9542 58.367 37.8122 58.0673C37.6731 57.7677 37.4477 57.5329 37.1357 57.363C36.8237 57.1901 36.4098 57.1036 35.8939 57.1036H33.8737V65.5735H32.7246Z" fill="black"></path>
  <path d="M41.1769 65.5735H39.9722L43.4566 56.0842H44.6428L48.1271 65.5735H46.9224L44.0867 57.5855H44.0126L41.1769 65.5735ZM41.6217 61.8668H46.4776V62.8861H41.6217V61.8668Z" fill="black"></path>
  <path d="M57.1299 56.0842V65.5735H56.0179L50.847 58.1229H50.7543V65.5735H49.6052V56.0842H50.7172L55.9067 63.5533H55.9994V56.0842H57.1299Z" fill="black"></path>
  <path d="M58.6138 56.0842H59.9297L62.5615 60.5138H62.6727L65.3045 56.0842H66.6204L63.1917 61.6629V65.5735H62.0426V61.6629L58.6138 56.0842Z" fill="black"></path>
  <path d="M77.2134 56.0835V65.5728H76.1013L70.9304 58.1222H70.8377V65.5728H69.6886V56.0835H70.8007L75.9901 63.5527H76.0828V56.0835H77.2134Z" fill="black"></path>
  <path d="M79.9019 65.5728H78.6972L82.1816 56.0835H83.3678L86.8521 65.5728H85.6474L82.8118 57.5848H82.7376L79.9019 65.5728ZM80.3467 61.8661H85.2026V62.8854H80.3467V61.8661Z" fill="black"></path>
  <path d="M88.3302 56.0835H89.7017L92.9266 63.9604H93.0378L96.2627 56.0835H97.6342V65.5728H96.5592V58.3632H96.4666L93.5011 65.5728H92.4632L89.4978 58.3632H89.4052V65.5728H88.3302V56.0835Z" fill="black"></path>
  <path d="M99.9382 65.5728V56.0835H105.665V57.1029H101.087V60.3092H105.369V61.3286H101.087V64.5535H105.739V65.5728H99.9382Z" fill="black"></path>
  <path d="M27.7304 71.5294V71.0505H31.0746V71.5294H29.6725V75.5093H29.1325V71.5294H27.7304Z" fill="black"></path>
  <path d="M32.4497 75.5093H31.8837L33.5209 71.0505H34.0783L35.7155 75.5093H35.1494L33.817 71.7559H33.7822L32.4497 75.5093ZM32.6587 73.7676H34.9404V74.2466H32.6587V73.7676Z" fill="black"></path>
  <path d="M40.2799 72.4439C40.232 72.2973 40.1689 72.1659 40.0905 72.0498C40.0136 71.9322 39.9214 71.8321 39.814 71.7493C39.708 71.6666 39.5876 71.6035 39.4526 71.5599C39.3176 71.5164 39.1696 71.4946 39.0085 71.4946C38.7443 71.4946 38.5041 71.5628 38.2878 71.6993C38.0716 71.8357 37.8996 72.0367 37.7718 72.3023C37.6441 72.568 37.5802 72.8938 37.5802 73.2799C37.5802 73.666 37.6448 73.9918 37.774 74.2574C37.9032 74.523 38.0781 74.7241 38.2987 74.8605C38.5193 74.9969 38.7675 75.0652 39.0433 75.0652C39.2987 75.0652 39.5237 75.0107 39.7182 74.9019C39.9142 74.7916 40.0666 74.6363 40.1754 74.436C40.2857 74.2342 40.3409 73.9969 40.3409 73.724L40.5063 73.7589H39.1652V73.2799H40.8634V73.7589C40.8634 74.1261 40.785 74.4454 40.6283 74.7168C40.473 74.9882 40.2581 75.1987 39.9838 75.3482C39.711 75.4962 39.3974 75.5703 39.0433 75.5703C38.6485 75.5703 38.3016 75.4774 38.0026 75.2916C37.7051 75.1058 37.4728 74.8416 37.3059 74.4991C37.1405 74.1566 37.0577 73.7502 37.0577 73.2799C37.0577 72.9272 37.1049 72.61 37.1992 72.3285C37.295 72.0454 37.43 71.8045 37.6042 71.6057C37.7784 71.4068 37.9845 71.2544 38.2225 71.1484C38.4605 71.0425 38.7225 70.9895 39.0085 70.9895C39.2436 70.9895 39.4628 71.0251 39.666 71.0962C39.8706 71.1659 40.0528 71.2653 40.2124 71.3945C40.3735 71.5222 40.5078 71.6753 40.6152 71.8538C40.7226 72.0309 40.7966 72.2276 40.8373 72.4439H40.2799Z" fill="black"></path>
  <path d="M41.7882 75.5093V71.0505H42.3281V75.0303H44.4007V75.5093H41.7882Z" fill="black"></path>
  <path d="M45.7767 71.0505V75.5093H45.2368V71.0505H45.7767Z" fill="black"></path>
  <path d="M50.395 71.0505V75.5093H49.8725L47.4428 72.0084H47.3992V75.5093H46.8593V71.0505H47.3818L49.8202 74.5601H49.8638V71.0505H50.395Z" fill="black"></path>
  <path d="M51.4754 75.5093V71.0505H54.1664V71.5294H52.0154V73.036H54.0271V73.515H52.0154V75.0303H54.2012V75.5093H51.4754Z" fill="black"></path>
  <path d="M56.8639 75.5093V71.0505H57.4039V73.036H59.7813V71.0505H60.3212V75.5093H59.7813V73.515H57.4039V75.5093H56.8639Z" fill="black"></path>
  <path d="M61.4022 75.5093V71.0505H64.0932V71.5294H61.9421V73.036H63.9538V73.515H61.9421V75.0303H64.128V75.5093H61.4022Z" fill="black"></path>
  <path d="M65.0664 75.5093V71.0505H66.573C66.9213 71.0505 67.2072 71.11 67.4308 71.229C67.6543 71.3466 67.8197 71.5084 67.9272 71.7145C68.0346 71.9206 68.0883 72.155 68.0883 72.4177C68.0883 72.6804 68.0346 72.9134 67.9272 73.1166C67.8197 73.3198 67.655 73.4795 67.4329 73.5956C67.2109 73.7102 66.9271 73.7676 66.5817 73.7676H65.3625V73.2799H66.5643C66.8023 73.2799 66.9939 73.2451 67.139 73.1754C67.2856 73.1057 67.3916 73.007 67.4569 72.8793C67.5237 72.7501 67.557 72.5963 67.557 72.4177C67.557 72.2392 67.5237 72.0832 67.4569 71.9496C67.3901 71.8161 67.2834 71.7131 67.1368 71.6405C66.9902 71.5665 66.7965 71.5294 66.5555 71.5294H65.6063V75.5093H65.0664ZM67.1652 73.5063L68.2624 75.5093H67.6354L66.5555 73.5063H67.1652Z" fill="black"></path>
  <path d="M68.988 75.5093V71.0505H71.679V71.5294H69.5279V73.036H71.5396V73.515H69.5279V75.0303H71.7138V75.5093H68.988Z" fill="black"></path>
  <path d="M41.6414 49.5139C40.4157 49.5139 39.1899 49.3068 37.9987 48.8924C34.7185 47.753 32.2324 45.1979 31.1448 41.9004L26.8287 28.6414C25.5339 24.6707 26.5697 20.3546 29.5219 17.3851L43.575 3.28021C45.664 1.15671 48.4608 0 51.4303 0C54.3997 0 57.1965 1.15671 59.2855 3.26295L73.3386 17.3679C76.2908 20.3373 77.3267 24.6361 76.0319 28.6242L71.7158 41.8831C70.6454 45.1806 68.1421 47.7357 64.8619 48.8752C61.5989 50.0146 58.077 49.583 55.2112 47.6839L55.1076 47.6149C53.9163 46.8207 52.656 45.9402 51.413 44.9389C50.17 45.9402 48.9097 46.8207 47.7185 47.6321L47.6149 47.7012C45.8194 48.8924 43.7477 49.5139 41.6414 49.5139ZM55.004 41.5724C55.9535 42.2975 56.9031 42.9708 57.8181 43.575L57.8871 43.6268C59.4927 44.6799 61.4436 44.9216 63.2563 44.2829C65.0863 43.6441 66.4847 42.2112 67.089 40.3639L71.405 27.1049C72.1301 24.8778 71.5604 22.4436 69.8858 20.7862L55.8327 6.68127C54.6587 5.49004 53.0876 4.85126 51.413 4.85126C49.7384 4.85126 48.1846 5.5073 46.9934 6.68127L32.9402 20.7862C31.2829 22.4436 30.6959 24.8778 31.421 27.1049L35.7371 40.3639C36.3413 42.2112 37.7397 43.6268 39.5697 44.2829C41.3825 44.9216 43.3506 44.6799 44.9389 43.6268L45.0252 43.575C45.9402 42.9708 46.8898 42.2975 47.8393 41.5724C46.1992 39.7251 44.8008 37.5843 44.0066 35.1155C42.8327 31.5418 43.3333 27.8991 45.3187 25.3785C46.7689 23.5312 48.996 22.4781 51.4303 22.4781C53.8645 22.4781 56.0916 23.5312 57.5418 25.3785C59.5272 27.8991 60.0106 31.5418 58.8539 35.1155C58.0425 37.5843 56.6614 39.7251 55.004 41.5724ZM51.4303 27.3466C50.8778 27.3466 49.8592 27.4847 49.1341 28.3997C47.9774 29.8672 48.1328 32.1288 48.6335 33.6135C49.2032 35.34 50.2045 36.8938 51.4303 38.2922C52.656 36.8938 53.6746 35.34 54.2271 33.6135C54.7105 32.1288 54.8659 29.8672 53.7264 28.3997C53.0013 27.4847 51.9827 27.3466 51.4303 27.3466Z" fill="black"></path>
</svg>
