<?xml version="1.0" encoding="UTF-8"?>
<svg xmlns="http://www.w3.org/2000/svg" width="64" height="64" viewBox="0 0 64 64" fill="none">
  <g clip-path="url(#clip0_1_3)">
    <path d="M31.9873 25.5703L14.4 34.8757V62.8344H25.9751V50.3438H38.0016V62.8344H49.5767V34.9605L31.9873 25.5703Z" fill="#E9EAF4"></path>
    <path d="M43.4437 31.2583L49.5767 34.9605V62.6055H43.4437V31.2583Z" fill="#DDDFED"></path>
    <path d="M25.9751 50.3438H19.7086V62.8344H25.9751V50.3438Z" fill="#DDDFED"></path>
    <path d="M41.3838 1.16554C33.1232 1.16554 26.4286 7.86223 26.4286 16.1208C26.4286 24.3814 41.3838 37.5523 41.3838 37.5523C41.3838 37.5523 56.3412 24.3814 56.3412 16.1208C56.3412 12.1536 54.7645 8.34965 51.9608 5.54594C49.155 2.74223 45.351 1.16554 41.3838 1.16554ZM41.3838 22.773C38.6946 22.773 36.2681 21.1518 35.2381 18.6681C34.2082 16.1822 34.7783 13.3213 36.6792 11.4204C38.5822 9.51733 41.4432 8.94938 43.9269 9.97931C46.4127 11.0092 48.0318 13.4336 48.0318 16.1229C48.0318 17.8861 47.3325 19.5772 46.0842 20.8254C44.8403 22.0715 43.147 22.773 41.3838 22.773Z" fill="#DC363C"></path>
    <path d="M41.3838 37.5523C41.3838 37.5523 56.3412 24.3814 56.3412 16.1208C56.3412 7.86011 49.6445 1.16554 41.3838 1.16554C41.3838 1.16554 63.0612 12.2723 41.3838 37.5523Z" fill="#C11E2A"></path>
    <path d="M42.187 22.7179C40.3666 22.9383 38.5378 22.3979 37.1306 21.2259C35.7234 20.0519 34.863 18.3502 34.7507 16.5213C34.6405 14.6924 35.289 12.8975 36.5457 11.5645C37.8024 10.2294 39.5528 9.47282 41.386 9.47282C37.7113 9.47282 31.2858 10.5049 31.2858 16.1271C31.2858 21.6286 37.707 22.7814 41.386 22.7814C41.653 22.7793 41.92 22.7581 42.187 22.7179Z" fill="#C11E2A"></path>
    <path d="M40.6464 38.3894C41.066 38.7602 41.6954 38.7602 42.1171 38.3894C42.3205 38.2092 44.0244 36.6961 46.2241 34.4477L48.4662 35.6323V57.2185C48.4662 58.702 50.6914 58.702 50.6914 57.2185V36.8106L53.9507 38.5377C55.2604 39.2328 56.303 37.2662 54.9913 36.5711L47.8199 32.7735C52.1854 28.0646 57.4538 21.3107 57.4538 16.1229C57.4538 13.3489 56.7375 10.6214 55.3706 8.20554C54.6395 6.91494 52.7025 8.01269 53.4358 9.30329C54.6119 11.3843 55.2307 13.7324 55.2286 16.1229C55.2286 19.2254 52.7428 23.7436 48.036 29.1899C45.9422 31.5931 43.7213 33.8839 41.3838 36.0498C39.0464 33.8839 36.8275 31.5931 34.7338 29.1899C30.0291 23.7457 27.5433 19.2254 27.5433 16.1229C27.5454 11.3928 29.9634 6.98912 33.9539 4.44819C37.9444 1.90726 42.9563 1.57878 47.2434 3.5772C47.8029 3.85269 48.4789 3.61534 48.7417 3.04951C49.0066 2.4858 48.7544 1.81402 48.1865 1.56183C43.2085 -0.758699 37.3913 -0.379361 32.7566 2.57057C28.124 5.52051 25.3181 10.632 25.316 16.1229C25.316 24.7862 40.0212 37.8363 40.6464 38.3894Z" fill="#231F20"></path>
    <path d="M50.8821 6.05243C51.9566 7.0315 53.4485 5.45693 52.4101 4.43759C52.2893 4.32316 52.1685 4.21084 52.0434 4.10064C50.9309 3.11733 49.458 4.78514 50.5706 5.76845C50.6787 5.8617 50.7804 5.95494 50.8821 6.05243Z" fill="#231F20"></path>
    <path d="M41.3838 21.6604C39.7457 21.6625 38.1902 20.9356 37.1391 19.6789C36.1854 18.5409 34.4795 19.9714 35.4331 21.1073C37.8532 23.9957 41.9984 24.729 45.2599 22.8471C48.5234 20.9653 49.9645 17.0108 48.6781 13.4696C47.3897 9.92845 43.7468 7.82408 40.036 8.47892C36.3253 9.13163 33.6191 12.3571 33.6212 16.1229C33.6212 17.6063 35.8464 17.6063 35.8464 16.1229C35.8464 13.8829 37.1942 11.8633 39.2646 11.0071C41.3351 10.151 43.715 10.6236 45.3001 12.2066C46.8832 13.7896 47.3579 16.1716 46.4996 18.2421C45.6434 20.3104 43.6217 21.6583 41.3838 21.6604Z" fill="#231F20"></path>
    <path d="M62.8344 61.7218H39.1142V50.3417C39.1142 49.7271 38.6162 49.2291 38.0016 49.2291H25.9751C25.3605 49.2291 24.8625 49.7271 24.8625 50.3417V57.85C24.8625 59.3335 27.0877 59.3335 27.0877 57.85V51.4543H36.889V61.7218H15.5126V35.5984L26.9542 29.459C27.4946 29.1687 27.698 28.4927 27.4077 27.9523C27.1173 27.4119 26.4434 27.2085 25.9009 27.4988L9.0045 36.5669C7.69695 37.2683 8.7502 39.2286 10.0556 38.5271L13.2874 36.7936V61.7218H5.61589C4.13245 61.7218 4.13245 63.947 5.61589 63.947H62.8344C64.3179 63.947 64.3179 61.7218 62.8344 61.7218Z" fill="#231F20"></path>
    <path d="M1.88185 61.7218H1.16556C-0.317882 61.7218 -0.317882 63.947 1.16556 63.947H1.88185C3.36318 63.947 3.36318 61.7218 1.88185 61.7218Z" fill="#231F20"></path>
  </g>
  <defs>
    <clipPath id="clip0_1_3">
      <rect width="64" height="64" fill="white"></rect>
    </clipPath>
  </defs>
</svg>
