<?xml version="1.0" encoding="UTF-8"?>
<svg xmlns="http://www.w3.org/2000/svg" width="64" height="64" viewBox="0 0 64 64" fill="none">
  <g clip-path="url(#clip0_5_54)">
    <path d="M38.0419 7.52101C46.4729 15.9555 46.4729 29.6294 38.0419 38.0638C29.6109 46.4983 15.9426 46.4983 7.51161 38.0638C-0.919394 29.6294 -0.919394 15.9555 7.51161 7.52101C15.9426 -0.91344 29.6109 -0.91344 38.0419 7.52101Z" fill="#C2DBE5"></path>
    <path d="M34.3095 5.05955C33.7922 4.54202 33.2557 4.05657 32.6999 3.60106C23.2428 -1.28553 11.6373 1.44967 5.35468 10.0467C-0.92582 18.6436 -0.00875568 30.5361 7.51587 38.066C8.03319 38.5835 8.56975 39.069 9.12768 39.5245C18.5848 44.4132 30.1902 41.678 36.4729 33.081C42.7534 24.484 41.8342 12.5915 34.3095 5.05955Z" fill="#E0EFF4"></path>
    <path d="M34.8547 10.7096C41.5242 17.3819 41.5242 28.2008 34.8547 34.8753C28.1851 41.5497 17.3706 41.5476 10.6989 34.8753C4.02721 28.203 4.02934 17.384 10.6989 10.7096C17.3685 4.03733 28.183 4.03733 34.8547 10.7096Z" fill="#C11E2A"></path>
    <path d="M34.8632 34.8774C39.891 29.8454 41.2805 22.2257 38.3476 15.7438C33.2706 8.53899 23.5506 6.37905 15.9041 10.7567C8.25553 15.1343 5.1901 24.6124 8.82629 32.6405C11.7271 36.7636 16.3018 39.394 21.3232 39.826C26.3424 40.2537 31.2997 38.4445 34.8632 34.8774Z" fill="#DC363C"></path>
    <path d="M41.9069 40.3371L38.8457 37.2747C37.7897 36.3145 36.3019 37.8051 37.2617 38.8594L40.3228 41.9218C41.3789 42.9825 42.9671 41.3936 41.9069 40.3371Z" fill="#C2DBE5"></path>
    <path d="M39.5191 42.7131L42.6807 39.5501L62.2661 59.1414C62.6851 59.5606 62.9224 60.1294 62.9224 60.724C62.9224 61.3163 62.6851 61.8873 62.2661 62.3065C61.8471 62.7256 61.2785 62.963 60.6842 62.963C60.0921 62.963 59.5213 62.7278 59.1024 62.3065L39.5191 42.7131Z" fill="#E9EAF4"></path>
    <path d="M62.2811 62.3086L41.1116 41.1305L39.5298 42.7131L59.1173 62.3086C59.9916 63.1833 61.4089 63.1833 62.2811 62.3086Z" fill="#DDDFED"></path>
    <path d="M17.6741 42.6254L17.4026 42.5527C15.9597 42.1592 15.3676 44.3255 16.8105 44.719L17.1162 44.8003C18.5655 45.1724 19.1235 42.9975 17.6741 42.6254Z" fill="#231F20"></path>
    <path d="M35.6563 35.6708C41.7978 29.5267 42.7448 19.899 37.9201 12.6749C33.0954 5.45091 23.8413 2.64299 15.8186 5.96844C7.79379 9.29389 3.23626 17.8246 4.9293 26.3467C6.62448 34.8688 14.0978 41.0065 22.7832 41.0065C27.6143 41.0193 32.2488 39.0968 35.6563 35.6708ZM11.4984 11.503C16.0645 6.93721 22.9286 5.57281 28.8905 8.04284C34.8547 10.515 38.7431 16.3361 38.7431 22.7946C38.7431 29.253 34.8547 35.0742 28.8905 37.5463C22.9286 40.0185 16.0623 38.6519 11.4984 34.0883C8.49281 31.1007 6.80191 27.0353 6.80191 22.7967C6.80191 18.5581 8.49281 14.4906 11.4984 11.503Z" fill="#231F20"></path>
    <path d="M63.0763 58.348L61.3768 56.6479C60.3187 55.5893 58.7304 57.1761 59.7885 58.2368L61.488 59.937C61.922 60.3732 61.922 61.079 61.488 61.5131C61.0476 61.9344 60.3529 61.9344 59.9104 61.5131L41.1159 42.7109L42.6935 41.1327L56.6975 55.1423C57.7556 56.2009 59.3439 54.612 58.2858 53.5534L43.4888 38.7482C43.0441 38.3269 42.3472 38.3269 41.9026 38.7482L41.1138 39.5373L39.6195 38.0425C46.1566 30.8077 47.3451 20.2048 42.5717 11.7019C37.7961 3.19901 28.1274 -1.30264 18.5506 0.515127C8.97379 2.33504 1.62659 10.0723 0.301229 19.7343C-1.02413 29.3963 3.96735 38.8252 12.6998 43.16C13.2556 43.4359 13.9289 43.2092 14.2047 42.6532C14.4804 42.0972 14.2539 41.4235 13.6981 41.1476C4.26021 36.4792 -0.109205 25.4164 3.59539 15.5556C7.29999 5.69684 17.8708 0.249947 28.0462 2.95949C38.2215 5.66904 44.688 15.6518 43.0014 26.0473C41.3169 36.445 32.0308 43.8722 21.522 43.2284C20.8978 43.1793 20.3548 43.6519 20.3163 44.2785C20.2778 44.9051 20.7588 45.4397 21.3852 45.4697C21.849 45.4996 22.3129 45.5124 22.7746 45.5124C28.4138 45.5124 33.85 43.4188 38.0291 39.6357L39.5255 41.1305L38.7367 41.9197C38.2985 42.3581 38.2985 43.0681 38.7367 43.5065L58.3242 63.102C58.9506 63.7457 59.8099 64.1093 60.7077 64.1157C61.6056 64.1221 62.4692 63.7671 63.1041 63.132C63.739 62.4968 64.0938 61.6328 64.0896 60.7346C64.081 59.8365 63.7176 58.9768 63.0763 58.348Z" fill="#231F20"></path>
    <path d="M25.0256 12.0612C25.2244 12.1039 25.4211 12.151 25.6199 12.2023C27.065 12.5894 27.6464 10.4209 26.1992 10.0338C25.9619 9.96967 25.7225 9.91193 25.4852 9.86274C24.0209 9.55479 23.5592 11.7532 25.0256 12.0612Z" fill="#231F20"></path>
    <path d="M20.1881 9.84136C15.2586 10.8144 11.3167 14.5162 10.0341 19.375C9.87375 19.9738 10.2286 20.5897 10.8272 20.7501C11.4257 20.9105 12.0414 20.5555 12.2017 19.9567C13.2662 15.9234 16.539 12.8503 20.6306 12.0441C22.097 11.7468 21.6545 9.54624 20.1881 9.84136Z" fill="#231F20"></path>
  </g>
  <defs>
    <clipPath id="clip0_5_54">
      <rect width="64" height="64" fill="white"></rect>
    </clipPath>
  </defs>
</svg>
